<?xml version="1.0" encoding="utf-8"?>
<!-- Generator: Adobe Illustrator 15.1.0, SVG Export Plug-In . SVG Version: 6.00 Build 0)  -->
<!DOCTYPE svg PUBLIC "-//W3C//DTD SVG 1.1//EN" "http://www.w3.org/Graphics/SVG/1.1/DTD/svg11.dtd">
<svg version="1.1" xmlns="http://www.w3.org/2000/svg" xmlns:xlink="http://www.w3.org/1999/xlink" x="0px" y="0px" width="90px"
	 height="60px" viewBox="0 0 90 60" enable-background="new 0 0 90 60" xml:space="preserve">
<g id="Layer_2_1_">
</g>
<g id="Layer_1">
	<g id="Layer_2_2_">
	</g>
	<g>
		<path d="M74.945,29.995c0,2.179-1.609,3.81-3.75,3.81H48.756v22.299c0,2.17-1.59,3.811-3.691,3.811
			c-2.139,0-3.809-1.68-3.809-3.811V33.805H18.865c-2.13,0-3.81-1.67-3.81-3.81c0-2.13,1.68-3.811,3.81-3.811h22.391V3.835
			c0-2.13,1.63-3.75,3.809-3.75c2.13,0,3.691,1.58,3.691,3.75v22.349h22.439C73.336,26.184,74.945,27.825,74.945,29.995z"/>
	</g>
</g>
</svg>
