<?xml version="1.0" encoding="utf-8"?>
<!-- Generator: Adobe Illustrator 15.1.0, SVG Export Plug-In . SVG Version: 6.00 Build 0)  -->
<!DOCTYPE svg PUBLIC "-//W3C//DTD SVG 1.1//EN" "http://www.w3.org/Graphics/SVG/1.1/DTD/svg11.dtd">
<svg version="1.1" xmlns="http://www.w3.org/2000/svg" xmlns:xlink="http://www.w3.org/1999/xlink" x="0px" y="0px" width="90px"
	 height="60px" viewBox="0 0 90 60" enable-background="new 0 0 90 60" xml:space="preserve">
<g id="Layer_1">
	<path d="M94.51,44.95c-0.002-0.04-0.003-0.081-0.003-0.122v-0.502L94.51,44.95z"/>
</g>
<g id="Layer_2">
	<path d="M74.904,55.75L74.9,56.39c-0.063,2.012-1.557,3.512-3.527,3.512c-1.908,0-3.43-1.396-3.622-3.243
		c0-0.832-0.001-1.559-0.021-2.188c-0.039-1.234-0.139-2.097-0.389-2.651c-0.275-0.603-0.797-0.999-2.889-1.485
		c-3.547-0.818-6.896-1.591-9.781-2.858c-3.373-1.479-5.596-3.469-6.785-6.075c-0.976-2.135-1.632-5.633,0.77-10.176
		c2.338-4.415,3.866-8.646,4.422-12.235c0.532-3.44,0.176-6.318-1.029-8.322C50.775,8.554,48.074,7.239,45,7.239
		c-3.102,0-5.828,1.343-7.115,3.505c-1.211,2.034-1.568,4.919-1.026,8.339c0.562,3.567,2.104,7.748,4.458,12.093
		c2.458,4.524,1.816,8.033,0.846,10.184c-1.182,2.619-3.383,4.613-6.73,6.094c-2.863,1.267-6.185,2.031-9.7,2.844
		c-2.221,0.513-2.772,0.91-3.058,1.51c-0.261,0.548-0.363,1.41-0.403,2.649c-0.02,0.64-0.023,1.378-0.021,2.224
		c-0.191,1.863-1.636,3.222-3.508,3.222c-2.003,0-3.579-1.538-3.644-3.522l-0.001-0.623c0-3.006,0.096-5.663,1.276-7.802
		c1.072-1.942,2.962-3.282,5.897-4.162c0.428-0.129,0.878-0.247,1.348-0.356l0.506-0.116c5.105-1.179,10.385-2.394,11.519-4.906
		c0.445-0.991,0.245-2.245-0.617-3.831c-3.131-5.777-4.962-11.157-5.438-15.993c-0.443-4.496,0.278-8.366,2.146-11.505
		C34.376,2.644,39.212,0.099,45,0.099c2.805,0,5.366,0.579,7.615,1.719c2.346,1.19,4.217,2.927,5.563,5.161
		c1.869,3.104,2.602,6.956,2.177,11.446c-0.457,4.841-2.266,10.274-5.375,16.146c-0.849,1.601-1.038,2.86-0.585,3.854
		c1.148,2.514,6.505,3.748,11.687,4.941l0.299,0.068c0.473,0.109,0.921,0.228,1.351,0.356c2.935,0.88,4.824,2.222,5.896,4.162
		C74.807,50.093,74.904,52.75,74.904,55.75z"/>
</g>
</svg>
