<?xml version="1.0" encoding="utf-8"?>
<!-- Generator: Adobe Illustrator 20.1.0, SVG Export Plug-In . SVG Version: 6.00 Build 0)  -->
<svg version="1.1" id="Layer_1" xmlns="http://www.w3.org/2000/svg" xmlns:xlink="http://www.w3.org/1999/xlink" x="0px" y="0px"
	 viewBox="0 0 90 60" style="enable-background:new 0 0 90 60;" xml:space="preserve">
<g id="Layer_1_2_">
	<g>
		<path d="M62.9,30c0,1.3-1,2.3-2.2,2.3H47.2v13.3c0,1.3-1,2.3-2.2,2.3c-1.3,0-2.3-1-2.3-2.3V32.3H29.4c-1.3,0-2.3-1-2.3-2.3
			c0-1.3,1-2.3,2.3-2.3h13.4V14.3c0-1.3,1-2.2,2.3-2.2c1.3,0,2.2,0.9,2.2,2.2v13.4h13.4C61.9,27.7,62.9,28.7,62.9,30z"/>
	</g>
</g>
<path d="M45,58.9c-15.9,0-28.9-13-28.9-28.9S29.1,1.1,45,1.1c15.9,0,28.9,13,28.9,28.9C73.9,45.9,60.9,58.9,45,58.9z M45,4.8
	C31.1,4.8,19.8,16.1,19.8,30c0,13.9,11.3,25.2,25.2,25.2c13.9,0,25.2-11.3,25.2-25.2C70.2,16.1,58.9,4.8,45,4.8z"/>
</svg>
