<?xml version="1.0" encoding="utf-8"?>
<!-- Generator: Adobe Illustrator 15.1.0, SVG Export Plug-In . SVG Version: 6.00 Build 0)  -->
<!DOCTYPE svg PUBLIC "-//W3C//DTD SVG 1.1//EN" "http://www.w3.org/Graphics/SVG/1.1/DTD/svg11.dtd">
<svg version="1.1" id="Layer_1" xmlns="http://www.w3.org/2000/svg" xmlns:xlink="http://www.w3.org/1999/xlink" x="0px" y="0px"
	 width="90px" height="60px" viewBox="0 0 90 60" enable-background="new 0 0 90 60" xml:space="preserve">
<g id="Layer_1_1_">
	<path d="M94.51,44.95c-0.002-0.04-0.003-0.081-0.003-0.122v-0.502L94.51,44.95z"/>
</g>
<path d="M61.297,30c0,1.718-0.691,3.275-1.813,4.41l-24.4,24.4c-1.46,1.461-3.827,1.461-5.287,0s-1.46-3.826,0-5.287L53.324,30
	l-3.508-3.508L29.798,6.474c-1.46-1.459-1.46-3.828,0-5.286c1.46-1.46,3.827-1.46,5.287,0l24.401,24.4
	C60.604,26.723,61.297,28.28,61.297,30z"/>
</svg>
