<?xml version="1.0" encoding="utf-8"?>
<!-- Generator: Adobe Illustrator 15.1.0, SVG Export Plug-In . SVG Version: 6.00 Build 0)  -->
<!DOCTYPE svg PUBLIC "-//W3C//DTD SVG 1.1//EN" "http://www.w3.org/Graphics/SVG/1.1/DTD/svg11.dtd">
<svg version="1.1" id="Layer_1" xmlns="http://www.w3.org/2000/svg" xmlns:xlink="http://www.w3.org/1999/xlink" x="0px" y="0px"
	 width="90px" height="60px" viewBox="0 0 90 60" enable-background="new 0 0 90 60" xml:space="preserve">
<g id="Layer_1_1_">
	<path d="M-7.296,44.326v0.502c0,0.041-0.001,0.082-0.003,0.122L-7.296,44.326z"/>
</g>
<path d="M27.725,25.588l24.401-24.4c1.46-1.46,3.827-1.46,5.287,0c1.46,1.458,1.46,3.827,0,5.286L37.395,26.492L33.887,30
	l23.527,23.523c1.46,1.461,1.46,3.826,0,5.287s-3.827,1.461-5.287,0l-24.4-24.4c-1.121-1.135-1.812-2.692-1.812-4.41
	C25.914,28.28,26.607,26.723,27.725,25.588z"/>
</svg>
