<?xml version="1.0" encoding="utf-8"?>
<!-- Generator: Adobe Illustrator 15.1.0, SVG Export Plug-In . SVG Version: 6.00 Build 0)  -->
<!DOCTYPE svg PUBLIC "-//W3C//DTD SVG 1.1//EN" "http://www.w3.org/Graphics/SVG/1.1/DTD/svg11.dtd">
<svg version="1.1" xmlns="http://www.w3.org/2000/svg" xmlns:xlink="http://www.w3.org/1999/xlink" x="0px" y="0px" width="90px"
	 height="60px" viewBox="0 0 90 60" enable-background="new 0 0 90 60" xml:space="preserve">
<g id="Layer_2">
</g>
<g id="Layer_1">
	<g id="Layer_1_1_">
		<path d="M-7.296,44.326v0.502c0,0.041-0.001,0.082-0.003,0.122L-7.296,44.326z"/>
	</g>
	<path d="M40.588,44.488l-24.4-24.402c-1.46-1.46-1.46-3.828,0-5.288c1.458-1.46,3.827-1.46,5.286,0l20.018,20.02L45,38.326
		l23.523-23.528c1.461-1.46,3.826-1.46,5.287,0s1.461,3.827,0,5.287l-24.4,24.402c-1.135,1.121-2.691,1.811-4.41,1.811
		C43.281,46.299,41.724,45.605,40.588,44.488z"/>
</g>
</svg>
