<?xml version="1.0" encoding="utf-8"?>
<!-- Generator: Adobe Illustrator 15.1.0, SVG Export Plug-In . SVG Version: 6.00 Build 0)  -->
<!DOCTYPE svg PUBLIC "-//W3C//DTD SVG 1.1//EN" "http://www.w3.org/Graphics/SVG/1.1/DTD/svg11.dtd">
<svg version="1.1" id="Layer_2_1_" xmlns="http://www.w3.org/2000/svg" xmlns:xlink="http://www.w3.org/1999/xlink" x="0px" y="0px"
	 width="90px" height="60px" viewBox="0 0 90 60" enable-background="new 0 0 90 60" xml:space="preserve">
<path d="M45.001,30.236C45,30.206,45,30.174,45,30.144v-0.38L45.001,30.236z"/>
<path d="M56.47,58.903c-1.565,0-3.311-0.34-5.334-1.041c-5.134-1.778-9.85-4.288-19.772-18.758
	c-10.654-15.537-8.011-24.071-7.017-27.283l0.063-0.203C25.46,8.184,31.296,1.295,35.865,1.1l0.166-0.004
	c0.517,0,0.944,0.112,1.2,0.178c1.09,0.274,10.419,5.518,9.068,15.597l-0.075,0.377c-0.268,0.999-0.9,1.864-1.743,2.391
	c-1.152,0.755-2.105,1.419-2.831,1.95c2.207,3.904,7.207,12.41,9.573,16.341c0.899-0.402,1.971-0.918,2.987-1.471
	c0.916-0.533,2.278-0.632,3.423-0.14c4.324,1.726,7.389,5.453,8.553,10.465c0.396,1.708,0.874,4.635-0.005,6.277l0.014,0.008
	c-0.48,0.815-1.874,2.871-4.441,4.36C60.026,58.436,58.347,58.903,56.47,58.903z M35.766,7.235
	c-1.701,0.797-5.099,4.438-5.619,6.138l-0.069,0.223c-0.76,2.454-2.778,8.974,6.233,22.116c9.593,13.989,13.415,15.313,16.787,16.48
	c1.383,0.479,2.485,0.711,3.371,0.711c0.805,0,1.463-0.191,2.271-0.661c0.821-0.477,1.479-1.116,1.918-1.683
	c-0.038-1.566-0.504-6.207-4.53-8.332c-1.882,0.962-4.162,1.98-5.356,2.305l-2.04,0.554l-1.208-1.735
	c-0.64-0.92-11.661-19.487-12.443-21.34l-0.733-1.736l1.246-1.414c0.886-1.005,3.154-2.608,4.832-3.732
	C40.518,10.807,37.157,8.147,35.766,7.235z"/>
</svg>
