<?xml version="1.0" encoding="utf-8"?>
<!-- Generator: Adobe Illustrator 15.1.0, SVG Export Plug-In . SVG Version: 6.00 Build 0)  -->
<!DOCTYPE svg PUBLIC "-//W3C//DTD SVG 1.1//EN" "http://www.w3.org/Graphics/SVG/1.1/DTD/svg11.dtd">
<svg version="1.1" id="Layer_1" xmlns="http://www.w3.org/2000/svg" xmlns:xlink="http://www.w3.org/1999/xlink" x="0px" y="0px"
	 width="90px" height="60px" viewBox="0 0 90 60" enable-background="new 0 0 90 60" xml:space="preserve">
<g id="Layer_2_1_">
</g>
<g>
	<path d="M79.584,21.835l-5.409-7.771c-0.061-0.09-0.12-0.149-0.131-0.159c-0.06-0.07-0.109-0.141-0.149-0.17l-0.09-0.091
		c-0.051-0.04-0.101-0.08-0.141-0.1l-0.109-0.08c0,0-0.101-0.06-0.13-0.08l-0.03-0.02L45.624,0.335c-0.09-0.05-0.18-0.08-0.22-0.09
		l-0.06-0.03l-0.311-0.06c-0.069-0.011-0.14-0.021-0.189-0.021l-0.28-0.01c-0.09,0.01-0.18,0.02-0.23,0.04l-0.109,0.01
		c0,0-0.13,0.05-0.2,0.07c-0.07,0.02-0.13,0.04-0.13,0.05l-0.09,0.03l-26.24,13.489h-0.061l-0.159,0.11l-0.15,0.101
		c-0.08,0.05-0.15,0.109-0.24,0.189l-0.069,0.05l-0.051,0.061c-0.08,0.09-0.159,0.189-0.229,0.29l-0.16,0.17v0.109l-6.14,11.48
		c-0.271,0.5-0.32,1.07-0.16,1.62c0.16,0.54,0.53,0.99,1.03,1.25l5.229,2.81v10.81c0,0.841,0.38,1.521,1.04,1.881l27.67,14.869
		c0.11,0.061,0.2,0.101,0.26,0.11l0.12,0.061l0.08,0.02c0.17,0.04,0.34,0.07,0.51,0.07c0.2,0,0.4-0.03,0.551-0.08
		c0.109-0.021,0.189-0.061,0.189-0.07c0.07-0.02,0.15-0.05,0.24-0.09h0.03l0.08-0.07l26.399-16.96l0.101-0.06l0.01-0.01
		c0.109-0.091,0.21-0.181,0.33-0.32c0.09-0.09,0.17-0.2,0.239-0.33l0.08-0.14c0.04-0.101,0.08-0.2,0.12-0.341
		c0.05-0.189,0.04-0.5-0.21-0.739v-16.89l2.51,1.18c0.33,0.16,0.74,0.22,1.011,0.22c0.64,0,1.25-0.27,1.649-0.74
		C80.055,23.685,80.124,22.625,79.584,21.835z M43.885,54.185l-23.23-12.58v-7.27l18.23,9.79c0.3,0.17,0.649,0.25,1,0.25
		c0.229,0,0.439-0.03,0.64-0.09c0.54-0.171,1-0.561,1.26-1.07l2.101-4.141V54.185z M15.055,26.505l4.21-7.87l23.97,12.34l-4.26,8.38
		L15.055,26.505z M69.994,39.665l-21.859,14.18v-22.55l21.859-12.4V39.665z"/>
</g>
</svg>
