<?xml version="1.0" encoding="utf-8"?>
<!-- Generator: Adobe Illustrator 15.1.0, SVG Export Plug-In . SVG Version: 6.00 Build 0)  -->
<!DOCTYPE svg PUBLIC "-//W3C//DTD SVG 1.1//EN" "http://www.w3.org/Graphics/SVG/1.1/DTD/svg11.dtd">
<svg version="1.1" xmlns="http://www.w3.org/2000/svg" xmlns:xlink="http://www.w3.org/1999/xlink" x="0px" y="0px" width="90px"
	 height="60px" viewBox="0 0 90 60" enable-background="new 0 0 90 60" xml:space="preserve">
<g id="Layer_1">
	<path d="M94.51,44.95c-0.002-0.04-0.003-0.081-0.003-0.122v-0.502L94.51,44.95z"/>
</g>
<g id="Layer_2">
	<g>
		<path d="M67.715,34.633c0.369-0.227,0.716-0.494,1.027-0.797L67.715,34.633z"/>
		<circle cx="34.233" cy="54.264" r="5.68"/>
		<circle cx="60.114" cy="54.264" r="5.68"/>
		<path d="M32.005,46.1c-2.101,0-3.808-1.707-3.808-3.809c0-1.002,0.391-1.943,1.104-2.648c0.716-0.709,1.676-1.098,2.704-1.098
			h33.81c2.135,0,3.748,1.609,3.748,3.746S67.915,46.1,65.814,46.1H32.005z"/>
		<path d="M32.005,46.1c-2.101,0-3.808-1.707-3.808-3.809c0-1.002,0.391-1.943,1.104-2.648c0.716-0.709,1.676-1.098,2.704-1.098
			h33.81c2.135,0,3.748,1.609,3.748,3.746S67.915,46.1,65.814,46.1H32.005z"/>
		<path d="M73.029,13.364c-0.882-1.367-2.315-2.305-3.928-2.574l-39.18-6.202c-0.302-0.23-0.676-0.487-1.023-0.651l-7.411-3.511
			c-0.515-0.244-1.064-0.368-1.633-0.368c-1.466,0-2.817,0.856-3.445,2.18c-0.436,0.92-0.489,1.955-0.145,2.916
			c0.342,0.959,1.037,1.726,1.956,2.161l6.517,3.087l0.083,0.619l0.001,0.012l2.624,19.865c0,0,0.156,1.72,2.004,3.071
			c0.886,0.648,1.994,0.934,2.905,1.057c0.167,0.021,0.341,0.031,0.515,0.031h33.098c0.632,0,1.224-0.152,1.743-0.422
			c0.001,0,0.001,0,0.002,0l0.002-0.002l1.027-0.797v-0.002c0.002-0.002,0.004-0.002,0.006-0.004
			c0.731-0.715,1.279-1.627,1.555-2.67l3.468-13.175C74.184,16.41,73.912,14.724,73.029,13.364z M63.381,27.5H34.687l-1.948-14.747
			l33.143,5.246L63.381,27.5z"/>
	</g>
</g>
</svg>
