<?xml version="1.0" encoding="utf-8"?>
<!-- Generator: Adobe Illustrator 22.0.1, SVG Export Plug-In . SVG Version: 6.00 Build 0)  -->
<svg version="1.1" id="Livello_1" xmlns="http://www.w3.org/2000/svg" xmlns:xlink="http://www.w3.org/1999/xlink" x="0px" y="0px"
	 viewBox="0 0 90 60" style="enable-background:new 0 0 90 60;" xml:space="preserve">
<style type="text/css">
	.st0{fill:#010101;}
</style>
<g>
	<path class="st0" d="M33.4,47.6c-3.9-0.5-7.1,2.8-6.5,6.7c0.3,2.6,2.5,4.7,5.1,5c3.9,0.5,7.1-2.8,6.6-6.7
		C38.2,50,36.1,47.9,33.4,47.6z M15,0.5v5.7c0,0.1,0.1,0.1,0.1,0.1h5.7c0,0,0.1,0,0.1,0.1l10.5,22.3c0,0,0,0.1,0,0.1l-4,7.2
		c-0.5,1-0.8,2.2-0.7,3.4c0.3,3.1,3.1,5.4,6.2,5.4l35,0c0.1,0,0.1-0.1,0.1-0.1v-5.7c0-0.1-0.1-0.1-0.1-0.1H34
		c-0.4,0-0.7-0.3-0.7-0.7c0-0.1,0-0.3,0.1-0.4l2.6-4.7c0,0,0.1-0.1,0.1-0.1h21.9c2.2,0,4.1-1.2,5.2-3l10.5-19.1
		c0.2-0.4,0.4-0.9,0.4-1.4c0-1.6-1.3-2.9-2.9-2.9H27.5c0,0-0.1,0-0.1-0.1l-2.7-5.8c0,0-0.1-0.1-0.1-0.1l-9.4,0
		C15.1,0.3,15,0.4,15,0.5z M62.9,47.6c-3.9-0.5-7.1,2.8-6.5,6.7c0.3,2.6,2.5,4.7,5.1,5c3.9,0.5,7.1-2.8,6.6-6.7
		C67.7,50,65.6,47.9,62.9,47.6z"/>
</g>
</svg>
