<?xml version="1.0" encoding="utf-8"?>
<!-- Generator: Adobe Illustrator 15.1.0, SVG Export Plug-In . SVG Version: 6.00 Build 0)  -->
<!DOCTYPE svg PUBLIC "-//W3C//DTD SVG 1.1//EN" "http://www.w3.org/Graphics/SVG/1.1/DTD/svg11.dtd">
<svg version="1.1" xmlns="http://www.w3.org/2000/svg" xmlns:xlink="http://www.w3.org/1999/xlink" x="0px" y="0px" width="90px"
	 height="60px" viewBox="0 0 90 60" enable-background="new 0 0 90 60" xml:space="preserve">
<g id="Layer_3">
</g>
<g id="Layer_2_1_">
</g>
<g id="Layer_1">
	<g id="Layer_2_2_">
	</g>
	<path d="M14.567,39.41c-0.512-0.513-0.794-1.191-0.794-1.916c0-0.724,0.282-1.403,0.793-1.915c0.513-0.514,1.193-0.796,1.917-0.796
		c0.723,0,1.403,0.282,1.915,0.794l15.622,15.62L71.354,1.642c0.516-0.686,1.309-1.079,2.17-1.079c0.41,0,1.025,0.096,1.625,0.547
		c0.578,0.435,0.951,1.069,1.053,1.786s-0.084,1.43-0.52,2.008L34.595,59.437L14.567,39.41z"/>
</g>
</svg>
