<?xml version="1.0" encoding="utf-8"?>
<!-- Generator: Adobe Illustrator 15.1.0, SVG Export Plug-In . SVG Version: 6.00 Build 0)  -->
<!DOCTYPE svg PUBLIC "-//W3C//DTD SVG 1.1//EN" "http://www.w3.org/Graphics/SVG/1.1/DTD/svg11.dtd">
<svg version="1.1" xmlns="http://www.w3.org/2000/svg" xmlns:xlink="http://www.w3.org/1999/xlink" x="0px" y="0px" width="90px"
	 height="60px" viewBox="0 0 90 60" enable-background="new 0 0 90 60" xml:space="preserve">
<g id="Layer_2">
</g>
<g id="Layer_1">
	<g>
		<path d="M73.799,53.516L50.283,30.001L73.799,6.485c1.46-1.458,1.46-3.824,0-5.284c-1.457-1.46-3.823-1.46-5.283,0L45,24.717
			L21.484,1.202c-1.458-1.46-3.823-1.46-5.283,0c-1.46,1.457-1.46,3.824,0,5.284l23.515,23.516L16.202,53.516
			c-1.46,1.459-1.46,3.823,0,5.284c1.459,1.459,3.824,1.459,5.283,0L45,35.284L68.516,58.8c1.46,1.459,3.826,1.459,5.283,0
			C75.259,57.34,75.259,54.976,73.799,53.516z"/>
	</g>
</g>
</svg>
