<?xml version="1.0" encoding="utf-8"?>
<!-- Generator: Adobe Illustrator 21.0.2, SVG Export Plug-In . SVG Version: 6.00 Build 0)  -->
<svg version="1.1" id="Layer_1" xmlns="http://www.w3.org/2000/svg" xmlns:xlink="http://www.w3.org/1999/xlink" x="0px" y="0px"
	 viewBox="0 0 90 60" style="enable-background:new 0 0 90 60;" xml:space="preserve">
<style type="text/css">
	.st0{opacity:0.98;}
</style>
<path d="M12,55.9c-0.6,0-1.1-0.5-1.1-1.1V22.7l0-0.2c0-1.9,0.6-3.7,1.6-5.3c1.1-1.7,2.8-3.1,4.8-3.8c0.1,0,0.2-0.1,0.3-0.1
	c0.9-0.3,1.9-0.5,2.9-0.5c0.1,0,0.2,0,0.3,0c0,0,10.7,0,10.7,0c-0.3-2-0.3-3.7-0.1-4.8c0.5-2.5,2.4-4.1,4.9-4.1
	c2.5,0,4.4,1.6,4.9,4.1c0.2,1.1,0.1,2.9-0.2,4.8c-0.1,0.7-0.3,1.5-0.5,2.1c-0.2,0.5-0.3,1-0.5,1.4c0,0-0.1,0.1-0.1,0.1
	c-0.5,0.9-1.5,2-3.5,2h-0.1c-2,0-3.1-1.1-3.5-2c0-0.1-0.1-0.1-0.1-0.2c-0.2-0.4-0.3-0.8-0.5-1.3l-11.7,0c-0.7,0-1.4,0.2-2.1,0.4
	c-1.7,0.6-3.1,1.7-4,3.2c-0.7,1.2-1.1,2.5-1.1,3.9l0,0.3l0,0.3v30.5l17.3,0.1l0.1-14.6c0-3.4,2.7-6.1,6.1-6.1H51
	c3.4,0,6.1,2.7,6.1,6.1v14.5l17.6,0.1l0-30.6l0-0.6c0-1.3-0.4-2.7-1.1-3.9c-0.9-1.5-2.3-2.7-4-3.2c-0.7-0.2-1.4-0.4-2.1-0.4H55.8
	c-0.2,0.5-0.3,0.9-0.5,1.3c-0.3,0.7-0.6,1.5-1,2.1c0,0.1-0.1,0.2-0.1,0.2c-2.6,4.6-6.1,7.1-10.6,7.5l-0.2,0c-0.1,0-0.3,0-0.4,0
	c-1.1,0-3.2-0.2-4.4-1.3c-0.6-0.6-1-1.4-1-2.2c0.1-1.8,1.4-2.7,2.3-3.3l0.7-0.5c0.1-0.1,0.2-0.2,0.3-0.3c0.6-0.6,1.2-1.3,1.6-2.2
	c0.2-0.5,0.4-0.9,0.5-1.4c0.1-0.4,0.2-0.8,0.3-1.2c0.1-0.3,0.1-0.6,0.1-0.9c0.1-1.2,0.2-2.5,0.2-3.7c0-0.5,0-0.9,0.1-1.3
	c0.1-1.7,0.8-3.3,2-4.4c1.2-1.1,2.7-1.7,4.4-1.7c3.7,0,5.8,2.5,6.3,4.9c0.2,1.4,0.3,2.9,0.2,4.1c-0.1,0.7-0.1,1.4-0.3,1.9
	c0,0,10.7,0.1,10.8,0.1c0.1,0,0.2,0,0.2,0c1,0,2,0.2,2.9,0.5c0.1,0,0.2,0.1,0.3,0.1c0.7,0.3,1.3,0.5,1.8,0.9c1.2,0.7,2.2,1.8,3,2.9
	c0.4,0.6,0.7,1.1,0.9,1.7c0.1,0.2,0.2,0.5,0.3,0.7c0.1,0.3,0.2,0.6,0.2,0.9c0.2,0.7,0.2,1.4,0.2,2.1l0,32.3c0,0.6-0.4,1.1-1,1.1H12z
	 M45,53.6l9.7,0.1l0.1-14.6c0-2.1-1.7-3.7-3.7-3.7h-6V53.6z M36.6,35.4c-2.1,0-3.7,1.7-3.7,3.7v14.5l9.7,0.1l0.1-18.2L36.6,35.4z
	 M50.1,3.7c-2.5,0-4.2,1.7-4.4,4.2c0,0.4,0,0.8-0.1,1.3c-0.1,2.3-0.2,4.9-0.9,7.2c-0.3,0.8-0.6,1.5-1,2.1c-0.5,0.8-1.1,1.4-1.9,2
	c-0.3,0.2-0.5,0.3-0.8,0.5c-1,0.6-1.4,1-1.4,1.7c0,0.3,0.1,0.5,0.3,0.8c0.6,0.6,1.9,0.8,3,0.8c0.2,0,0.4,0,0.6,0
	c3.4-0.2,6.3-2.1,8.5-5.6c0.2-0.3,0.3-0.5,0.5-0.8c0.2-0.4,0.5-0.9,0.7-1.3c0.2-0.4,0.4-0.9,0.6-1.4c0.3-0.8,0.5-1.5,0.6-2.2
	c0.1-0.7,0.3-1.4,0.3-2.2c0.1-1.4,0-2.7-0.2-3.6C53.9,4.5,51.7,3.7,50.1,3.7z M36.2,5.9c-2.2,0-2.8,1.7-2.9,2.4
	c-0.2,1-0.1,2.8,0.3,4.5c0.2,0.8,0.4,1.6,0.6,2.2c0.1,0.2,0.2,0.4,0.2,0.6c0.3,0.5,0.7,0.8,1.4,0.9c0.1,0,0.3,0,0.4,0s0.3,0,0.4,0
	c0.7-0.1,1.1-0.4,1.4-0.9c0.1-0.2,0.2-0.3,0.2-0.6c0-0.1,0.1-0.2,0.1-0.3l0.1-0.2c0.1-0.5,0.3-1,0.4-1.6c0.3-1.8,0.4-3.5,0.3-4.5
	C39,7.5,38.5,5.9,36.2,5.9z"/>
</svg>
