<?xml version="1.0" encoding="utf-8"?>
<!-- Generator: Adobe Illustrator 21.0.2, SVG Export Plug-In . SVG Version: 6.00 Build 0)  -->
<svg version="1.1" id="Layer_1" xmlns="http://www.w3.org/2000/svg" xmlns:xlink="http://www.w3.org/1999/xlink" x="0px" y="0px"
	 viewBox="0 0 90 60" style="enable-background:new 0 0 90 60;" xml:space="preserve">
<style type="text/css">
	.st0{fill:#020202;}
</style>
<g>
	<path class="st0" d="M48.7,52.6v3.7c0,0.8,0.6,1.4,1.4,1.4h4.3c0.6,0,1.1,0.5,1.1,1.1S54.9,60,54.3,60H40.7c-0.6,0-1.1-0.5-1.1-1.1
		c0-0.6,0.5-1.1,1.1-1.1h4.4c0.8,0,1.4-0.6,1.4-1.4v-3.7c0-0.7-0.6-1.4-1.3-1.4c-6.4-0.6-12.5-3.5-17-8.2
		C17.8,32.3,17.4,15.1,27.3,3.9c0.2-0.2,0.5-0.3,0.8-0.3c0.3,0,0.6,0.1,0.8,0.3c0.4,0.4,0.4,1.1,0,1.6c-9,10.3-8.6,26.1,0.8,36
		c4.8,4.9,11.1,7.6,17.9,7.6c6.3,0,12.4-2.4,17-6.8c0.2-0.2,0.5-0.3,0.8-0.3c0.3,0,0.6,0.1,0.8,0.3c0.2,0.2,0.3,0.5,0.3,0.8
		c0,0.3-0.1,0.6-0.3,0.8C61.6,48.1,56,50.6,50,51.1C49.2,51.2,48.7,51.8,48.7,52.6z"/>
	<path class="st0" d="M69.6,19.3c-1.5-9.7-9-17.5-18.4-19C50,0.1,48.8,0,47.6,0C41.1,0,35,3,30.7,8.1c-4.2,5.1-6.1,11.8-5.1,18.5
		c1.5,9.7,9.1,17.5,18.4,19c1.2,0.2,2.4,0.3,3.5,0.3c6.5,0,12.6-2.9,16.9-8C68.7,32.7,70.6,26,69.6,19.3z M48.7,43.6
		c-0.4,0-0.7,0-1.1,0c-11.1,0-20.1-9.3-20.1-20.7c0-11.4,9-20.7,20.1-20.7c5.5,0,10.8,2.4,14.5,6.5c3.8,4.2,5.8,9.6,5.5,15.3
		C67.1,34.5,58.8,43,48.7,43.6z"/>
</g>
</svg>
