<?xml version="1.0" encoding="utf-8"?>
<!-- Generator: Adobe Illustrator 21.0.2, SVG Export Plug-In . SVG Version: 6.00 Build 0)  -->
<svg version="1.1" id="Layer_1" xmlns="http://www.w3.org/2000/svg" xmlns:xlink="http://www.w3.org/1999/xlink" x="0px" y="0px"
	 viewBox="0 0 90 60" style="enable-background:new 0 0 90 60;" xml:space="preserve">
<g>
	<g>
		<g>
			<path d="M55.4,0.2H34.6c-3.5,0-6.3,2.8-6.3,6.3v47c0,3.5,2.8,6.3,6.3,6.3h20.9c3.5,0,6.3-2.8,6.3-6.3v-47
				C61.8,3,58.9,0.2,55.4,0.2z M59.5,53.5c0,2.3-1.8,4.1-4.1,4.1H34.6c-2.3,0-4.1-1.8-4.1-4.1v-6.7h29.1V53.5z M59.5,44.5H30.5V10.2
				h29.1V44.5z M59.5,8H30.5V6.5c0-2.3,1.8-4.1,4.1-4.1h20.9c2.3,0,4.1,1.9,4.1,4.1V8z"/>
			<path d="M55.4,0.2H34.6c-3.5,0-6.3,2.8-6.3,6.3v47c0,3.5,2.8,6.3,6.3,6.3h20.9c3.5,0,6.3-2.8,6.3-6.3v-47
				C61.8,3,58.9,0.2,55.4,0.2z M59.5,53.5c0,2.3-1.8,4.1-4.1,4.1H34.6c-2.3,0-4.1-1.8-4.1-4.1v-6.7h29.1V53.5z M59.5,44.5H30.5V10.2
				h29.1V44.5z M59.5,8H30.5V6.5c0-2.3,1.8-4.1,4.1-4.1h20.9c2.3,0,4.1,1.9,4.1,4.1V8z"/>
			<path d="M45,48.5c-2,0-3.7,1.7-3.7,3.7c0,2,1.7,3.7,3.7,3.7s3.7-1.7,3.7-3.7C48.7,50.1,47,48.5,45,48.5z M45,53.7
				c-0.8,0-1.5-0.7-1.5-1.5c0-0.8,0.7-1.5,1.5-1.5c0.8,0,1.5,0.7,1.5,1.5C46.5,53,45.8,53.7,45,53.7z"/>
			<path d="M45,48.5c-2,0-3.7,1.7-3.7,3.7c0,2,1.7,3.7,3.7,3.7s3.7-1.7,3.7-3.7C48.7,50.1,47,48.5,45,48.5z M45,53.7
				c-0.8,0-1.5-0.7-1.5-1.5c0-0.8,0.7-1.5,1.5-1.5c0.8,0,1.5,0.7,1.5,1.5C46.5,53,45.8,53.7,45,53.7z"/>
			<path d="M44.4,6.3c-0.6,0-1.1-0.5-1.1-1.1s0.5-1.1,1.1-1.1h1.3c0.6,0,1.1,0.5,1.1,1.1s-0.5,1.1-1.1,1.1H44.4z"/>
		</g>
	</g>
</g>
</svg>
