<?xml version="1.0" encoding="utf-8"?>
<!-- Generator: Adobe Illustrator 21.0.2, SVG Export Plug-In . SVG Version: 6.00 Build 0)  -->
<svg version="1.1" id="Layer_1" xmlns="http://www.w3.org/2000/svg" xmlns:xlink="http://www.w3.org/1999/xlink" x="0px" y="0px"
	 viewBox="0 0 90 60" style="enable-background:new 0 0 90 60;" xml:space="preserve">
<path d="M64.9,10H25.1c-4,0-7.3,3.3-7.3,7.3v25.5c0,4,3.3,7.3,7.3,7.3h39.7c4,0,7.3-3.3,7.3-7.3V17.3C72.1,13.3,68.9,10,64.9,10z
	 M70.1,42.7c0,2.9-2.3,5.2-5.2,5.2H25.1c-2.9,0-5.2-2.3-5.2-5.2v-8.4c0.6-0.1,1.1-0.3,1.7-0.3h11.7c0.2,0.5,0.3,0.9,0.5,1.3
	c0,0.1,0.1,0.1,0.1,0.2c0.4,0.9,1.5,2,3.5,2h0.1c2,0,3-1.1,3.5-2l0.1-0.1c0.2-0.4,0.3-0.9,0.5-1.4c0.2-0.6,0.4-1.4,0.5-2.1
	c0.3-1.9,0.4-3.7,0.2-4.8c-0.5-2.5-2.4-4.1-4.9-4.1s-4.4,1.6-4.9,4.1c-0.2,1.1-0.2,2.8,0.1,4.8h-11c-0.6,0-1.1,0.1-1.7,0.2V17.3
	c0-2.9,2.3-5.2,5.2-5.2h39.7c2.9,0,5.2,2.3,5.2,5.2V32c-0.5-0.1-1.1-0.2-1.7-0.2c0,0-0.1,0-0.2,0c-0.1,0-10.8-0.1-10.8-0.1
	c0.2-0.5,0.2-1.2,0.3-1.9c0.1-1.2,0-2.7-0.2-4.1c-0.5-2.4-2.6-4.9-6.3-4.9c-1.7,0-3.2,0.6-4.4,1.7c-1.2,1.1-1.9,2.7-2,4.4
	c-0.1,0.4-0.1,0.8-0.1,1.3c0,1.2-0.1,2.5-0.2,3.7c0,0.3,0,0.6-0.1,0.9c-0.1,0.4-0.2,0.8-0.3,1.2c-0.1,0.5-0.3,0.9-0.5,1.4
	c-0.4,0.9-1,1.6-1.6,2.2l-0.3,0.3L41,38.4c-0.9,0.6-2.2,1.5-2.3,3.3c0,0.8,0.4,1.6,1,2.2c1.2,1.1,3.3,1.3,4.4,1.3h0.6
	c4.5-0.4,8-2.9,10.6-7.5c0,0,0.1-0.1,0.1-0.2c0.4-0.6,0.7-1.4,1-2.1c0.2-0.4,0.3-0.8,0.5-1.3h11.7c0.5,0,1,0.1,1.5,0.2V42.7z
	 M34.4,27.5c0.1-0.7,0.7-2.4,2.9-2.4c2.3,0,2.8,1.6,2.9,2.5c0.1,1,0,2.7-0.3,4.5c-0.1,0.6-0.3,1.1-0.4,1.6l-0.1,0.2
	c0,0.1-0.1,0.2-0.1,0.3c0,0.3-0.1,0.4-0.2,0.6c-0.3,0.5-0.7,0.8-1.4,0.9h-0.8c-0.7-0.1-1.1-0.4-1.4-0.9c0-0.2-0.1-0.4-0.2-0.6
	c-0.2-0.6-0.4-1.4-0.6-2.2C34.3,30.3,34.2,28.5,34.4,27.5z M55.8,30c0,0.8-0.2,1.5-0.3,2.2s-0.3,1.4-0.6,2.2c-0.2,0.5-0.4,1-0.6,1.4
	c-0.2,0.4-0.5,0.9-0.7,1.3c-0.2,0.3-0.3,0.5-0.5,0.8c-2.2,3.5-5.1,5.4-8.5,5.6H44c-1.1,0-2.4-0.2-3-0.8c-0.2-0.3-0.3-0.5-0.3-0.8
	c0-0.7,0.4-1.1,1.4-1.7c0.3-0.2,0.5-0.3,0.8-0.5c0.8-0.6,1.4-1.2,1.9-2c0.4-0.6,0.7-1.3,1-2.1c0.7-2.3,0.8-4.9,0.9-7.2
	c0.1-0.5,0.1-0.9,0.1-1.3c0.2-2.5,1.9-4.2,4.4-4.2c1.6,0,3.8,0.8,4.4,3.5C55.8,27.3,55.9,28.6,55.8,30z"/>
</svg>
