<?xml version="1.0" encoding="utf-8"?>
<!-- Generator: Adobe Illustrator 21.0.2, SVG Export Plug-In . SVG Version: 6.00 Build 0)  -->
<svg version="1.1" id="Layer_1" xmlns="http://www.w3.org/2000/svg" xmlns:xlink="http://www.w3.org/1999/xlink" x="0px" y="0px"
	 viewBox="0 0 90 60" style="enable-background:new 0 0 90 60;" xml:space="preserve">
<style type="text/css">
	.st0{opacity:0.98;}
</style>
<g>
	<g>
		<path d="M67.8,17.6l-0.6-0.1V2.9c0-0.4-0.2-0.8-0.6-1c-0.2-0.1-0.3-0.1-0.5-0.1c-0.2,0-0.5,0.1-0.7,0.2c-14,9.7-22,10.9-27.5,10.9
			H22.5c-5.6,0-10.2,4.6-10.2,10.3v4.1c0,5.7,4.6,10.3,10.2,10.3h7.9l8.2,19.9c0.2,0.4,0.6,0.7,1.1,0.7c0.1,0,0.3,0,0.4-0.1
			c0.6-0.2,0.9-0.9,0.6-1.5l-7.8-19h4.9c18.6,0,26.4,9.6,27.2,10.7c0.2,0.3,0.6,0.5,0.9,0.5c0.1,0,0.2,0,0.3,0
			c0.5-0.2,0.8-0.6,0.8-1.1V33l0.6-0.1c3.6-0.8,6.1-4,6.1-7.7C73.8,21.6,71.3,18.4,67.8,17.6z M30,35.2h-7.5c-4.4,0-7.9-3.6-7.9-7.9
			v-4.1c0-4.4,3.5-7.9,7.9-7.9H30V35.2z M64.8,44.5l-1.2-1c-4.6-3.8-12.7-8.3-25.8-8.3h-5.5v-20h5.5c5.3,0,13-1.1,25.8-9.3l1.2-0.8
			V44.5z M68.2,30.3l-1.1,0.5v-11l1.1,0.5c2,0.9,3.3,2.9,3.3,5C71.5,27.4,70.2,29.4,68.2,30.3z"/>
		<path d="M79,26.4c-0.6,0-1.2-0.5-1.2-1.2c0-0.6,0.5-1.2,1.2-1.2h7.5c0.7,0,1.2,0.5,1.2,1.2c0,0.6-0.5,1.2-1.2,1.2H79z"/>
		<path d="M78.1,19.7c-0.5,0-0.9-0.3-1.1-0.7c-0.2-0.6,0.1-1.3,0.6-1.5l7.3-2.9c0.1-0.1,0.3-0.1,0.4-0.1c0.5,0,0.9,0.3,1.1,0.7
			c0.2,0.6-0.1,1.3-0.7,1.5l-7.3,2.9C78.4,19.7,78.3,19.7,78.1,19.7z"/>
		<path d="M85.4,35.9c-0.2,0-0.3,0-0.4-0.1L77.7,33c-0.6-0.2-0.9-0.9-0.7-1.5c0.2-0.5,0.6-0.7,1.1-0.7c0.1,0,0.3,0,0.4,0.1l7.3,2.9
			c0.3,0.1,0.5,0.3,0.6,0.6c0.1,0.3,0.1,0.6,0,0.9C86.3,35.6,85.9,35.9,85.4,35.9z"/>
	</g>
</g>
</svg>
