<?xml version="1.0" encoding="utf-8"?>
<!-- Generator: Adobe Illustrator 21.0.2, SVG Export Plug-In . SVG Version: 6.00 Build 0)  -->
<svg version="1.1" id="Layer_1" xmlns="http://www.w3.org/2000/svg" xmlns:xlink="http://www.w3.org/1999/xlink" x="0px" y="0px"
	 viewBox="0 0 90 60" style="enable-background:new 0 0 90 60;" xml:space="preserve">
<style type="text/css">
	.st0{fill:#020202;}
</style>
<g>
	<path class="st0" d="M71.8,33.1c-3.6,0-6.6,2.6-7.2,6.1h-5c-4,0-7.3,3.3-7.3,7.3v13.4h2.4V46.5c0-2.7,2.2-4.9,4.9-4.9h5
		c0.6,3.5,3.6,6.1,7.2,6.1c4,0,7.3-3.3,7.3-7.3C79.2,36.3,75.9,33.1,71.8,33.1z M71.8,45.3c-2.7,0-4.9-2.2-4.9-4.9s2.2-4.9,4.9-4.9
		s4.9,2.2,4.9,4.9S74.5,45.3,71.8,45.3z"/>
	<path class="st0" d="M38.9,14.7H34c0-4-3.3-7.3-7.3-7.3s-7.3,3.3-7.3,7.3s3.3,7.3,7.3,7.3c3.2,0,5.9-2,6.9-4.9h5.3
		c2.7,0,4.9,2.2,4.9,4.9v37.8h2.4V22.1C46.2,18,42.9,14.7,38.9,14.7z M26.7,19.6c-2.7,0-4.9-2.2-4.9-4.9s2.2-4.9,4.9-4.9
		s4.9,2.2,4.9,4.9S29.4,19.6,26.7,19.6z"/>
	<path class="st0" d="M30.4,33.1h-5c-0.6-3.5-3.6-6.1-7.2-6.1c-4,0-7.3,3.3-7.3,7.3s3.3,7.3,7.3,7.3c3.6,0,6.6-2.6,7.2-6.1h5
		c2.7,0,4.9,2.2,4.9,4.9v19.5h2.4V40.4C37.7,36.3,34.4,33.1,30.4,33.1z M18.2,39.2c-2.7,0-4.9-2.2-4.9-4.9s2.2-4.9,4.9-4.9
		s4.9,2.2,4.9,4.9S20.8,39.2,18.2,39.2z"/>
	<path class="st0" d="M60.7,24.5h3.9c0.6,3.5,3.6,6.1,7.2,6.1c4,0,7.3-3.3,7.3-7.3S75.9,16,71.8,16c-3.6,0-6.6,2.6-7.2,6.1h-3.9
		c-1.9,0-3.5-1.6-3.5-3.5V0.1h-2.4v18.5C54.8,21.9,57.4,24.5,60.7,24.5z M71.8,18.4c2.7,0,4.9,2.2,4.9,4.9s-2.2,4.9-4.9,4.9
		S67,26,67,23.3S69.2,18.4,71.8,18.4z"/>
</g>
</svg>
