<?xml version="1.0" encoding="utf-8"?>
<!-- Generator: Adobe Illustrator 21.0.2, SVG Export Plug-In . SVG Version: 6.00 Build 0)  -->
<svg version="1.1" id="Layer_1" xmlns="http://www.w3.org/2000/svg" xmlns:xlink="http://www.w3.org/1999/xlink" x="0px" y="0px"
	 viewBox="0 0 90 60" style="enable-background:new 0 0 90 60;" xml:space="preserve">
<style type="text/css">
	.st0{opacity:0.98;enable-background:new    ;}
</style>
<g>
	<path d="M65.1,21.5c0-11.1-9-20.1-20.1-20.1s-20.1,9-20.1,20.1c0,4.7,1.6,9.2,4.6,12.8l0.3,0.4v22.8c0,0.4,0.2,1.2,1.2,1.2h0.4
		L45,50.1l13.3,8.3c0.3,0.1,0.6,0.2,0.8,0.2c0.3,0,0.5-0.1,0.7-0.3c0.3-0.3,0.3-0.6,0.3-0.7V35.2L60,34.7l0.4-0.5
		C63.4,30.7,65.1,26.1,65.1,21.5z M58.1,55.4h-0.2l-12.2-7.7c-0.2-0.1-0.4-0.2-0.6-0.2c-0.2,0-0.4,0.1-0.6,0.2l-12.2,7.7V37.1
		l2.1,1.3c3.2,2.1,7,3.2,10.8,3.2s7.6-1.1,10.8-3.2l2.1-1.3C58.1,37.1,58.1,55.4,58.1,55.4z M45,39.3c-9.8,0-17.8-8-17.8-17.8
		S35.2,3.6,45,3.6s17.8,8,17.8,17.8S54.8,39.3,45,39.3z"/>
	<polygon class="st0" points="46.4,13.3 46.4,29.6 44.1,29.6 44.1,15.3 40.7,15.3 40.7,13.3 	"/>
</g>
</svg>
