<?xml version="1.0" encoding="utf-8"?>
<!-- Generator: Adobe Illustrator 21.0.2, SVG Export Plug-In . SVG Version: 6.00 Build 0)  -->
<svg version="1.1" id="Layer_1" xmlns="http://www.w3.org/2000/svg" xmlns:xlink="http://www.w3.org/1999/xlink" x="0px" y="0px"
	 viewBox="0 0 90 60" style="enable-background:new 0 0 90 60;" xml:space="preserve">
<style type="text/css">
	.st0{fill:#020202;}
</style>
<g>
	<path class="st0" d="M75.1,30.6l0-0.2c0-0.1,0-0.1,0-0.2c0-8.1-3.1-15.7-8.8-21.4C60.6,3.2,53.1,0.1,45,0.1
		c-8.1,0-15.6,3.1-21.4,8.8c-5.7,5.7-8.8,13.3-8.8,21.4v14.6c0,7.9,6.4,14.3,14.3,14.3c0.6,0,1.1-0.5,1.1-1.1V31.7
		c0-0.6-0.5-1.1-1.1-1.1c-4.2,0-8.2,1.8-10.9,5L17,37.1v-6.8c0-15.5,12.6-28,28-28c15.5,0,28,12.6,28,28c0,0.1,0,0.1,0,0.2l0,0.2
		l0,0.2c0,0.1,0,0.1,0,0.2v6.8l-1.2-1.4c-2.7-3.2-6.7-5-10.9-5c-0.6,0-1.1,0.5-1.1,1.1v26.4c0,0.6,0.5,1.1,1.1,1.1
		c7.9,0,14.3-6.4,14.3-14.3V31c0-0.1,0-0.1,0-0.2L75.1,30.6z M27.2,32.9l0.8-0.1V57l-0.8-0.1C21.4,56,17,50.8,17,44.9
		C17,39,21.4,33.9,27.2,32.9z M62.8,57.6L62,57.7V33.5l0.8,0.1c5.8,0.9,10.2,6.1,10.2,12C73,51.6,68.7,56.7,62.8,57.6z"/>
	<path class="st0" d="M75.1,30.6l0-0.2c0-0.1,0-0.1,0-0.2c0-8.1-3.1-15.7-8.8-21.4C60.6,3.2,53.1,0.1,45,0.1
		c-8.1,0-15.6,3.1-21.4,8.8c-5.7,5.7-8.8,13.3-8.8,21.4v14.6c0,7.9,6.4,14.3,14.3,14.3c0.6,0,1.1-0.5,1.1-1.1V31.7
		c0-0.6-0.5-1.1-1.1-1.1c-4.2,0-8.2,1.8-10.9,5L17,37.1v-6.8c0-15.5,12.6-28,28-28c15.5,0,28,12.6,28,28c0,0.1,0,0.1,0,0.2l0,0.2
		l0,0.2c0,0.1,0,0.1,0,0.2v6.8l-1.2-1.4c-2.7-3.2-6.7-5-10.9-5c-0.6,0-1.1,0.5-1.1,1.1v26.4c0,0.6,0.5,1.1,1.1,1.1
		c7.9,0,14.3-6.4,14.3-14.3V31c0-0.1,0-0.1,0-0.2L75.1,30.6z M27.2,32.9l0.8-0.1V57l-0.8-0.1C21.4,56,17,50.8,17,44.9
		C17,39,21.4,33.9,27.2,32.9z M62.8,57.6L62,57.7V33.5l0.8,0.1c5.8,0.9,10.2,6.1,10.2,12C73,51.6,68.7,56.7,62.8,57.6z"/>
</g>
</svg>
