<?xml version="1.0" encoding="utf-8"?>
<!-- Generator: Adobe Illustrator 21.0.2, SVG Export Plug-In . SVG Version: 6.00 Build 0)  -->
<svg version="1.1" id="Layer_1" xmlns="http://www.w3.org/2000/svg" xmlns:xlink="http://www.w3.org/1999/xlink" x="0px" y="0px"
	 viewBox="0 0 90 60" style="enable-background:new 0 0 90 60;" xml:space="preserve">
<g>
	<path d="M73.3,18.9H58.5c-4.8,0-8.6,3.9-8.6,8.6v1.3h-5.5c-2,0-3.7,1.6-3.7,3.7v7.9c0,1.1-0.9,1.9-1.9,1.9s-1.9-0.9-1.9-1.9V19.6
		c0-2.2-1.8-4-4-4c-2.2,0-4,1.8-4,4v7.6c0,0.9-0.7,1.6-1.6,1.6H8V31h15.3c0,0,0,0,0.1,0h3.7c2.1,0,3.8-1.7,3.8-3.8v-7.6
		c0-1,0.8-1.8,1.8-1.8s1.8,0.8,1.8,1.8v20.7c0,2.3,1.9,4.2,4.2,4.2c2.3,0,4.2-1.9,4.2-4.2v-7.9c0-0.8,0.6-1.4,1.4-1.4h5.5v1.5
		c0,4.8,3.9,8.6,8.6,8.6h14.9c4.8,0,8.6-3.9,8.6-8.6v-5C82,22.7,78.1,18.9,73.3,18.9z M79.7,32.5c0,3.5-2.9,6.4-6.4,6.4H58.5
		c-3.5,0-6.4-2.9-6.4-6.4v-5c0-3.5,2.9-6.4,6.4-6.4h14.9c3.5,0,6.4,2.9,6.4,6.4V32.5z"/>
	<path d="M57.5,31.1h4.1c0.6,0,1.1-0.5,1.1-1.1c0-0.6-0.5-1.1-1.1-1.1h-4.1c-0.6,0-1.1,0.5-1.1,1.1C56.4,30.6,56.9,31.1,57.5,31.1z"
		/>
</g>
</svg>
