<?xml version="1.0" encoding="utf-8"?>
<!-- Generator: Adobe Illustrator 21.0.2, SVG Export Plug-In . SVG Version: 6.00 Build 0)  -->
<svg version="1.1" id="Layer_1" xmlns="http://www.w3.org/2000/svg" xmlns:xlink="http://www.w3.org/1999/xlink" x="0px" y="0px"
	 viewBox="0 0 90 60" style="enable-background:new 0 0 90 60;" xml:space="preserve">
<style type="text/css">
	.st0{fill:#020202;}
</style>
<g>
	<g>
		<path class="st0" d="M67.1,0.7C61-0.7,55.6,3.5,54.9,9.2H16.5c-0.5,0-0.9,0.3-1,0.7c-0.2,0.4-0.1,0.9,0.3,1.2l26,23.8v22.5H29.7
			v2.2h12.1h2.2h11v-2.2h-11V34.9l17-15.5c1.2,0.5,2.5,0.8,3.9,0.8c6.2,0,11-5.7,9.6-12C73.6,4.5,70.7,1.5,67.1,0.7z M42.8,32.9
			L31.3,22.3h23.1L42.8,32.9z M56.7,20.1H28.9l-9.6-8.8h47L56.7,20.1z M67.5,17.4c-1.7,0.7-3.3,0.7-4.8,0.3l7.2-6.6
			c0.3-0.3,0.4-0.8,0.3-1.2c-0.2-0.4-0.6-0.7-1-0.7h-12c0.5-3.7,3.7-6.6,7.6-6.6c4.7,0,8.4,4.2,7.6,9C71.8,14.2,69.9,16.4,67.5,17.4
			z"/>
	</g>
</g>
</svg>
