<?xml version="1.0" encoding="utf-8"?>
<!-- Generator: Adobe Illustrator 15.1.0, SVG Export Plug-In . SVG Version: 6.00 Build 0)  -->
<!DOCTYPE svg PUBLIC "-//W3C//DTD SVG 1.1//EN" "http://www.w3.org/Graphics/SVG/1.1/DTD/svg11.dtd">
<svg version="1.1" xmlns="http://www.w3.org/2000/svg" xmlns:xlink="http://www.w3.org/1999/xlink" x="0px" y="0px" width="90px"
	 height="60px" viewBox="0 0 90 60" enable-background="new 0 0 90 60" xml:space="preserve">
<g id="Layer_1">
	<path d="M94.51,44.95c-0.002-0.04-0.003-0.081-0.003-0.122v-0.502L94.51,44.95z"/>
</g>
<g id="Layer_2">
	<path d="M17.743,35.375c-2.654-4.984-4.131-15.642-3.182-20.667c0.862-4.604,4.318-8.468,10.302-8.468
		c5.986,0,9.433,3.865,10.306,8.468c0.944,5.024-0.537,15.682-3.189,20.667c-1.937,3.643-5.639,3.898-7.115,3.898
		S19.681,39.018,17.743,35.375 M44.016,59.447c10.577-0.73,19.245-6.828,25.735-18.17c3.971-6.938,5.506-13.967,5.879-19.752
		c0.289-4.436-0.121-8.21-0.494-10.243C74.144,5.912,69.519,0.5,61.093,0.5c-7.73,0-13.681,5.474-14.058,13.528
		c-0.469,10.119,0.188,24.275-9.125,30.968c-2.858,2.053-6.755,3.473-6.798,7.676C31.054,58.859,39.589,59.754,44.016,59.447"/>
</g>
</svg>
