<?xml version="1.0" encoding="utf-8"?>
<!-- Generator: Adobe Illustrator 21.0.2, SVG Export Plug-In . SVG Version: 6.00 Build 0)  -->
<svg version="1.1" id="Layer_1" xmlns="http://www.w3.org/2000/svg" xmlns:xlink="http://www.w3.org/1999/xlink" x="0px" y="0px"
	 viewBox="0 0 90 60" style="enable-background:new 0 0 90 60;" xml:space="preserve">
<style type="text/css">
	.st0{opacity:0.98;}
</style>
<g>
	<g id="Livello_2">
		<path d="M62.9,14.6c-0.2-0.2-0.5-0.4-0.8-0.4h-0.3c-1.7,0-3-1.4-3-3c0.1-5.3-4.1-9.7-9.4-9.8l-0.2,0c-5.2,0-9.4,4.1-9.6,9.3v3.5
			h-7.3c-0.5,0-0.9,0.2-1,0.7L27,23.3c-0.1,0.1-0.1,0.3-0.1,0.5v33.7c0,0.7,0.5,1.2,1.2,1.2l25.4,0c0.6,0,1.1-0.5,1.1-1.1V23.8
			c0-0.2-0.1-0.5-0.2-0.7L48,14.6c-0.3-0.3-0.6-0.5-1-0.5h-5.1v-3.1c-0.1-4,3-7.3,7-7.5l0.3,0c3.9,0,7.2,3.1,7.3,7v0.5
			c0,3,2.4,5.4,5.4,5.4c0.1,0,0.1,0,0.2,0c0.6,0,1-0.4,1.1-1.1C63.2,15.1,63.1,14.8,62.9,14.6z M46.5,16.5l5.8,7.7v32.2h-23V24
			l3.8-7.5H46.5z"/>
	</g>
	<g>
		<path d="M38.7,35c-0.6-0.7-1.5-1-2.5-1c-0.9,0-1.8,0.3-2.5,1c-0.6,0.7-1,1.6-1,2.6c0,1,0.3,1.9,1,2.6c0.7,0.7,1.5,1,2.5,1
			c0.9,0,1.8-0.3,2.5-1c0.7-0.7,1-1.6,1-2.6C39.7,36.5,39.4,35.7,38.7,35z M37.2,38.9c-0.3,0.3-0.6,0.4-0.9,0.4
			c-0.4,0-0.7-0.2-0.9-0.5c-0.2-0.3-0.4-0.7-0.4-1.2c0-0.4,0.1-0.8,0.4-1.2c0.2-0.3,0.5-0.5,0.9-0.5c0.4,0,0.7,0.2,0.9,0.5
			s0.4,0.7,0.4,1.2C37.6,38,37.4,38.5,37.2,38.9z"/>
		<polygon points="48.1,34.4 36.3,50.5 33.3,50.5 45.2,34.4 		"/>
		<path d="M47.9,44.4c-0.6-0.7-1.5-1-2.5-1c-0.9,0-1.8,0.4-2.5,1c-0.6,0.7-1,1.6-1,2.6c0,1,0.3,1.9,0.9,2.6c0.6,0.7,1.5,1,2.5,1
			c1,0,1.8-0.3,2.5-1c0.6-0.7,1-1.6,1-2.6C48.8,46,48.5,45,47.9,44.4z M46.3,48.2c-0.2,0.3-0.5,0.5-0.9,0.5s-0.7-0.2-0.9-0.5
			C44.2,47.9,44,47.4,44,47s0.1-0.8,0.3-1.2s0.5-0.4,0.9-0.4c0.4,0,0.7,0.1,0.9,0.4c0.2,0.3,0.4,0.7,0.4,1.2S46.6,47.9,46.3,48.2z"
			/>
	</g>
</g>
</svg>
