<?xml version="1.0" encoding="utf-8"?>
<!-- Generator: Adobe Illustrator 21.0.2, SVG Export Plug-In . SVG Version: 6.00 Build 0)  -->
<svg version="1.1" id="Layer_1" xmlns="http://www.w3.org/2000/svg" xmlns:xlink="http://www.w3.org/1999/xlink" x="0px" y="0px"
	 viewBox="0 0 90 60" style="enable-background:new 0 0 90 60;" xml:space="preserve">
<style type="text/css">
	.st0{fill:#020202;}
</style>
<path d="M75.1,11.7C74,6.1,69,0.5,60.4,0.5c-8,0-14.2,5.9-14.6,14.1c0,0.5,0,1.1,0,1.6c0,0.6-0.1,1.2-0.1,1.8l0,0.3
	c-0.3,9-0.7,20.1-8.2,25.5c-0.5,0.4-1.1,0.8-1.7,1.1c-2.4,1.5-5.4,3.3-5.4,7.1c0,1.9,0.7,3.4,2,4.6c2.9,2.7,8,3,10.1,3
	c0.4,0,0.7,0,1-0.1c0.2,0,0.4,0,0.5,0c10.6-0.8,19.3-6.8,25.7-18c3.4-5.8,5.4-12.3,5.9-19.5C76,16.4,75.2,12.2,75.1,11.7z
	 M73.5,21.7c-0.3,4.7-1.6,11.7-5.6,18.6c-6.1,10.6-14.2,16.3-24,17c-0.5,0-0.9,0-1.4,0c-3.8,0-7-0.9-8.5-2.4
	c-0.8-0.8-1.3-1.9-1.3-3.1c0-2.7,2-3.9,4.3-5.4c0.3-0.2,0.6-0.4,0.9-0.6c0.3-0.2,0.6-0.4,0.9-0.6c8.4-6.1,8.7-17.8,9.1-27.2l0-0.2
	c0-0.5,0-1.1,0.1-1.6c0-0.5,0.1-1.1,0.1-1.6c0.3-7.1,5.5-12.1,12.5-12.1c7.9,0,11.7,5.1,12.6,9.5c0,0.2,0.1,0.4,0.1,0.7
	C73.3,14.4,73.8,17.7,73.5,21.7z M36.6,15c-0.9-4.3-4.2-9-11-9c-6.8,0-10.1,4.7-10.9,9c-1.1,5.3,0.5,15.8,3.1,20.7
	c1.5,2.8,4.2,4.4,7.8,4.4c3.5,0,6.3-1.6,7.9-4.4C36.2,30.5,37.5,20,36.6,15z M31.5,34.7c-1.5,2.6-4,3.2-6,3.2c-1.6,0-4.5-0.4-6-3.2
	c-2.5-4.8-3.8-14.9-3-19.2c0.9-4.6,4.2-7.4,8.9-7.4s8,2.8,8.9,7.4C35.3,19.8,34.1,29.9,31.5,34.7z"/>
</svg>
