<?xml version="1.0" encoding="utf-8"?>
<!-- Generator: Adobe Illustrator 21.0.2, SVG Export Plug-In . SVG Version: 6.00 Build 0)  -->
<svg version="1.1" id="Layer_1" xmlns="http://www.w3.org/2000/svg" xmlns:xlink="http://www.w3.org/1999/xlink" x="0px" y="0px"
	 viewBox="0 0 90 60" style="enable-background:new 0 0 90 60;" xml:space="preserve">
<style type="text/css">
	.st0{opacity:0.98;}
</style>
<path d="M42.8,57.3c-2.4,0-6.8-0.4-9.4-2.8c-1.3-1.2-1.9-2.7-1.9-4.4c0-3.6,2.7-5.3,5-6.7c0.5-0.3,1-0.6,1.5-1
	c6.9-4.9,7.2-15.2,7.5-23.5c0-1.1,0.1-2.1,0.1-3.1C46,8.2,51.7,2.7,59.2,2.7c8,0,12.6,5.3,13.6,10.5c0.2,1,0.8,4.7,0.5,9.4
	c-0.3,4.4-1.4,11.2-5.4,18C62,50.9,54,56.5,44.2,57.2l0,0C43.9,57.2,43.4,57.3,42.8,57.3z M59.2,5c-6.3,0-11,4.5-11.3,10.9
	c0,1-0.1,2-0.1,3c-0.3,8.8-0.6,19.6-8.4,25.3c-0.5,0.4-1.1,0.7-1.6,1.1c-2.1,1.3-3.9,2.4-3.9,4.8c0,1.1,0.4,2,1.1,2.7
	c1.9,1.8,5.9,2.3,9,2.1l0,0c9-0.6,16.3-5.8,21.9-15.5c3.7-6.4,4.8-12.8,5.1-17c0.3-4.4-0.3-7.8-0.4-8.8C69.8,9.7,66.4,5,59.2,5z
	 M27.2,39.4c-3.3,0-5.9-1.4-7.3-4.1l0,0c-2.4-4.5-3.9-14.1-2.9-19.1c0.8-4.1,3.9-8.4,10.2-8.4c6.4,0,9.5,4.4,10.3,8.4
	c0.8,4.5-0.3,14.2-2.9,19.1C33.1,37.9,30.5,39.4,27.2,39.4z M27.2,10.1c-4.2,0-7.2,2.5-8,6.6c-0.8,4,0.4,13.2,2.7,17.5v0
	c1.2,2.3,3.6,2.8,5.3,2.8c1.7,0,4-0.5,5.3-2.8c2.3-4.3,3.5-13.5,2.7-17.5C34.4,12.6,31.4,10.1,27.2,10.1z"/>
</svg>
