<?xml version="1.0" encoding="utf-8"?>
<!-- Generator: Adobe Illustrator 15.1.0, SVG Export Plug-In . SVG Version: 6.00 Build 0)  -->
<!DOCTYPE svg PUBLIC "-//W3C//DTD SVG 1.1//EN" "http://www.w3.org/Graphics/SVG/1.1/DTD/svg11.dtd">
<svg version="1.1" id="Layer_1" xmlns="http://www.w3.org/2000/svg" xmlns:xlink="http://www.w3.org/1999/xlink" x="0px" y="0px"
	 width="90px" height="60px" viewBox="0 0 90 60" enable-background="new 0 0 90 60" xml:space="preserve">
<g id="Layer_2_2_">
</g>
<path d="M45.002,30.313c-0.002-0.04-0.003-0.081-0.003-0.122v-0.502L45.002,30.313z"/>
<g>
	<path d="M48.16,0.05H22.85c-3.69,0-7.8,2.63-7.8,6.4V31.76c0,3.82,4.29,7.101,7.8,7.101h25.31c3.91,0,5.7-3.681,5.7-7.101V6.451
		C53.86,2.5,51.67,0.05,48.16,0.05z M46.67,31.68H22.23V7.23h24.44V31.68z"/>
	<path d="M74.95,29.65V49.68c0,5.95-3.73,10.271-8.87,10.271H43.939c-5.38,0-9.92-4.11-9.92-8.98v-4.1c0-1.98,1.61-3.59,3.591-3.59
		c1.989,0,3.6,1.609,3.6,3.59v4.1c0,0.63,1.12,1.79,2.729,1.79H66.08c1.66,0,1.68-3.05,1.68-3.08V29.65c0-1.98-0.569-3.15-0.81-3.43
		l-5.09-0.011c-1.98,0-3.59-1.609-3.59-3.59c0-1.979,1.609-3.59,3.59-3.59h5.189C71.7,19.03,74.95,23.391,74.95,29.65z"/>
</g>
</svg>
