<?xml version="1.0" encoding="utf-8"?>
<!-- Generator: Adobe Illustrator 21.1.0, SVG Export Plug-In . SVG Version: 6.00 Build 0)  -->
<svg version="1.1" id="Livello_1" xmlns="http://www.w3.org/2000/svg" xmlns:xlink="http://www.w3.org/1999/xlink" x="0px" y="0px"
	 viewBox="0 0 139 90.7" style="enable-background:new 0 0 139 90.7;" xml:space="preserve">
<title>tag_1</title>
<path d="M122.5,12.9H93.1c-0.7,0-1.2-0.6-1.2-1.2v-1.6c0-0.7,0.6-1.2,1.2-1.2h29.5c0.7,0,1.2,0.6,1.2,1.2v1.6
	C123.7,12.3,123.2,12.9,122.5,12.9z"/>
<path d="M83.3,73.2c0-7,5.7-12.8,12.8-12.8c7,0,12.8,5.7,12.8,12.8S103.1,86,96,86C89,86,83.3,80.2,83.3,73.2z M87.3,73.2
	c0,4.8,3.9,8.8,8.8,8.8c4.8,0,8.8-3.9,8.8-8.8s-3.9-8.8-8.8-8.8C91.2,64.4,87.3,68.4,87.3,73.2z"/>
<path d="M16.3,73.2c0-7,5.7-12.8,12.8-12.8s12.8,5.7,12.8,12.8S36.1,86,29.1,86S16.3,80.2,16.3,73.2z M20.3,73.2
	c0,4.8,3.9,8.8,8.8,8.8s8.8-3.9,8.8-8.8s-3.9-8.8-8.8-8.8S20.3,68.4,20.3,73.2z"/>
<path d="M100.9,12.9H45.9L28.1,38.5c-0.8,1.1-1.9,2-3.1,2.5L5.3,49.2c-0.8,0.3-1.3,1.1-1.3,2v21.7h14.3c1.1,0,2,0.9,2,2
	c0,1.1-0.9,2-2,2H0V51.1c0-2.5,1.5-4.7,3.8-5.7l19.7-8.2c0.6-0.2,1-0.6,1.4-1.1l19-27.3h56.7C100.5,10.2,100.7,11.8,100.9,12.9z"/>
<path d="M106.8,76.9h16.9V43.8c0-1.1-0.9-2-2-2c-1.1,0-2,0.9-2,2v29h-12.9c-1.1,0-2,0.9-2,2C104.8,76,105.7,76.9,106.8,76.9z"/>
<rect x="39.9" y="72.8" width="45.4" height="4"/>
<path d="M87.7,28.5c-0.7-3.6-3.9-7.3-9.5-7.3c-5.2,0-9.2,3.9-9.5,9.2v0.9c0,0.1,0,0.3,0,0.4c0,0.2,0,0.4,0,0.7c0,0.1,0,0.2,0,0.3
	c0,0,0,0,0,0c0,1.2-0.1,2.6-0.2,4v0c-0.3,3.3-1.1,7.5-4.2,9.7c-0.3,0.2-0.6,0.4-0.8,0.5c0,0-0.1,0-0.2,0.1c-1.5,0.9-3.5,2.2-3.5,4.9
	c0,1.3,0.5,2.5,1.5,3.4c1.9,1.7,4.9,2,6.5,2c0.2,0,0.4,0,0.8-0.1h0.2c6.5-0.5,11.8-4.2,15.7-10.9c1.7-3,2.9-6.2,3.3-9.7
	c0,0,0,0,0-0.1c0.1-0.7,0.2-1.3,0.2-2c0-0.7,0.1-1.4,0.1-2C88.1,30.2,87.7,28.5,87.7,28.5z M84.5,36.8c-0.5,2.9-1.5,5.6-2.8,7.9
	c-3.4,5.8-7.8,9-13.1,9.4h-0.8c-1.9,0-3.6-0.4-4.3-1.1c-0.3-0.3-0.4-0.7-0.4-1.1c0-0.9,0.5-1.3,1.9-2.2l1.2-0.8
	c4.1-3,5.1-8.1,5.4-12.2c0,0,0,0,0,0c0.1-1.4,0.2-2.7,0.2-4l0-0.5c0-0.2,0-0.5,0-0.7c0,0,0-0.1,0-0.2c0-0.1,0-0.3,0-0.4
	c0-0.2,0-0.4,0-0.5c0.2-3.6,2.7-6.1,6.3-6.1c3.9,0,5.8,2.4,6.3,4.8c0,0.1,0,0.1,0,0.2c0,0.3,0,0.6,0,1l0,0.3c0,0.7,0.1,1.4,0.1,2.2
	c0,0.5,0,1.1,0,1.7C84.8,35,84.7,35.8,84.5,36.8C84.6,36.8,84.5,36.8,84.5,36.8z M65.3,30.4c-0.6-2.9-2.9-6-7.4-6
	c-4.6,0-6.8,3.2-7.3,6c-0.1,0.6-0.2,1.4-0.2,2.4c0,1.2,0.1,2.6,0.3,4c0,0,0,0,0,0.1c0.4,2.5,1,4.9,1.8,6.3c1.1,2,3,3.1,5.4,3.1
	c2.4,0,4.3-1.1,5.5-3.1c0.8-1.5,1.4-3.7,1.8-6.3c0,0,0,0,0-0.1c0.2-1.4,0.3-2.7,0.3-4C65.5,31.8,65.5,31,65.3,30.4z M61.9,36.8
	c-0.3,2-0.8,3.6-1.4,4.7c-0.2,0.3-0.8,1.4-2.6,1.4c-1.6,0-2.3-0.7-2.6-1.3c-0.5-1-1-2.7-1.4-4.7c0,0,0,0,0-0.1
	c-0.2-1.1-0.4-2.6-0.4-4c0-0.7,0-1.2,0.1-1.7c0.4-2.2,2-3.5,4.2-3.5c2.3,0,3.8,1.3,4.2,3.5c0.1,0.4,0.2,1,0.2,1.6v0
	C62.3,33.9,62.2,35.4,61.9,36.8C61.9,36.8,61.9,36.8,61.9,36.8z"/>
<path d="M137.4,21.9h-25.1c-0.9,0-1.6-0.7-1.6-1.6v0c0-0.9,0.7-1.6,1.6-1.6h25.1c0.9,0,1.6,0.7,1.6,1.6v0
	C139,21.2,138.3,21.9,137.4,21.9z"/>
<path d="M131.9,29.1h-26.1c-0.9,0-1.6-0.7-1.6-1.6v0c0-0.9,0.7-1.6,1.6-1.6h26.1c0.9,0,1.6,0.7,1.6,1.6v0
	C133.5,28.4,132.8,29.1,131.9,29.1z"/>
<path d="M126.3,36.3H99.8c-0.9,0-1.6-0.7-1.6-1.6v0c0-0.9,0.7-1.6,1.6-1.6h26.4c0.9,0,1.6,0.7,1.6,1.6v0
	C127.9,35.6,127.2,36.3,126.3,36.3z"/>
</svg>
