<?xml version="1.0" encoding="utf-8"?>
<!-- Generator: Adobe Illustrator 20.1.0, SVG Export Plug-In . SVG Version: 6.00 Build 0)  -->
<svg version="1.1" id="Livello_1" xmlns="http://www.w3.org/2000/svg" xmlns:xlink="http://www.w3.org/1999/xlink" x="0px" y="0px"
	 viewBox="0 0 90 60" style="enable-background:new 0 0 90 60;" xml:space="preserve">
<g>
	<path d="M62.7,7.3h-9.9c-0.8-4-4.1-6.9-7.9-6.9S37.8,3.3,37,7.3H27c-2.6,0-4.6,2.3-4.6,5.3v1.3c0,2.2,1.2,4.1,3,4.9v35.6
		c0,2.9,2.1,5.3,4.9,5.3h29.5c2.7,0,4.9-2.3,4.9-5.3V18.8c1.8-0.8,3-2.7,3-4.9v-1.5C67.3,9.5,65.3,7.3,62.7,7.3z M44.8,4.2
		c1.8,0,3.6,1.3,4.2,3.1h-8.6C41.3,5.5,43,4.2,44.8,4.2z M61.1,54.5c0,0.8-0.6,1.4-1.3,1.4H30.1c-0.7,0-1.3-0.7-1.3-1.4V19.2h32.2
		V54.5z M64,13.9c0,0.8-0.6,1.4-1.1,1.4H27c-0.6,0-1.1-0.7-1.1-1.4v-1.3c0-0.8,0.6-1.4,1.1-1.4h35.9c0.6,0,1.1,0.7,1.1,1.4V13.9z"/>
	<g>
		<path d="M37.9,24.2V50c0,1-0.8,1.8-1.9,1.8c-1,0-1.9-0.8-1.9-1.8V24.2c0-1,0.8-1.8,1.9-1.8C37.1,22.3,37.9,23.1,37.9,24.2z"/>
		<path d="M46.9,24.2V50c0,1-0.8,1.8-1.9,1.8S43.1,51,43.1,50V24.2c0-1,0.9-1.8,1.9-1.8C46.1,22.3,46.9,23.1,46.9,24.2z"/>
		<path d="M55.9,24.2V50c0,1-0.8,1.8-1.9,1.8c-1,0-1.9-0.8-1.9-1.8V24.2c0-1,0.9-1.8,1.9-1.8C55.1,22.3,55.9,23.1,55.9,24.2z"/>
	</g>
</g>
</svg>
