<?xml version="1.0" encoding="utf-8"?>
<!-- Generator: Adobe Illustrator 20.1.0, SVG Export Plug-In . SVG Version: 6.00 Build 0)  -->
<svg version="1.1" xmlns="http://www.w3.org/2000/svg" xmlns:xlink="http://www.w3.org/1999/xlink" x="0px" y="0px"
	 viewBox="0 0 90 60" enable-background="new 0 0 90 60" xml:space="preserve">
<g id="Layer_1">
</g>
<g id="Layer_2_1_">
	<g>
		<path d="M2.3,13.011c-0.927,0-1.679,0.752-1.679,1.679c0,0.927,0.752,1.679,1.679,1.679h23.5c0.927,0,1.679-0.752,1.679-1.679
			c0-0.927-0.752-1.679-1.679-1.679H2.3z"/>
		<path d="M3.979,19.725c-0.927,0-1.679,0.752-1.679,1.679s0.752,1.679,1.679,1.679H25.8c0.927,0,1.679-0.752,1.679-1.679
			s-0.752-1.679-1.679-1.679H3.979z"/>
		<path d="M7.336,26.439c-0.927,0-1.679,0.752-1.679,1.679c0,0.927,0.752,1.679,1.679,1.679H25.8c0.927,0,1.679-0.751,1.679-1.679
			c0-0.927-0.752-1.679-1.679-1.679H7.336z"/>
		<path d="M86.848,23.54l-13.81-5.17l-9.67-14.94c-0.72-1.1-1.93-1.76-3.26-1.76h-47.96c-2.14,0-3.88,1.74-3.88,3.88
			c0,2.14,1.74,3.88,3.88,3.88h45.84l9.21,14.24c0.46,0.7,1.15,1.24,1.9,1.5l12.52,4.69v15.07h-2.07c-1.27-4.4-5.31-7.53-10.04-7.53
			c-4.72,0-8.76,3.13-10.04,7.53h-21.3c-1.27-4.4-5.31-7.53-10.04-7.53c-4.72,0-8.76,3.13-10.04,7.53h-2.06v-9.29
			c0-2.14-1.74-3.88-3.88-3.88c-2.14,0-3.88,1.74-3.88,3.88v13.17c0,2.14,1.74,3.88,3.88,3.88h6.72c1.78,3.43,5.35,5.64,9.26,5.64
			c3.92,0,7.48-2.21,9.27-5.64h22.84c1.79,3.43,5.36,5.64,9.27,5.64c3.92,0,7.48-2.22,9.27-5.64h6.72c2.14,0,3.88-1.74,3.88-3.88
			V27.18C89.379,25.56,88.348,24.09,86.848,23.54z M28.129,52.57c-2.62,0-4.7-2.08-4.7-4.7s2.08-4.7,4.7-4.7s4.71,2.08,4.71,4.7
			S30.749,52.57,28.129,52.57z M69.509,52.57c-2.62,0-4.7-2.08-4.7-4.7s2.08-4.7,4.7-4.7s4.7,2.08,4.7,4.7
			S72.129,52.57,69.509,52.57z"/>
	</g>
</g>
</svg>
