<?xml version="1.0" encoding="utf-8"?>
<!-- Generator: Adobe Illustrator 15.1.0, SVG Export Plug-In . SVG Version: 6.00 Build 0)  -->
<!DOCTYPE svg PUBLIC "-//W3C//DTD SVG 1.1//EN" "http://www.w3.org/Graphics/SVG/1.1/DTD/svg11.dtd">
<svg version="1.1" xmlns="http://www.w3.org/2000/svg" xmlns:xlink="http://www.w3.org/1999/xlink" x="0px" y="0px" width="90px"
	 height="60px" viewBox="0 0 90 60" enable-background="new 0 0 90 60" xml:space="preserve">
<g id="Layer_1">
	<path d="M94.51,44.95c-0.002-0.04-0.003-0.081-0.003-0.122v-0.502L94.51,44.95z"/>
</g>
<g id="Layer_2">
	<g>
		<path d="M56.536,15.488c-0.555,0.859-1.701,1.107-2.563,0.553c-2.678-1.729-5.781-2.642-8.977-2.642
			c-9.152,0-16.6,7.447-16.6,16.602c0,1.021-0.828,1.849-1.852,1.849S24.694,31.021,24.694,30c0-11.197,9.109-20.306,20.303-20.306
			c3.91,0,7.707,1.119,10.986,3.234C56.843,13.482,57.091,14.629,56.536,15.488z"/>
		<path d="M44.997,13.399c-9.152,0-16.6,7.447-16.6,16.602c0,1.021-0.828,1.849-1.852,1.849S24.694,31.021,24.694,30
			c0-11.197,9.109-20.306,20.303-20.306c3.91,0,7.707,1.119,10.986,3.234c0.859,0.553,1.107,1.7,0.553,2.559
			c-0.555,0.859-1.701,1.107-2.563,0.553C51.296,14.312,48.192,13.399,44.997,13.399z"/>
		<path d="M72.563,18.355c-1.508-3.563-3.666-6.76-6.412-9.507c-2.746-2.747-5.945-4.903-9.51-6.412
			c-3.688-1.559-7.605-2.35-11.645-2.35c-4.035,0-7.955,0.791-11.643,2.35c-3.563,1.508-6.76,3.665-9.508,6.412
			c-2.746,2.747-4.902,5.944-6.408,9.507c-1.561,3.688-2.354,7.607-2.354,11.645c0,4.035,0.793,7.955,2.354,11.642
			c1.506,3.563,3.662,6.762,6.408,9.51c2.748,2.746,5.945,4.902,9.508,6.408c3.688,1.561,7.607,2.352,11.643,2.352
			c4.039,0,7.957-0.791,11.645-2.352c3.564-1.506,6.764-3.662,9.51-6.408c2.746-2.748,4.904-5.947,6.412-9.51
			c1.559-3.688,2.352-7.607,2.352-11.642C74.915,25.962,74.122,22.044,72.563,18.355z M44.997,52.215
			c-12.248,0-22.213-9.965-22.213-22.214c0-12.25,9.965-22.216,22.213-22.216c12.25,0,22.217,9.966,22.217,22.216
			C67.214,42.25,57.247,52.215,44.997,52.215z"/>
		<path d="M44.997,13.399c-9.152,0-16.6,7.447-16.6,16.602c0,1.021-0.828,1.849-1.852,1.849S24.694,31.021,24.694,30
			c0-11.197,9.109-20.306,20.303-20.306c3.91,0,7.707,1.119,10.986,3.234c0.859,0.553,1.107,1.7,0.553,2.559
			c-0.555,0.859-1.701,1.107-2.563,0.553C51.296,14.312,48.192,13.399,44.997,13.399z"/>
		<path d="M62.729,24.593l-13.332,5.574c-0.014,0.375-0.07,0.753-0.186,1.128c-0.715,2.328-3.184,3.633-5.51,2.916
			c-2.326-0.715-3.633-3.182-2.916-5.508c0.717-2.326,3.182-3.632,5.51-2.915c0.645,0.197,1.207,0.534,1.676,0.961L61.3,21.175
			c0.943-0.394,2.029,0.051,2.424,0.995S63.675,24.198,62.729,24.593z"/>
	</g>
</g>
</svg>
