<?xml version="1.0" encoding="utf-8"?>
<!-- Generator: Adobe Illustrator 15.1.0, SVG Export Plug-In . SVG Version: 6.00 Build 0)  -->
<!DOCTYPE svg PUBLIC "-//W3C//DTD SVG 1.1//EN" "http://www.w3.org/Graphics/SVG/1.1/DTD/svg11.dtd">
<svg version="1.1" xmlns="http://www.w3.org/2000/svg" xmlns:xlink="http://www.w3.org/1999/xlink" x="0px" y="0px" width="90px"
	 height="60px" viewBox="0 0 90 60" enable-background="new 0 0 90 60" xml:space="preserve">
<g id="Layer_2_1_">
	<g>
		<path d="M33.84,18.8h22.32c1.254,0,2.24-0.985,2.24-2.24s-0.986-2.24-2.24-2.24H33.84c-1.254,0-2.24,0.986-2.24,2.24
			S32.586,18.8,33.84,18.8z"/>
		<path d="M33.84,27.76h22.32c1.254,0,2.24-0.985,2.24-2.24s-0.986-2.24-2.24-2.24H33.84c-1.254,0-2.24,0.986-2.24,2.24
			S32.586,27.76,33.84,27.76z"/>
		<path d="M33.84,36.721h22.32c1.254,0,2.24-0.986,2.24-2.24c0-1.256-0.986-2.24-2.24-2.24H33.84c-1.254,0-2.24,0.984-2.24,2.24
			C31.6,35.734,32.586,36.721,33.84,36.721z"/>
		<path d="M33.84,45.68h22.32c1.254,0,2.24-0.984,2.24-2.24c0-1.254-0.986-2.238-2.24-2.238H33.84c-1.254,0-2.24,0.984-2.24,2.238
			C31.6,44.695,32.586,45.68,33.84,45.68z"/>
	</g>
</g>
<g id="Layer_1">
	<g id="Layer_2_2_">
	</g>
	<path d="M67.835,0.135h-45.68c-0.98,0-1.75,0.77-1.75,1.75v56.22c0,0.99,0.77,1.76,1.75,1.76h45.68c0.989,0,1.76-0.77,1.76-1.76
		V1.885C69.595,0.905,68.824,0.135,67.835,0.135z M64.595,54.865h-39.19V5.135h39.19V54.865z"/>
</g>
</svg>
