<?xml version="1.0" encoding="utf-8"?>
<!-- Generator: Adobe Illustrator 15.1.0, SVG Export Plug-In . SVG Version: 6.00 Build 0)  -->
<!DOCTYPE svg PUBLIC "-//W3C//DTD SVG 1.1//EN" "http://www.w3.org/Graphics/SVG/1.1/DTD/svg11.dtd">
<svg version="1.1" xmlns="http://www.w3.org/2000/svg" xmlns:xlink="http://www.w3.org/1999/xlink" x="0px" y="0px" width="90px"
	 height="60px" viewBox="0 0 90 60" enable-background="new 0 0 90 60" xml:space="preserve">
<g id="Layer_3">
</g>
<g id="Layer_2_1_">
	<g>
		<path d="M29.452,59.376c-0.52,0-1.275-0.2-1.837-0.763l-11.219-11.24c-0.48-0.45-0.768-1.105-0.773-1.805
			c-0.006-0.706,0.274-1.37,0.79-1.873L58.717,1.391c0.475-0.488,1.129-0.767,1.828-0.767c0.689,0,1.342,0.272,1.834,0.767
			l11.229,11.228c1.023,1.057,1.023,2.62,0.018,3.654l-42.328,42.34C30.735,59.176,29.976,59.376,29.452,59.376z M29.453,53.093
			L68.1,14.455L60.543,6.9L21.906,45.54L29.453,53.093z"/>
		<path d="M72.377,13.851L61.148,2.623c-0.342-0.342-0.867-0.342-1.199,0L17.628,44.943c-0.353,0.343-0.353,0.867,0,1.199
			l11.218,11.239c0.171,0.171,0.443,0.252,0.605,0.252c0.171,0,0.442-0.081,0.613-0.252L72.377,15.06
			C72.719,14.707,72.719,14.204,72.377,13.851z M29.452,55.557L19.443,45.539l41.1-41.102l10.02,10.018L29.452,55.557z"/>
		<path d="M32.448,42.148c-0.49-0.505-0.75-1.135-0.75-1.794s0.26-1.289,0.73-1.774c0.522-0.507,1.156-0.767,1.819-0.767
			c0.675,0,1.312,0.267,1.795,0.751l3.993,3.993l-3.61,3.554L32.448,42.148z M42.566,32.025c-0.47-0.442-0.751-1.081-0.756-1.765
			c-0.005-0.688,0.27-1.337,0.773-1.826c0.45-0.464,1.092-0.739,1.774-0.739c0.691,0,1.337,0.281,1.817,0.792l3.947,3.932
			l-3.564,3.598L42.566,32.025z M52.678,21.925c-0.986-1.018-0.986-2.581-0.018-3.578c0.52-0.506,1.15-0.766,1.809-0.766
			s1.287,0.259,1.773,0.728l4.002,4.002l-3.574,3.603L52.678,21.925z"/>
		<path d="M34.839,39.765c-0.334-0.335-0.845-0.335-1.19,0c-0.334,0.344-0.334,0.836,0,1.18l2.784,2.774l1.189-1.171L34.839,39.765z
			 M34.839,39.765c-0.334-0.335-0.845-0.335-1.19,0c-0.334,0.344-0.334,0.836,0,1.18l2.784,2.774l1.189-1.171L34.839,39.765z
			 M55.061,19.532c-0.346-0.334-0.838-0.334-1.182,0c-0.334,0.344-0.334,0.846,0,1.19l2.785,2.783l1.18-1.189L55.061,19.532z
			 M43.769,29.653c-0.344,0.334-0.344,0.846,0,1.17l2.784,2.784l1.17-1.181l-2.782-2.773C44.616,29.31,44.103,29.31,43.769,29.653z
			 M33.648,39.765c-0.334,0.344-0.334,0.836,0,1.18l2.784,2.774l1.189-1.171l-2.783-2.783C34.505,39.43,33.994,39.43,33.648,39.765z
			"/>
	</g>
</g>
<g id="Layer_1">
	<g id="Layer_2_2_">
	</g>
</g>
</svg>
