<?xml version="1.0" encoding="utf-8"?>
<!-- Generator: Adobe Illustrator 20.1.0, SVG Export Plug-In . SVG Version: 6.00 Build 0)  -->
<svg version="1.1" id="Livello_1" xmlns="http://www.w3.org/2000/svg" xmlns:xlink="http://www.w3.org/1999/xlink" x="0px" y="0px"
	 viewBox="0 0 90 60" style="enable-background:new 0 0 90 60;" xml:space="preserve">
<path d="M74.2,11.5L63.5,0.8c-0.4-0.4-1-0.6-1.5-0.6c-0.6,0-1.1,0.2-1.6,0.6L18.3,42.9c-0.3,0.3-0.5,0.7-0.6,1.1l-2.6,13.3
	c-0.1,0.7,0.1,1.4,0.6,2c0.4,0.4,0.9,0.6,1.5,0.6c0.1,0,0.3,0,0.4,0L31,57.3c0.4-0.1,0.8-0.3,1.1-0.6l42.1-42.1
	c0.4-0.4,0.6-1,0.6-1.5S74.7,11.9,74.2,11.5z M29.6,53.1l-9.5,1.8l1.8-9.4l28.8-28.8l7.6,7.7L29.6,53.1z M60.7,22l-7.6-7.6L62,5.4
	l7.6,7.7L60.7,22z"/>
<path d="M74.2,11.5L63.5,0.8c-0.4-0.4-1-0.6-1.5-0.6c-0.6,0-1.1,0.2-1.6,0.6L18.3,42.9c-0.3,0.3-0.5,0.7-0.6,1.1l-2.6,13.3
	c-0.1,0.7,0.1,1.4,0.6,2c0.4,0.4,0.9,0.6,1.5,0.6c0.1,0,0.3,0,0.4,0L31,57.3c0.4-0.1,0.8-0.3,1.1-0.6l42.1-42.1
	c0.4-0.4,0.6-1,0.6-1.5S74.7,11.9,74.2,11.5z M29.6,53.1l-9.5,1.8l1.8-9.4l28.8-28.8l7.6,7.7L29.6,53.1z M60.7,22l-7.6-7.6L62,5.4
	l7.6,7.7L60.7,22z"/>
</svg>
