<?xml version="1.0" encoding="utf-8"?>
<!-- Generator: Adobe Illustrator 21.1.0, SVG Export Plug-In . SVG Version: 6.00 Build 0)  -->
<svg version="1.1" id="Layer_1" xmlns="http://www.w3.org/2000/svg" xmlns:xlink="http://www.w3.org/1999/xlink" x="0px" y="0px"
	 viewBox="0 0 90 60" style="enable-background:new 0 0 90 60;" xml:space="preserve">
<path d="M57.3,53.8h-0.2l-11.5-7.2c-0.2-0.1-0.4-0.2-0.6-0.2c-0.2,0-0.4,0.1-0.6,0.2l-11.5,7.2V36.6l2,1.2c3,2,6.6,3,10.1,3
	c3.6,0,7.1-1,10.1-3l2-1.2C57.3,36.6,57.3,53.8,57.3,53.8z M63.9,22c0-10.4-8.4-18.9-18.9-18.9S26.1,11.6,26.1,22
	c0,4.4,1.5,8.6,4.3,12l0.3,0.4v21.4c0,0.4,0.2,1.1,1.1,1.1h0.4L45,48.8l12.5,7.8c0.3,0.1,0.6,0.2,0.8,0.2c0.3,0,0.5-0.1,0.7-0.3
	c0.3-0.3,0.3-0.6,0.3-0.7v-21l-0.1-0.5l0.4-0.5C62.3,30.6,63.9,26.3,63.9,22z M45,38.7c-9.2,0-16.7-7.5-16.7-16.7S35.8,5.2,45,5.2
	s16.7,7.5,16.7,16.7C61.7,31.1,54.2,38.7,45,38.7z"/>
<polygon points="46.3,14.3 46.3,29.6 44.4,29.6 44.4,16.2 41,16.2 41,14.3 "/>
</svg>
