<?xml version="1.0" encoding="utf-8"?>
<!-- Generator: Adobe Illustrator 15.1.0, SVG Export Plug-In . SVG Version: 6.00 Build 0)  -->
<!DOCTYPE svg PUBLIC "-//W3C//DTD SVG 1.1//EN" "http://www.w3.org/Graphics/SVG/1.1/DTD/svg11.dtd">
<svg version="1.1" xmlns="http://www.w3.org/2000/svg" xmlns:xlink="http://www.w3.org/1999/xlink" x="0px" y="0px" width="90px"
	 height="60px" viewBox="0 0 90 60" enable-background="new 0 0 90 60" xml:space="preserve">
<g id="Layer_2_1_">
</g>
<g id="Layer_1">
	<g id="Layer_2_3_">
	</g>
	<g>
		<path d="M45,1.328c-9.881,0-17.92,8.039-17.92,17.92c0,1.979,1.604,3.584,3.584,3.584c1.979,0,3.584-1.604,3.584-3.584
			c0-5.929,4.823-10.752,10.752-10.752s10.752,4.824,10.752,10.752S50.929,30,45,30c-1.979,0-3.584,1.605-3.584,3.583v8.961
			c0,1.979,1.604,3.584,3.584,3.584s3.584-1.605,3.584-3.584v-5.736c8.169-1.666,14.336-8.906,14.336-17.56
			C62.92,9.367,54.881,1.328,45,1.328z"/>
		<circle cx="45" cy="55.088" r="3.584"/>
	</g>
</g>
</svg>
