<?xml version="1.0" encoding="utf-8"?>
<!-- Generator: Adobe Illustrator 15.1.0, SVG Export Plug-In . SVG Version: 6.00 Build 0)  -->
<!DOCTYPE svg PUBLIC "-//W3C//DTD SVG 1.1//EN" "http://www.w3.org/Graphics/SVG/1.1/DTD/svg11.dtd">
<svg version="1.1" xmlns="http://www.w3.org/2000/svg" xmlns:xlink="http://www.w3.org/1999/xlink" x="0px" y="0px" width="90px"
	 height="60px" viewBox="0 0 90 60" enable-background="new 0 0 90 60" xml:space="preserve">
<g id="Layer_1">
	<g id="Layer_2_3_">
	</g>
</g>
<g id="Layer_2_1_">
	<g>
		<g id="Layer_1_1_">
			<g>
				<path d="M27.413,49.021c-2.101,0-3.809-1.709-3.809-3.809c0-1.008,0.392-1.947,1.104-2.652c0.716-0.709,1.677-1.1,2.705-1.1
					h52.324c2.139,0,3.75,1.611,3.75,3.752c0,2.135-1.646,3.809-3.75,3.809H27.413z"/>
				<path d="M27.413,33.811c-2.136,0-3.809-1.674-3.809-3.813c0-2.135,1.673-3.808,3.809-3.808h52.324
					c2.139,0,3.75,1.637,3.75,3.808c0,2.176-1.611,3.813-3.75,3.813H27.413z"/>
				<path d="M27.413,18.54c-2.171,0-3.809-1.587-3.809-3.69c0-2.138,1.673-3.81,3.809-3.81h52.263c2.139,0,3.75,1.638,3.75,3.81
					c0,2.14-1.576,3.69-3.75,3.69H27.413z"/>
			</g>
		</g>
		<circle cx="12.315" cy="14.79" r="5.801"/>
		<circle cx="12.315" cy="30" r="5.802"/>
		<circle cx="12.315" cy="45.211" r="5.801"/>
	</g>
</g>
</svg>
