<?xml version="1.0" encoding="utf-8"?>
<!-- Generator: Adobe Illustrator 21.1.0, SVG Export Plug-In . SVG Version: 6.00 Build 0)  -->
<svg version="1.1" id="Layer_1" xmlns="http://www.w3.org/2000/svg" xmlns:xlink="http://www.w3.org/1999/xlink" x="0px" y="0px"
	 viewBox="0 0 512 512" style="enable-background:new 0 0 512 512;" xml:space="preserve">
<g>
	<g>
		<path d="M256,0C114.6,0,0,114.6,0,256c0,141.4,114.6,256,256,256c141.4,0,256-114.6,256-256C512,114.6,397.4,0,256,0z M256,486.4
			C129,486.4,25.6,383,25.6,256S129,25.6,256,25.6S486.4,129,486.4,256S383,486.4,256,486.4z"/>
	</g>
</g>
<g>
	<g>
		<path d="M376,324.7c-1.6-2.6-4.1-4.5-7.6-5.6c-3.5-1-6.7-0.9-9.6,0.4c-3.5,1.6-5.7,4.4-6.8,8.4c-5.1,16-15.6,29-31.6,38.8
			c-16.3,10.1-35.2,15.2-56.8,15.2c-26.4,0-48.3-7.5-65.6-22.4c-18.7-15.7-30.5-38.8-35.6-69.2h143.2c3.7,0,6.9-1.2,9.6-3.6
			c2.4-1.9,3.7-4.2,4-7.2c0.3-2.9-0.5-5.3-2.4-7.2c-2.1-2.1-5.2-3.2-9.2-3.2H160v-14.4v-10h150c3.7,0,6.9-1.2,9.6-3.6
			c2.4-1.9,3.7-4.2,4-7.2c0.3-2.9-0.5-5.3-2.4-7.2c-2.1-2.1-5.2-3.2-9.2-3.2H161.6c5.6-28.8,17.7-51.4,36.4-68
			c18.4-16,40.3-24,65.6-24c22.1,0,40.5,4.4,55.2,13.2c14.9,9.1,25.1,22.4,30.4,40c1.1,4,3.3,7.1,6.8,9.2c2.7,1.6,5.7,2.1,9.2,1.6
			c3.2-0.5,5.6-2,7.2-4.4c2.1-2.9,2.8-6.2,2-10c-4.3-20.2-14.5-36.7-30.8-49.2c-20-14.9-46.7-22.4-80-22.4
			c-32.5,0-60.4,10.5-83.6,31.6c-22.7,20.5-36.9,48-42.8,82.4h-21.6c-4,0-7.1,1.1-9.2,3.2c-2.1,1.9-3.2,4.3-3.2,7.2
			c-0.3,3,0.5,5.4,2.4,7.2c1.9,2.4,4.7,3.6,8.4,3.6h21.2v10v14.4h-19.6c-4,0-7.1,1.1-9.2,3.2c-2.1,1.9-3.2,4.3-3.2,7.2
			c-0.3,3,0.5,5.4,2.4,7.2c1.9,2.4,4.7,3.6,8.4,3.6h23.2c5.6,36,19.6,64,42,84c21.9,19.7,50,29.6,84.4,29.6
			c32.5,0,59.1-7.9,79.6-23.6c15.2-11.7,26.3-26.6,33.2-44.8C377.7,331.5,377.6,327.9,376,324.7z"/>
	</g>
</g>
</svg>
