<?xml version="1.0" encoding="utf-8"?>
<!-- Generator: Adobe Illustrator 21.1.0, SVG Export Plug-In . SVG Version: 6.00 Build 0)  -->
<svg version="1.1" xmlns="http://www.w3.org/2000/svg" xmlns:xlink="http://www.w3.org/1999/xlink" x="0px" y="0px"
	 viewBox="0 0 62 62" style="enable-background:new 0 0 62 62;" xml:space="preserve">
<g id="Livello_2">
</g>
<g id="Livello_1">
	<path d="M31,4c14.9,0,27,12.1,27,27S45.9,58,31,58C16.1,58,4,45.9,4,31S16.1,4,31,4 M31,0C13.9,0,0,13.9,0,31c0,17.1,13.9,31,31,31
		c17.1,0,31-13.9,31-31C62,13.9,48.1,0,31,0L31,0z M31,7C17.7,7,7,17.7,7,31c0,13.3,10.7,24,24,24s24-10.7,24-24
		C55,17.7,44.3,7,31,7z M45.4,25l-18,17.3c-0.3,0.3-0.8,0.5-1.3,0.5c-0.5,0-0.9-0.2-1.3-0.5l-8.5-8.1c-0.4-0.3-0.6-0.8-0.6-1.3
		c0-0.5,0.2-1,0.5-1.3c0.3-0.4,0.8-0.6,1.3-0.6c0.5,0,1,0.2,1.3,0.5l7.3,6.9l16.7-16.1c0.7-0.7,1.9-0.7,2.6,0
		C46.2,23.1,46.2,24.3,45.4,25z"/>
</g>
</svg>
