<?xml version="1.0" encoding="utf-8"?>
<!-- Generator: Adobe Illustrator 15.1.0, SVG Export Plug-In . SVG Version: 6.00 Build 0)  -->
<!DOCTYPE svg PUBLIC "-//W3C//DTD SVG 1.1//EN" "http://www.w3.org/Graphics/SVG/1.1/DTD/svg11.dtd">
<svg version="1.1" xmlns="http://www.w3.org/2000/svg" xmlns:xlink="http://www.w3.org/1999/xlink" x="0px" y="0px" width="90px"
	 height="60px" viewBox="0 0 90 60" enable-background="new 0 0 90 60" xml:space="preserve">
<g id="Layer_2_1_">
</g>
<g id="Layer_1">
	<g id="Layer_1_1_">
		<g id="Layer_2">
		</g>
	</g>
	<path d="M44.79,14.27c-8.703,0-15.74,7.038-15.74,15.73c0,8.692,7.038,15.73,15.74,15.73c8.703,0,15.74-7.038,15.74-15.73
		C60.53,21.307,53.493,14.27,44.79,14.27z M44.79,37.931c-4.275,0-7.738-3.555-7.738-7.931c0-4.377,3.463-7.931,7.738-7.931
		s7.729,3.554,7.729,7.931C52.519,34.376,49.065,37.931,44.79,37.931z"/>
	<path d="M45,6.98C20.38,6.98,0.44,19.05,0.44,30S20.38,53.02,45,53.02c24.61,0,44.57-12.079,44.57-23.02
		C89.57,19.06,69.62,6.98,45,6.98z M45,45.52C22.32,45.52,7.94,34.61,7.94,30c0-4.61,14.38-15.52,37.06-15.52
		c22.68,0,37.07,10.91,37.07,15.52C82.07,34.61,67.68,45.52,45,45.52z"/>
	<path d="M44.79,14.27c-8.703,0-15.74,7.038-15.74,15.73c0,8.692,7.038,15.73,15.74,15.73c8.703,0,15.74-7.038,15.74-15.73
		C60.53,21.307,53.493,14.27,44.79,14.27z M44.79,37.931c-4.275,0-7.738-3.555-7.738-7.931c0-4.377,3.463-7.931,7.738-7.931
		s7.729,3.554,7.729,7.931C52.519,34.376,49.065,37.931,44.79,37.931z"/>
	<path d="M44.79,14.27c-8.703,0-15.74,7.038-15.74,15.73c0,8.692,7.038,15.73,15.74,15.73c8.703,0,15.74-7.038,15.74-15.73
		C60.53,21.307,53.493,14.27,44.79,14.27z M44.79,37.931c-4.275,0-7.738-3.555-7.738-7.931c0-4.377,3.463-7.931,7.738-7.931
		s7.729,3.554,7.729,7.931C52.519,34.376,49.065,37.931,44.79,37.931z"/>
</g>
</svg>
