<?xml version="1.0" encoding="utf-8"?>
<!-- Generator: Adobe Illustrator 20.1.0, SVG Export Plug-In . SVG Version: 6.00 Build 0)  -->
<svg version="1.1" xmlns="http://www.w3.org/2000/svg" xmlns:xlink="http://www.w3.org/1999/xlink" x="0px" y="0px"
	 viewBox="0 0 90 60" style="enable-background:new 0 0 90 60;" xml:space="preserve">
<g id="Livello_1">
	<g id="Layer_2">
	</g>
</g>
<g id="Livello_2">
	<g>
		<g>
			<path d="M72.2,0.6c-0.5-0.5-1.5-0.4-2.8,0.3l-50.2,27c-1.9,1-2.3,2.1-1.3,3c0.4,0.3,1,0.6,1.8,0.8L40,36.4c0.5,0.1,1,0.4,1.4,0.8
				s0.8,0.8,1,1.3l8.3,19.3c0.3,0.8,0.7,1.3,1.1,1.6c1,0.8,2,0.2,2.7-1.8L72.4,3.4C72.9,2,72.8,1,72.2,0.6z M48.5,35.9
				c-0.8-1.7-1.9-3-2.8-3.7c-0.9-0.7-2.3-1.7-4.1-2.1L32.7,28l30-16.1L52.1,44.2L48.5,35.9z"/>
		</g>
	</g>
</g>
</svg>
