<?xml version="1.0" encoding="utf-8"?>
<!-- Generator: Adobe Illustrator 15.1.0, SVG Export Plug-In . SVG Version: 6.00 Build 0)  -->
<!DOCTYPE svg PUBLIC "-//W3C//DTD SVG 1.1//EN" "http://www.w3.org/Graphics/SVG/1.1/DTD/svg11.dtd">
<svg version="1.1" xmlns="http://www.w3.org/2000/svg" xmlns:xlink="http://www.w3.org/1999/xlink" x="0px" y="0px" width="90px"
	 height="60px" viewBox="0 0 90 60" enable-background="new 0 0 90 60" xml:space="preserve">
<g id="Layer_2_1_">
</g>
<g id="Layer_1">
	<g id="Layer_2_3_">
	</g>
	<path d="M26.4,26.28v8.93h14.772c-0.597,3.829-4.47,11.23-14.772,11.23c-8.893,0-16.143-7.358-16.143-16.441
		c0-9.075,7.25-16.44,16.143-16.44c5.056,0,8.443,2.157,10.379,4.018l7.066-6.808C39.312,6.527,33.434,3.961,26.4,3.961
		c-14.395,0-26.039,11.643-26.039,26.038c0,14.397,11.644,26.04,26.039,26.04c15.028,0,25-10.563,25-25.443
		c0-1.712-0.188-3.016-0.414-4.315H26.4z"/>
	<polygon points="89.639,33.72 78.479,33.72 78.479,44.88 71.039,44.88 71.039,33.72 59.879,33.72 59.879,26.28 71.039,26.28 
		71.039,15.12 78.479,15.12 78.479,26.28 89.639,26.28 89.639,33.72 	"/>
</g>
</svg>
