<?xml version="1.0" encoding="utf-8"?>
<!-- Generator: Adobe Illustrator 20.1.0, SVG Export Plug-In . SVG Version: 6.00 Build 0)  -->
<svg version="1.1" id="Layer_1" xmlns="http://www.w3.org/2000/svg" xmlns:xlink="http://www.w3.org/1999/xlink" x="0px" y="0px"
	 viewBox="0 0 90 60" style="enable-background:new 0 0 90 60;" xml:space="preserve">
<g>
	<path d="M45,47c9.4,0,17-7.6,17-17s-7.6-17-17-17s-17,7.6-17,17S35.6,47,45,47z M45,16.8c7.3,0,13.2,5.9,13.2,13.2
		S52.3,43.2,45,43.2S31.8,37.3,31.8,30S37.7,16.8,45,16.8z"/>
	<path d="M44.6,10.5c1.1,0,1.9-0.9,1.9-1.9V2c0-1.1-0.9-1.9-1.9-1.9S42.7,0.9,42.7,2v6.6C42.7,9.6,43.6,10.5,44.6,10.5z"/>
	<path d="M28.2,16.5c0.4,0.4,0.9,0.6,1.4,0.6c0.5,0,1-0.2,1.4-0.6c0.8-0.8,0.8-2,0-2.7l-4.7-4.7c-0.8-0.8-2-0.7-2.7,0
		c-0.8,0.8-0.8,2,0,2.7L28.2,16.5z"/>
	<path d="M17,32.3h6.6c1.1,0,1.9-0.9,1.9-1.9c0-1.1-0.9-1.9-1.9-1.9H17c-1.1,0-1.9,0.9-1.9,1.9C15,31.4,15.9,32.3,17,32.3z"/>
	<path d="M25.4,52c0.5,0,1-0.2,1.4-0.6l4.7-4.7c0.8-0.8,0.8-2,0-2.7c-0.8-0.8-2-0.7-2.7,0l-4.7,4.7c-0.8,0.8-0.8,2,0,2.7
		C24.4,51.8,24.9,52,25.4,52z"/>
	<path d="M47.3,58v-6.6c0-1.1-0.9-1.9-1.9-1.9s-1.9,0.9-1.9,1.9V58c0,1.1,0.9,1.9,1.9,1.9S47.3,59.1,47.3,58z"/>
	<path d="M63.7,50.9c0.4,0.4,0.9,0.6,1.4,0.6s1-0.2,1.4-0.6c0.8-0.8,0.8-2,0-2.7l-4.7-4.7c-0.8-0.8-2-0.7-2.7,0
		c-0.8,0.8-0.8,2,0,2.7L63.7,50.9z"/>
	<path d="M64.5,29.6c0,1.1,0.9,1.9,1.9,1.9H73c1.1,0,1.9-0.9,1.9-1.9c0-1.1-0.9-1.9-1.9-1.9h-6.6C65.4,27.7,64.5,28.6,64.5,29.6z"/>
	<path d="M59.9,16.5c0.5,0,1-0.2,1.4-0.6l4.7-4.7c0.8-0.8,0.8-2,0-2.7c-0.8-0.8-2-0.7-2.7,0l-4.7,4.7c-0.8,0.8-0.8,2,0,2.7
		C58.9,16.3,59.4,16.5,59.9,16.5z"/>
</g>
</svg>
