<?xml version="1.0" encoding="utf-8"?>
<!-- Generator: Adobe Illustrator 21.1.0, SVG Export Plug-In . SVG Version: 6.00 Build 0)  -->
<svg version="1.1" id="Livello_1" xmlns="http://www.w3.org/2000/svg" xmlns:xlink="http://www.w3.org/1999/xlink" x="0px" y="0px"
	 viewBox="0 0 59.5 56.8" style="enable-background:new 0 0 59.5 56.8;" xml:space="preserve">
<path d="M59.4,21.6c-0.2-0.7-1-1.5-2.4-1.5H37.9L32,1.8C31.5,0.5,30.6,0,29.8,0S28,0.5,27.6,1.8L21.6,20H2.5c-1.4,0-2.1,0.8-2.4,1.6
	c-0.2,0.8-0.1,1.8,1,2.7l15.5,11.3l-5.9,18.2c-0.4,1.3,0.1,2.3,0.7,2.7c0.3,0.2,0.8,0.4,1.3,0.4c0.5,0,1-0.2,1.5-0.5L29.8,45
	l15.5,11.2c1.1,0.8,2.2,0.6,2.8,0.2c0.6-0.5,1.2-1.4,0.8-2.7l-5.9-18.2l15.5-11.2C59.5,23.4,59.7,22.3,59.4,21.6z M32.3,40.7
	L32.3,40.7l-0.1-0.1c-0.7-0.5-1.6-0.7-2.5-0.7s-1.7,0.3-2.5,0.7l-0.1,0l-0.1,0L18,47.4l3.5-10.8l0-0.1l0-0.1
	c0.5-1.7-0.1-3.6-1.5-4.7l-0.1,0l-0.1,0L10.7,25h11.4h0.1l0.1,0c1.8-0.1,3.4-1.3,4-3.1l3.5-10.8L33.3,22c0.6,1.7,2.1,2.9,4,3l0.1,0
	h0.1h11.3l-9.2,6.6l-0.1,0l-0.1,0c-1.4,1.1-2,3-1.5,4.7l0,0.1l0,0.1l3.5,10.8L32.3,40.7z"/>
</svg>
