<?xml version="1.0" encoding="utf-8"?>
<!-- Generator: Adobe Illustrator 21.1.0, SVG Export Plug-In . SVG Version: 6.00 Build 0)  -->
<svg version="1.1" id="Livello_1" xmlns="http://www.w3.org/2000/svg" xmlns:xlink="http://www.w3.org/1999/xlink" x="0px" y="0px"
	 viewBox="0 0 82.2 45.6" style="enable-background:new 0 0 82.2 45.6;" xml:space="preserve">
<path d="M52.7,11.7c-0.4-2.2-2.3-4.4-5.6-4.4c-3.1,0-5.5,2.3-5.6,5.4c0,0.4,0,0.8,0,1.2c-0.1,3.1-0.2,6.6-2.5,8.3
	c-0.2,0.1-0.4,0.2-0.5,0.4c-0.9,0.6-2.1,1.3-2.1,3c0,0.8,0.3,1.5,0.9,2.1c1.1,1,2.8,1.2,3.8,1.2c0.3,0,0.5,0,0.6,0
	c3.8-0.3,7-2.4,9.3-6.5c1.5-2.6,2-5.2,2.1-6.9C53,13.6,52.8,12.2,52.7,11.7z M47.1,9.4c2.3,0,3.4,1.5,3.6,2.7
	c0.1,0.3,0.3,1.5,0.1,3.1c-0.1,1.5-0.5,3.8-1.8,6.1c-2,3.4-4.5,5.3-7.7,5.5h0c-0.1,0-0.3,0-0.5,0c-0.9,0-2-0.2-2.5-0.6
	c-0.2-0.2-0.2-0.3-0.2-0.6c0-0.5,0.3-0.8,1.2-1.3c0.2-0.1,0.4-0.3,0.6-0.4c3.1-2.2,3.3-6.4,3.4-9.8c0-0.4,0-0.8,0-1.1
	C43.6,10.8,45.1,9.4,47.1,9.4z M38.4,20.3c0.9-1.8,1.5-5.5,1.1-7.4c-0.4-2.2-2.1-3.6-4.4-3.6c-2.2,0-4,1.4-4.4,3.6
	c-0.4,1.9,0.2,5.7,1.1,7.4c0.6,1.2,1.8,1.8,3.2,1.8C36.6,22.1,37.8,21.5,38.4,20.3z M35.2,20.1c-1.1,0-1.4-0.6-1.5-0.8v0
	c-0.8-1.5-1.2-4.8-0.9-6.1c0.1-0.6,0.6-2,2.4-2c1.8,0,2.3,1.4,2.4,2c0.3,1.4-0.2,4.7-0.9,6.1C36.5,19.6,36.2,20.1,35.2,20.1z
	 M17.7,6.9c0,0.7-0.6,1.3-1.3,1.3h-15C0.6,8.2,0,7.6,0,6.9s0.6-1.4,1.3-1.4h15C17.1,5.5,17.7,6.1,17.7,6.9z M21.2,12.1
	c0,0.7-0.6,1.3-1.4,1.3h-15c-0.7,0-1.3-0.6-1.3-1.3s0.6-1.4,1.3-1.4h15C20.6,10.7,21.2,11.4,21.2,12.1z M24.7,17.3
	c0,0.7-0.6,1.3-1.3,1.3h-15C7.6,18.6,7,18,7,17.3s0.6-1.4,1.3-1.4h15C24.1,15.9,24.7,16.5,24.7,17.3z M79,21.1l-9-3.8
	c-1.4-0.6-2.6-1.6-3.5-2.9L56.8,0.6C56.6,0.2,56.1,0,55.7,0h-45C9.9,0,9.3,0.6,9.3,1.4s0.6,1.4,1.4,1.4H55l9.3,13.2
	c1.2,1.7,2.8,3,4.7,3.8l9,3.8c0.9,0.4,1.5,1.3,1.5,2.3v11.6h-6.9c-0.2-4-3.6-7.3-7.7-7.3c-4.1,0-7.5,3.2-7.7,7.3H33.3
	c-0.2-4-3.6-7.3-7.7-7.3s-7.5,3.2-7.7,7.3h-6V22.7c0-0.7-0.6-1.4-1.4-1.4s-1.4,0.6-1.4,1.4v16.1c0,0.7,0.6,1.3,1.4,1.3h7.6
	c1,3.2,4,5.4,7.4,5.4s6.4-2.2,7.4-5.4h24.6c1,3.2,4,5.4,7.4,5.4s6.4-2.2,7.4-5.4h8.5c0.7,0,1.4-0.6,1.4-1.3v-13
	C82.2,23.7,80.9,21.9,79,21.1z M64.9,42.9c-2.8,0-5-2.2-5-5c0-2.8,2.2-5,5-5c2.8,0,5,2.2,5,5C69.9,40.6,67.7,42.9,64.9,42.9z
	 M25.7,42.9c-2.8,0-5-2.2-5-5c0-2.8,2.2-5,5-5c2.8,0,5,2.2,5,5C30.7,40.6,28.4,42.9,25.7,42.9z"/>
</svg>
