<?xml version="1.0" encoding="utf-8"?>
<!-- Generator: Adobe Illustrator 21.1.0, SVG Export Plug-In . SVG Version: 6.00 Build 0)  -->
<svg version="1.1" id="Livello_1" xmlns="http://www.w3.org/2000/svg" xmlns:xlink="http://www.w3.org/1999/xlink" x="0px" y="0px"
	 viewBox="0 0 67.6 55.5" style="enable-background:new 0 0 67.6 55.5;" xml:space="preserve">
<path d="M57.4,11.1H46.7c0.1-0.6,0.2-1.2,0.2-1.7c0.1-2.1-0.1-3.7-0.2-4.3C46.2,2.6,44,0,40.1,0c-3.7,0-6.5,2.7-6.6,6.4
	c0,0.4,0,0.9-0.1,1.4c-0.1,3.6-0.3,7.8-3,9.7c-0.2,0.1-0.4,0.3-0.6,0.4c-1,0.7-2.5,1.6-2.5,3.5c0,1,0.3,1.8,1,2.4
	c1.3,1.2,3.3,1.4,4.5,1.4c0.3,0,0.5,0,0.7,0c4.5-0.3,8.2-2.9,10.9-7.6c0.8-1.3,1.3-2.6,1.6-3.8h11.3c4.2,0,7.6,3.4,7.6,7.6v31.4
	H47.2V37.4c0-3-2.4-5.4-5.4-5.4H25.5c-3,0-5.4,2.4-5.4,5.4v15.4H2.6V21.4c0-4.2,3.4-7.6,7.6-7.6h11.4c0.2,0.6,0.4,1.1,0.6,1.5
	c0.7,1.4,2.1,2.1,3.8,2.1c1.7,0,3.1-0.8,3.8-2.1c1.1-2.1,1.8-6.5,1.4-8.8c-0.5-2.6-2.5-4.2-5.2-4.2c-2.6,0-4.7,1.7-5.2,4.2
	c-0.2,1.2-0.1,3,0.1,4.7H10.2C4.6,11.1,0,15.7,0,21.4v32.7c0,0.7,0.6,1.3,1.3,1.3h20.1h24.6h20.4c0.7,0,1.3-0.6,1.3-1.3V21.4
	C67.6,15.7,63,11.1,57.4,11.1z M33.4,22.9L33.4,22.9c-0.2,0-0.4,0-0.5,0c-1.1,0-2.3-0.2-2.9-0.8c-0.2-0.2-0.3-0.4-0.3-0.7
	c0-0.6,0.4-0.9,1.4-1.5c0.3-0.2,0.5-0.3,0.8-0.5c3.7-2.6,3.8-7.6,4-11.6c0-0.5,0-0.9,0-1.3c0.1-2.4,1.9-4.1,4.3-4.1
	c2.7,0,4,1.7,4.3,3.2c0.1,0.4,0.3,1.8,0.2,3.7c-0.1,1.8-0.6,4.4-2.1,7.1C40.1,20.4,37.1,22.6,33.4,22.9z M23.2,6.9
	c0.1-0.7,0.7-2.3,2.8-2.3c2.2,0,2.7,1.6,2.8,2.3c0.3,1.6-0.2,5.5-1.1,7.2C27.6,14.4,27.3,15,26,15c-1.2,0-1.6-0.7-1.7-0.9v0
	C23.4,12.4,22.9,8.5,23.2,6.9z M22.7,37.4c0-1.5,1.3-2.8,2.8-2.8h6.9v18.2h-9.7V37.4z M35,52.8V34.6h6.9c1.5,0,2.8,1.3,2.8,2.8v15.4
	H35z"/>
</svg>
