<?xml version="1.0" encoding="utf-8"?>
<!-- Generator: Adobe Illustrator 21.1.0, SVG Export Plug-In . SVG Version: 6.00 Build 0)  -->
<svg version="1.1" id="Livello_1" xmlns="http://www.w3.org/2000/svg" xmlns:xlink="http://www.w3.org/1999/xlink" x="0px" y="0px"
	 viewBox="0 0 784 500" style="enable-background:new 0 0 784 500;" xml:space="preserve">
<path d="M196,54C88,54,0,142,0,250s88,196,196,196s196-88,196-196S304,54,196,54z M196,408.5c-87.4,0-158.5-71.2-158.5-158.5
	S108.6,91.5,196,91.5S354.5,162.6,354.5,250S283.4,408.5,196,408.5z M298.1,186.7l0.1,0.2c6.3,8,5,19.6-3,26l-88.7,70.9
	c-5.7,4.5-13.4,5.4-19.9,2.1l-71.2-35.6c-9.2-4.6-12.9-15.9-8.3-25.1l0,0c4.6-9.1,15.7-12.7,24.8-8.2l49.7,24.7
	c6.5,3.2,14.2,2.4,19.8-2.1l70.4-55.9C280,177.2,291.7,178.6,298.1,186.7z M558.2,294.1v19.8h-87.5v-16.4l44.6-46
	c4.3-4.3,7.7-8.5,10.3-12.7c2.6-4.2,3.9-7.8,3.9-10.8c0-4.3-1.7-7.6-5.1-10.1c-3.4-2.4-8.1-3.6-14-3.6c-5.2,0-10.7,1.3-16.6,3.9
	c-5.9,2.6-11.4,6.2-16.6,10.8l-9-17.4c7-5.4,14.3-9.6,22-12.6c7.7-3,15.5-4.5,23.2-4.5c7.8,0,14.6,1.2,20.6,3.7
	c6,2.5,10.6,6,13.9,10.6c3.3,4.6,5,9.8,5,15.8c0,5.7-2,11.8-5.9,18.2c-3.9,6.4-9.5,13.3-16.6,20.8l-30.1,30.4H558.2z M659.9,266.6
	V286h-17.1v27.9h-20.9V286h-56.6v-16.7l38.5-73.7h21.8l-36.2,71h32.4v-27.4h20.9v27.4H659.9z M679.8,195.6h22.6v50.5h59v-50.5H784
	v118.3h-22.6v-48h-59v48h-22.6V195.6z"/>
</svg>
