<?xml version="1.0" encoding="utf-8"?>
<!-- Generator: Adobe Illustrator 21.1.0, SVG Export Plug-In . SVG Version: 6.00 Build 0)  -->
<svg version="1.1" id="Livello_1" xmlns="http://www.w3.org/2000/svg" xmlns:xlink="http://www.w3.org/1999/xlink" x="0px" y="0px"
	 viewBox="0 0 94.8 95.8" style="enable-background:new 0 0 94.8 95.8;" xml:space="preserve">
<path d="M93.8,15.4l-10-9.9c-0.6-0.6-1.5-1-2.4-1h-30c-0.3,0-0.6-0.3-0.6-0.6V3.4c0-1.9-1.5-3.4-3.4-3.4S44,1.5,44,3.4v0.5
	c0,0.3-0.3,0.6-0.6,0.6h-19C22.5,4.5,21,6,21,7.9v20c0,1.9,1.5,3.4,3.4,3.4h18.2c0.8,0,1.4,0.6,1.4,1.4v10.4c0,0.8-0.6,1.4-1.4,1.4
	H13.4c-0.9,0-1.8,0.4-2.4,1L1,55.3c-1.3,1.3-1.3,3.5,0,4.8l10,10.1c0.6,0.7,1.5,1,2.4,1l30,0c0.3,0,0.6,0.3,0.6,0.6v20.5
	c0,1.9,1.5,3.4,3.4,3.4s3.4-1.5,3.4-3.4V71.9c0-0.3,0.3-0.6,0.6-0.6h19c1.9,0,3.4-1.5,3.4-3.4v-20c0-1.9-1.5-3.4-3.4-3.4H52.2
	c-0.8,0-1.4-0.6-1.4-1.4V32.7c0-0.8,0.6-1.4,1.4-1.4h29.2c0.9,0,1.8-0.4,2.4-1l10-10.1C95.1,18.8,95.1,16.7,93.8,15.4z M66.4,51.3
	c0.3,0,0.6,0.3,0.6,0.6v12c0,0.3-0.3,0.6-0.6,0.6H15.1c-0.2,0-0.3-0.1-0.4-0.2l-6-6.1c-0.1-0.1-0.2-0.3-0.2-0.4
	c0-0.2,0.1-0.3,0.2-0.4l6-5.9c0.1-0.1,0.3-0.2,0.4-0.2H66.4z"/>
</svg>
