<?xml version="1.0" encoding="utf-8"?>
<!-- Generator: Adobe Illustrator 21.1.0, SVG Export Plug-In . SVG Version: 6.00 Build 0)  -->
<svg version="1.1" id="Livello_1" xmlns="http://www.w3.org/2000/svg" xmlns:xlink="http://www.w3.org/1999/xlink" x="0px" y="0px"
	 viewBox="0 0 896.4 500" style="enable-background:new 0 0 896.4 500;" xml:space="preserve">
<path d="M196,54C88,54,0,142,0,250s88,196,196,196s196-88,196-196S304,54,196,54z M196,408.5c-87.4,0-158.5-71.2-158.5-158.5
	S108.6,91.5,196,91.5S354.5,162.6,354.5,250S283.4,408.5,196,408.5z M298.1,186.7l0.1,0.2c6.3,8,5,19.6-3,26l-88.7,70.9
	c-5.7,4.5-13.4,5.4-19.9,2.1l-71.2-35.6c-9.2-4.6-12.9-15.9-8.3-25.1l0,0c4.6-9.1,15.7-12.7,24.8-8.2l49.7,24.7
	c6.5,3.2,14.2,2.4,19.8-2.1l70.4-55.9C280,177.2,291.7,178.6,298.1,186.7z M464.4,195.6h47.5v118.3h-22.6v-98.3h-24.8V195.6z
	 M622.7,294.1v19.8h-87.5v-16.4l44.6-46c4.3-4.3,7.7-8.5,10.3-12.7c2.6-4.2,3.9-7.8,3.9-10.8c0-4.3-1.7-7.6-5.1-10.1
	c-3.4-2.4-8.1-3.6-14-3.6c-5.2,0-10.7,1.3-16.6,3.9c-5.9,2.6-11.4,6.2-16.6,10.8l-9-17.4c7-5.4,14.3-9.6,22-12.6
	c7.7-3,15.5-4.5,23.2-4.5c7.8,0,14.6,1.2,20.6,3.7c6,2.5,10.6,6,13.9,10.6c3.3,4.6,5,9.8,5,15.8c0,5.7-2,11.8-5.9,18.2
	c-3.9,6.4-9.5,13.3-16.6,20.8l-30.1,30.4H622.7z M655.7,244.3c2.2,2.3,3.3,5.1,3.3,8.6c0,3.6-1.1,6.6-3.3,8.9
	c-2.2,2.3-5,3.5-8.4,3.5c-3.3,0-6-1.2-8.2-3.5s-3.3-5.3-3.3-8.8c0-3.5,1.1-6.4,3.3-8.6c2.2-2.3,4.9-3.4,8.2-3.4
	C650.7,240.9,653.5,242.1,655.7,244.3z M655.7,294.5c2.2,2.3,3.3,5.1,3.3,8.6c0,3.6-1.1,6.6-3.3,8.9s-5,3.5-8.4,3.5
	c-3.3,0-6-1.2-8.2-3.5s-3.3-5.3-3.3-8.8c0-3.5,1.1-6.4,3.3-8.6c2.2-2.3,4.9-3.4,8.2-3.4C650.7,291.1,653.5,292.2,655.7,294.5z
	 M763.9,210.2c8.8,10.4,13.2,25.2,13.2,44.6c0,19.3-4.4,34.1-13.2,44.4c-8.8,10.4-21.3,15.5-37.7,15.5c-16.3,0-28.9-5.2-37.7-15.5
	c-8.8-10.4-13.2-25.2-13.2-44.4c0-19.4,4.4-34.2,13.2-44.6c8.8-10.4,21.3-15.5,37.7-15.5C742.6,194.6,755.1,199.8,763.9,210.2z
	 M705.5,222.8c-4.5,6.8-6.8,17.5-6.8,32c0,14.4,2.3,25.1,6.8,31.9c4.5,6.9,11.4,10.3,20.8,10.3c9.3,0,16.3-3.4,20.8-10.3
	c4.5-6.9,6.8-17.5,6.8-31.9c0-14.5-2.3-25.2-6.8-32c-4.5-6.8-11.4-10.2-20.8-10.2C716.9,212.5,710,215.9,705.5,222.8z M883.2,210.2
	c8.8,10.4,13.2,25.2,13.2,44.6c0,19.3-4.4,34.1-13.2,44.4c-8.8,10.4-21.3,15.5-37.7,15.5c-16.3,0-28.9-5.2-37.7-15.5
	c-8.8-10.4-13.2-25.2-13.2-44.4c0-19.4,4.4-34.2,13.2-44.6c8.8-10.4,21.3-15.5,37.7-15.5C861.9,194.6,874.4,199.8,883.2,210.2z
	 M824.8,222.8c-4.5,6.8-6.8,17.5-6.8,32c0,14.4,2.3,25.1,6.8,31.9c4.5,6.9,11.4,10.3,20.8,10.3c9.3,0,16.3-3.4,20.8-10.3
	c4.5-6.9,6.8-17.5,6.8-31.9c0-14.5-2.3-25.2-6.8-32c-4.5-6.8-11.4-10.2-20.8-10.2C836.2,212.5,829.3,215.9,824.8,222.8z"/>
</svg>
