<?xml version="1.0" encoding="utf-8"?>
<!-- Generator: Adobe Illustrator 21.1.0, SVG Export Plug-In . SVG Version: 6.00 Build 0)  -->
<svg version="1.1" id="Livello_1" xmlns="http://www.w3.org/2000/svg" xmlns:xlink="http://www.w3.org/1999/xlink" x="0px" y="0px"
	 viewBox="0 0 500 500" style="enable-background:new 0 0 500 500;" xml:space="preserve">
<path d="M228.9,305.4c0-4.8,3.9-8.7,8.7-8.7h24.8c4.8,0,8.7,3.9,8.7,8.7v24.8c0,4.8-3.9,8.7-8.7,8.7h-24.8c-4.8,0-8.7-3.9-8.7-8.7
	V305.4z M142.1,330.2c0,4.8,3.9,8.7,8.7,8.7h24.8c4.8,0,8.7-3.9,8.7-8.7v-24.8c0-4.8-3.9-8.7-8.7-8.7h-24.8c-4.8,0-8.7,3.9-8.7,8.7
	V330.2z M150.8,262.1h24.8c4.8,0,8.7-3.9,8.7-8.7v-24.8c0-4.8-3.9-8.7-8.7-8.7h-24.8c-4.8,0-8.7,3.9-8.7,8.7v24.8
	C142.1,258.2,146,262.1,150.8,262.1z M237.6,262.1h24.8c4.8,0,8.7-3.9,8.7-8.7v-24.8c0-4.8-3.9-8.7-8.7-8.7h-24.8
	c-4.8,0-8.7,3.9-8.7,8.7v24.8C228.9,258.2,232.8,262.1,237.6,262.1z M441,406.2c0,16.4-13.4,29.8-29.8,29.8H88.8
	C72.4,436,59,422.6,59,406.2V133.4c0-16.4,13.4-29.8,29.8-29.8h24.8H124v-7.4V77.6c0-13,7.6-23.6,20.6-23.6s20.6,10.6,20.6,23.6
	v18.6v7.4h10.4h148.8h10.4v-7.4V77.6c0-13,7.6-23.6,20.6-23.6S376,64.6,376,77.6v18.6v7.4h10.4h24.8c16.4,0,29.8,13.4,29.8,29.8
	V406.2z M406.3,157.5H93.7v236.3v7.4h7.4h297.7h7.4v-7.4V157.5z M349.2,262.1c4.8,0,8.7-3.9,8.7-8.7v-24.8c0-4.8-3.9-8.7-8.7-8.7
	h-24.8c-4.8,0-8.7,3.9-8.7,8.7v24.8c0,4.8,3.9,8.7,8.7,8.7H349.2z"/>
</svg>
