<?xml version="1.0" encoding="utf-8"?>
<!-- Generator: Adobe Illustrator 21.1.0, SVG Export Plug-In . SVG Version: 6.00 Build 0)  -->
<svg version="1.1" id="Livello_1" xmlns="http://www.w3.org/2000/svg" xmlns:xlink="http://www.w3.org/1999/xlink" x="0px" y="0px"
	 viewBox="0 0 500 500" style="enable-background:new 0 0 500 500;" xml:space="preserve">
<g>
	<path d="M495.6,121.9c0-7-5.7-12.6-12.6-12.6h-87.4c-7,0-12.6,5.7-12.6,12.6v38.8c0,5.9-4.8,10.7-10.7,10.7h-75.7
		c-7,0-12.6,5.7-12.6,12.6v38.8c0,5.9-4.8,10.7-10.7,10.7h-75.7c-7,0-12.6,5.7-12.6,12.6v38.8c0,5.9-4.8,10.7-10.7,10.7H96.6
		c-7,0-12.6,5.7-12.6,12.6v38.8c0,5.9-4.8,10.7-10.7,10.7H17c-7,0-12.6,5.7-12.6,12.6v7.8c0,7,5.7,12.6,12.6,12.6h87.4
		c7,0,12.6-5.7,12.6-12.6v-38.8c0-5.9,4.8-10.7,10.7-10.7h77.7c7,0,12.6-5.7,12.6-12.6v-38.8c0-5.9,4.8-10.7,10.7-10.7h75.7
		c7,0,12.6-5.7,12.6-12.6v-38.8c0-5.9,4.8-10.7,10.7-10.7h75.7c7,0,12.6-5.7,12.6-12.6v-38.8c0-5.9,4.8-10.7,10.7-10.7H483
		c7,0,12.6-5.7,12.6-12.6V121.9z"/>
</g>
</svg>
