<?xml version="1.0" encoding="utf-8"?>
<!-- Generator: Adobe Illustrator 21.1.0, SVG Export Plug-In . SVG Version: 6.00 Build 0)  -->
<svg version="1.1" id="Livello_1" xmlns="http://www.w3.org/2000/svg" xmlns:xlink="http://www.w3.org/1999/xlink" x="0px" y="0px"
	 viewBox="0 0 500 500" style="enable-background:new 0 0 500 500;" xml:space="preserve">
<path d="M252.7,0c-10.8,0-19.4,8.7-19.4,19.4v43.4c0,10.8,8.7,19.4,19.4,19.4s19.4-8.7,19.4-19.4V19.4C272.1,8.7,263.4,0,252.7,0z
	 M137.4,29.5c-3.4-0.1-6.9,0.8-10.1,2.6c-9.3,5.4-12.5,17.3-7.1,26.6l21.7,37.6c3.6,6.2,10.1,9.7,16.9,9.7c3.3,0,6.6-0.8,9.7-2.6
	c9.3-5.4,12.5-17.3,7.1-26.6l-21.7-37.6C150.3,33.1,144,29.7,137.4,29.5L137.4,29.5z M367.2,32.2c-6.6,0.1-12.9,3.6-16.4,9.7
	l-21.7,37.6c-5.4,9.3-2.2,21.2,7.1,26.6c3.1,1.8,6.4,2.6,9.7,2.6c6.7,0,13.3-3.5,16.9-9.7l21.7-37.6c5.4-9.3,2.2-21.2-7.1-26.6
	C374.1,33,370.6,32.1,367.2,32.2L367.2,32.2z M51.3,112.9c-6.6,0.1-12.9,3.6-16.4,9.7c-5.4,9.3-2.2,21.2,7.1,26.6l37.6,21.7
	c3,1.8,6.4,2.6,9.7,2.6c6.7,0,13.3-3.5,16.9-9.7c5.4-9.3,2.2-21.2-7.1-26.6l-37.6-21.7C58.2,113.7,54.7,112.8,51.3,112.9L51.3,112.9
	z M450.5,117.6c-3.1,0.1-6.3,0.9-9.2,2.6l-37.6,21.7c-9.3,5.3-12.5,17.2-7.1,26.5c3.6,6.2,10.1,9.7,16.9,9.7c3.3,0,6.7-0.8,9.7-2.6
	l37.6-21.7c9.3-5.3,12.5-17.2,7.1-26.5C464.2,121,457.4,117.5,450.5,117.6L450.5,117.6z M250,119.3c-72,0-130.6,58.6-130.6,130.7
	S178,380.6,250,380.6c72.1,0,130.7-58.6,130.7-130.7S322,119.3,250,119.3L250,119.3z M250,158.2c50.6,0,91.8,41.2,91.8,91.8
	c0,50.6-41.2,91.8-91.8,91.8c-50.6,0-91.7-41.2-91.7-91.8C158.2,199.4,199.4,158.2,250,158.2z M19.4,227.8
	C8.7,227.8,0,236.5,0,247.3c0,10.8,8.7,19.4,19.4,19.4h43.4c10.7,0,19.4-8.7,19.4-19.4c0-10.8-8.7-19.4-19.4-19.4H19.4z
	 M437.1,233.2c-10.8,0-19.4,8.7-19.4,19.4c0,10.8,8.7,19.4,19.4,19.4h43.4c10.8,0,19.4-8.7,19.4-19.4c0-10.8-8.7-19.4-19.4-19.4
	H437.1z M87,321.8c-3.4-0.1-6.9,0.8-10.1,2.6l-37.6,21.7c-9.3,5.4-12.5,17.2-7.1,26.6c3.6,6.2,10.1,9.7,16.9,9.7
	c3.3,0,6.6-0.8,9.7-2.6l37.6-21.7c9.3-5.4,12.5-17.2,7.1-26.6C99.8,325.4,93.5,321.9,87,321.8z M410.3,326.5
	c-6.6,0.1-12.9,3.6-16.4,9.7c-5.4,9.3-2.2,21.2,7.1,26.6l37.6,21.7c3,1.8,6.4,2.6,9.7,2.6c6.7,0,13.2-3.5,16.9-9.7
	c5.4-9.3,2.2-21.2-7.1-26.6l-37.6-21.7C417.2,327.2,413.7,326.4,410.3,326.5z M153.6,391.3c-6.6,0.1-12.9,3.6-16.4,9.7l-21.6,37.6
	c-5.4,9.3-2.2,21.2,7.1,26.6c3.1,1.8,6.4,2.6,9.7,2.6c6.7,0,13.2-3.5,16.9-9.7l21.6-37.6c5.4-9.3,2.2-21.2-7.1-26.6
	C160.6,392.1,157.1,391.2,153.6,391.3L153.6,391.3z M341.6,394c-3.4-0.1-6.9,0.8-10.1,2.6c-9.3,5.4-12.5,17.2-7.1,26.6l21.7,37.6
	c3.6,6.2,10.1,9.7,16.9,9.7c3.3,0,6.6-0.8,9.7-2.6c9.3-5.4,12.4-17.2,7.1-26.6L358,403.7C354.5,397.6,348.2,394.1,341.6,394
	L341.6,394z M247.3,417.7c-10.8,0-19.4,8.7-19.4,19.4v43.4c0,10.8,8.7,19.4,19.4,19.4c10.8,0,19.4-8.7,19.4-19.4v-43.4
	C266.7,426.4,258,417.7,247.3,417.7z"/>
</svg>
