<?xml version="1.0" encoding="utf-8"?>
<!-- Generator: Adobe Illustrator 21.0.0, SVG Export Plug-In . SVG Version: 6.00 Build 0)  -->
<svg version="1.1" id="Layer_1" xmlns="http://www.w3.org/2000/svg" xmlns:xlink="http://www.w3.org/1999/xlink" x="0px" y="0px"
	 viewBox="0 0 90 60" style="enable-background:new 0 0 90 60;" xml:space="preserve">
<g>
	<g>
		<circle cx="50.5" cy="19.6" r="3.1"/>
		<path d="M17.8,55.8C17.8,55.8,17.8,55.8,17.8,55.8C17.8,55.8,17.8,55.8,17.8,55.8c0.1,0.1,0.1,0.3,0.2,0.4c0,0,0,0,0,0.1
			c0,0,0,0,0,0.1l0,0c0,0.1,0.1,0.1,0.2,0.2l0,0c0,0,0,0,0.1,0.1c0,0,0,0,0,0c0,0,0.1,0,0.1,0.1l0,0c0,0,0,0,0,0c0,0,0.1,0,0.2,0.1
			c0,0,0,0,0.1,0c0,0,0.1,0,0.1,0c0.1,0,0.3,0,0.4,0h50.7c1.1,0,1.9-0.8,1.9-1.9V42.6V4.7c0-1.1-0.8-1.9-1.9-1.9H19.7
			c-1.1,0-1.9,0.8-1.9,1.9v37.8v12.7C17.8,55.3,17.8,55.5,17.8,55.8C17.8,55.7,17.8,55.8,17.8,55.8L17.8,55.8z M68.5,53.3H26.1
			l31.3-20.5l11.1,10.6V53.3z M21.6,6.6h46.9v31.5L59,29c-0.7-0.6-1.6-0.7-2.4-0.2l-9,5.9l-6.2-6.3c-0.7-0.7-1.6-0.8-2.4-0.3
			l-17.4,11C21.6,39.1,21.6,6.6,21.6,6.6z M21.6,43.6l18.1-11.4l4.6,4.6L21.6,51.7V43.6z"/>
	</g>
</g>
</svg>
