<?xml version="1.0" encoding="utf-8"?>
<!-- Generator: Adobe Illustrator 20.1.0, SVG Export Plug-In . SVG Version: 6.00 Build 0)  -->
<svg version="1.1" xmlns="http://www.w3.org/2000/svg" xmlns:xlink="http://www.w3.org/1999/xlink" x="0px" y="0px"
	 viewBox="0 0 90 60" enable-background="new 0 0 90 60" xml:space="preserve">
<g id="Layer_2_1_">
</g>
<g id="Layer_1">
	<path d="M53.038,13.81c-2.096-0.094-2.727-0.114-8.038-0.114s-5.939,0.02-8.035,0.114c-5.395,0.246-7.908,2.802-8.152,8.152
		c-0.097,2.098-0.119,2.727-0.119,8.038s0.022,5.939,0.117,8.038c0.246,5.34,2.75,7.906,8.152,8.152
		c2.096,0.094,2.727,0.117,8.038,0.117c5.313,0,5.942-0.02,8.038-0.114c5.395-0.246,7.906-2.807,8.152-8.152
		c0.094-2.098,0.114-2.727,0.114-8.038s-0.02-5.939-0.114-8.035C60.944,16.615,58.428,14.056,53.038,13.81z M45,40.213
		c-5.641,0-10.213-4.572-10.213-10.213S39.361,19.787,45,19.787S55.213,24.359,55.213,30S50.641,40.213,45,40.213z M55.618,21.771
		c-1.318,0-2.387-1.069-2.387-2.387c0-1.318,1.069-2.387,2.387-2.387c1.318,0,2.387,1.069,2.387,2.387
		C58.005,20.702,56.936,21.771,55.618,21.771z M51.631,30c0,3.662-2.968,6.631-6.631,6.631S38.369,33.662,38.369,30
		s2.968-6.631,6.631-6.631S51.631,26.338,51.631,30z M62.403,0.166H27.597c-6.864,0-12.431,5.566-12.431,12.431v34.806
		c0,6.864,5.566,12.431,12.431,12.431h34.806c6.867,0,12.431-5.566,12.431-12.431V12.597C74.834,5.733,69.27,0.166,62.403,0.166z
		 M64.77,38.199c-0.328,7.232-4.353,11.24-11.568,11.571c-2.123,0.097-2.799,0.119-8.202,0.119s-6.076-0.022-8.199-0.119
		c-7.23-0.331-11.237-4.346-11.571-11.571c-0.097-2.121-0.119-2.797-0.119-8.199c0-5.4,0.022-6.079,0.119-8.199
		c0.333-7.23,4.346-11.24,11.571-11.568c2.123-0.099,2.797-0.122,8.199-0.122s6.079,0.022,8.202,0.119
		c7.23,0.331,11.245,4.353,11.568,11.568c0.097,2.123,0.119,2.802,0.119,8.202C64.889,35.402,64.867,36.079,64.77,38.199z"/>
</g>
</svg>
