<?xml version="1.0" encoding="utf-8"?>
<!-- Generator: Adobe Illustrator 21.1.0, SVG Export Plug-In . SVG Version: 6.00 Build 0)  -->
<svg version="1.1" id="Layer_1" xmlns="http://www.w3.org/2000/svg" xmlns:xlink="http://www.w3.org/1999/xlink" x="0px" y="0px"
	 viewBox="0 0 90 60" style="enable-background:new 0 0 90 60;" xml:space="preserve">
<g id="_x33_._service">
	<g>
		<path d="M43,56.8c-0.3,0-0.6-0.1-0.8-0.4L10.8,19.6c-0.3-0.4-0.3-0.9,0-1.3L22.5,2.9c0.2-0.3,0.5-0.5,0.9-0.5h39.3
			c0.3,0,0.6,0.2,0.8,0.4l11.8,15.5c0.3,0.4,0.3,0.9,0,1.3L43.8,56.4C43.6,56.6,43.3,56.8,43,56.8z M12.9,19L43,54.2l30.1-35.3
			l-11-14.4H23.9L12.9,19z"/>
		<path d="M43,56.7c-0.3,0-0.6-0.1-0.7-0.3L10.8,19.6c-0.3-0.3-0.3-0.8,0-1.2L22.6,2.9c0.2-0.2,0.5-0.4,0.8-0.4h39.3
			c0.3,0,0.6,0.1,0.8,0.4l11.8,15.5c0.3,0.4,0.3,0.9,0,1.2L43.7,56.4C43.6,56.6,43.3,56.7,43,56.7z M12.8,18.9L43,54.2l30.2-35.3
			l-11-14.5H23.9L12.8,18.9z"/>
		<path d="M11.6,20c-0.6,0-1-0.5-1-1s0.5-1,1-1h62.8c0.6,0,1,0.5,1,1s-0.5,1-1,1H11.6z"/>
		<path d="M74.4,19.9H11.6c-0.5,0-1-0.4-1-1c0-0.5,0.4-1,1-1h62.8c0.5,0,1,0.4,1,1S74.9,19.9,74.4,19.9z"/>
		<path d="M43,56.8c-0.1,0-0.2,0-0.3,0c-0.3-0.1-0.5-0.3-0.6-0.5S42,55.8,42,55.5l11.8-36.9c0.1-0.4,0.5-0.7,1-0.7
			c0.1,0,0.2,0,0.3,0c0.3,0.1,0.5,0.3,0.6,0.5s0.1,0.5,0.1,0.8L44,56C43.9,56.5,43.5,56.8,43,56.8z"/>
		<path d="M43,56.7c-0.1,0-0.2,0-0.3,0c-0.5-0.2-0.8-0.7-0.6-1.2l11.8-36.8c0.2-0.5,0.7-0.8,1.2-0.6c0.5,0.2,0.8,0.7,0.6,1.2
			L43.9,56C43.8,56.4,43.4,56.7,43,56.7z"/>
		<path d="M43,56.8c-0.5,0-0.9-0.3-1-0.7L30.2,19.3c-0.1-0.3-0.1-0.5,0.1-0.8c0.1-0.2,0.3-0.4,0.6-0.5c0.1,0,0.2,0,0.3,0
			c0.5,0,0.8,0.3,1,0.7L44,55.4c0.1,0.3,0.1,0.5-0.1,0.8c-0.1,0.2-0.3,0.4-0.6,0.5C43.2,56.7,43.1,56.8,43,56.8z"/>
		<path d="M43,56.7c-0.4,0-0.8-0.3-0.9-0.7L30.3,19.2c-0.2-0.5,0.1-1.1,0.6-1.2c0.5-0.2,1.1,0.1,1.2,0.6l11.8,36.8
			c0.2,0.5-0.1,1.1-0.6,1.2C43.2,56.7,43.1,56.7,43,56.7z"/>
		<path d="M31.2,20c-0.4,0-0.8-0.2-0.9-0.6L22.4,3.9c-0.1-0.2-0.1-0.5-0.1-0.8c0.1-0.3,0.3-0.5,0.5-0.6c0.1-0.1,0.3-0.1,0.5-0.1
			c0.4,0,0.8,0.2,0.9,0.6l7.9,15.5c0.1,0.2,0.1,0.5,0.1,0.8c-0.1,0.3-0.3,0.5-0.5,0.6C31.5,19.9,31.4,20,31.2,20z"/>
		<path d="M31.2,19.9c-0.4,0-0.7-0.2-0.9-0.5L22.5,3.9c-0.2-0.5,0-1.1,0.4-1.3c0.5-0.2,1.1,0,1.3,0.4l7.9,15.5
			c0.2,0.5,0,1.1-0.4,1.3C31.5,19.9,31.4,19.9,31.2,19.9z"/>
		<path d="M31.2,20c-0.2,0-0.4-0.1-0.6-0.2c-0.2-0.2-0.4-0.4-0.4-0.7c0-0.3,0-0.5,0.2-0.8L42.2,2.9c0.2-0.3,0.5-0.5,0.8-0.5
			c0.2,0,0.4,0.1,0.6,0.2C43.8,2.8,44,3.1,44,3.3c0,0.3,0,0.5-0.2,0.8L32.1,19.6C31.9,19.8,31.6,20,31.2,20z"/>
		<path d="M31.2,19.9c-0.2,0-0.4-0.1-0.6-0.2c-0.4-0.3-0.5-0.9-0.2-1.4L42.2,2.9c0.3-0.4,0.9-0.5,1.4-0.2C44,3,44.1,3.6,43.8,4
			L32,19.5C31.8,19.8,31.5,19.9,31.2,19.9z"/>
		<path d="M54.8,20c-0.3,0-0.6-0.1-0.8-0.4L42.2,4.1C42,3.9,41.9,3.6,42,3.3c0-0.3,0.2-0.5,0.4-0.7c0.2-0.1,0.4-0.2,0.6-0.2
			c0.3,0,0.6,0.1,0.8,0.4l11.8,15.5c0.2,0.2,0.2,0.5,0.2,0.8s-0.2,0.5-0.4,0.7C55.2,19.9,55,20,54.8,20z"/>
		<path d="M54.8,19.9c-0.3,0-0.6-0.1-0.8-0.4L42.2,4c-0.3-0.4-0.2-1,0.2-1.4c0.4-0.3,1-0.2,1.4,0.2l11.8,15.5c0.3,0.4,0.2,1-0.2,1.4
			C55.2,19.9,55,19.9,54.8,19.9z"/>
		<path d="M54.8,20c-0.2,0-0.3,0-0.5-0.1s-0.4-0.3-0.5-0.6c-0.1-0.3-0.1-0.5,0.1-0.8L61.8,3c0.2-0.3,0.5-0.6,0.9-0.6
			c0.2,0,0.3,0,0.5,0.1c0.3,0.1,0.4,0.3,0.5,0.6s0.1,0.5-0.1,0.8l-7.9,15.5C55.5,19.8,55.2,20,54.8,20z"/>
		<path d="M54.8,19.9c-0.1,0-0.3,0-0.4-0.1c-0.5-0.2-0.7-0.8-0.4-1.3L61.9,3c0.1-0.4,0.7-0.6,1.2-0.4s0.7,0.8,0.4,1.3l-7.9,15.5
			C55.5,19.7,55.1,19.9,54.8,19.9z"/>
	</g>
</g>
</svg>
