<?xml version="1.0" encoding="utf-8"?>
<!-- Generator: Adobe Illustrator 21.1.0, SVG Export Plug-In . SVG Version: 6.00 Build 0)  -->
<svg version="1.1" id="cacciav-chiave" xmlns="http://www.w3.org/2000/svg" xmlns:xlink="http://www.w3.org/1999/xlink" x="0px"
	 y="0px" viewBox="0 0 57 57" style="enable-background:new 0 0 57 57;" xml:space="preserve">
<path id="chiave" d="M48.2,36.6c-2.2-0.8-4.5-0.8-6.7,0L20.7,15.8C22.4,10.7,19.9,5,14.8,3C12.3,2,9.5,2,7,3
	C6.8,3.2,6.6,3.4,6.5,3.7C6.4,4,6.5,4.3,6.7,4.5l6,6l-4.1,4.1L2.8,8.8C2.6,8.6,2.3,8.5,2,8.5C1.7,8.6,1.4,8.8,1.3,9.1
	c-0.9,2.6-0.8,5.4,0.4,7.8c1.2,2.5,3.3,4.3,5.8,5.2c2.2,0.8,4.5,0.8,6.7,0l7.7,7.7l-9.7,9.7c-0.2,0.2-0.3,0.3-0.5,0.4
	c-0.4,0.3-0.8,0.6-1.3,0.7c-0.3,0.1-0.5,0.2-0.8,0.2c-0.7,0.2-1.5,0.3-2.4,1.2c-2.5,2.5-3.5,6.8-3.5,7c-0.1,0.3,0,0.6,0.2,0.8
	l2.5,2.5c0.2,0.2,0.4,0.3,0.6,0.3c0.1,0,0.1,0,0.2,0c0.2,0,4.5-1,7-3.5c0.8-0.9,1-1.7,1.2-2.4c0.1-0.3,0.1-0.6,0.2-0.8c0,0,0,0,0,0
	c0.2-0.5,0.4-0.9,0.7-1.3c0.1-0.2,0.3-0.3,0.4-0.5l9.7-9.7l8.5,8.5c-0.8,2.4-0.7,4.9,0.3,7.3c1.1,2.5,3,4.5,5.6,5.5
	c1.2,0.5,2.6,0.8,3.9,0.8c1.3,0,2.7-0.3,4-0.8c0.3-0.1,0.5-0.4,0.5-0.7c0.1-0.3,0-0.6-0.2-0.8l-6-6l4.1-4.1L53,50
	c0.2,0.2,0.5,0.3,0.8,0.2c0.3-0.1,0.5-0.3,0.6-0.6C56.3,44.4,53.5,38.5,48.2,36.6z M15.6,42.9c-0.2,0.2-0.4,0.4-0.6,0.6
	c-0.4,0.5-0.8,1.2-1,1.8c-0.2,0.4-0.2,0.8-0.3,1.1c-0.1,0.6-0.2,1-0.7,1.5c-1.7,1.7-4.5,2.6-5.6,2.9l-1.7-1.7
	C6,48,6.9,45.1,8.6,43.5c0.5-0.5,0.9-0.6,1.5-0.7c0.3-0.1,0.7-0.1,1.1-0.3c0.7-0.2,1.3-0.6,1.8-1c0.2-0.2,0.4-0.4,0.6-0.5l9.7-9.7
	l2,2L15.6,42.9z M53.1,47.6l-5.4-5.4c-0.4-0.4-0.9-0.4-1.3,0l-5.4,5.4c-0.2,0.2-0.3,0.4-0.3,0.6s0.1,0.5,0.3,0.6l5.6,5.6
	c-1.7,0.4-3.5,0.3-5.1-0.4c-2.1-0.9-3.7-2.5-4.6-4.5c-0.9-2.1-0.9-4.4,0-6.5c0.1-0.3,0.1-0.7-0.2-1L15.2,20.5
	c-0.2-0.2-0.4-0.3-0.6-0.3c-0.1,0-0.2,0-0.3,0.1c-1.9,0.8-4,0.8-6,0.2c-2.1-0.7-3.8-2.3-4.8-4.3c-0.8-1.6-1-3.3-0.7-5L8,16.5
	c0.2,0.2,0.4,0.3,0.6,0.3c0,0,0,0,0,0c0.2,0,0.5-0.1,0.6-0.3l5.3-5.4c0.3-0.4,0.3-0.9,0-1.3L9,4.3c1.7-0.4,3.4-0.3,5.1,0.4
	c4.3,1.7,6.4,6.7,4.7,11c-0.1,0.3-0.1,0.7,0.2,1l21.6,21.6c0.3,0.3,0.6,0.3,1,0.2c1.9-0.8,4-0.8,6-0.2
	C51.5,39.7,53.8,43.7,53.1,47.6z"/>
<path id="cacciav" d="M54.6,6.1l-3.9-3.9c-2-2-5.2-2.2-7.5-0.5l-2.3,1.8c-2.8,2.1-5.1,4.9-6.4,8.2l-0.3,0.7c-1.2,2-2.9,3.7-4.9,4.9
	l-1.9,1.2c-0.2,0.1-0.4,0.4-0.4,0.7c0,0.3,0.1,0.6,0.3,0.7l9.8,9.8c0.2,0.2,0.4,0.3,0.6,0.3c0,0,0.1,0,0.1,0c0.3,0,0.5-0.2,0.7-0.4
	l1.1-1.9c1.2-2,2.9-3.7,4.9-4.9l0.8-0.3c3.2-1.4,6.1-3.6,8.2-6.4l1.7-2.3C56.8,11.3,56.6,8.1,54.6,6.1z M53.7,12.5l-1.7,2.3
	c-1.9,2.6-4.5,4.6-7.4,5.8L43.7,21c0,0-0.1,0-0.1,0.1c-2.3,1.4-4.2,3.3-5.6,5.6l-0.6,0.9l-8.2-8.2l1-0.6c2.3-1.4,4.2-3.3,5.5-5.6
	c0,0,0-0.1,0.1-0.1l0.3-0.8c1.3-3,3.3-5.5,5.9-7.5L44.2,3c1.6-1.2,3.8-1,5.1,0.4l3.9,3.9C54.7,8.7,54.8,10.9,53.7,12.5z"/>
</svg>
