<?xml version="1.0" encoding="utf-8"?>
<!-- Generator: Adobe Illustrator 21.0.0, SVG Export Plug-In . SVG Version: 6.00 Build 0)  -->
<svg version="1.1" id="Livello_1" xmlns="http://www.w3.org/2000/svg" xmlns:xlink="http://www.w3.org/1999/xlink" x="0px" y="0px"
	 viewBox="0 0 90 60" style="enable-background:new 0 0 90 60;" xml:space="preserve">
<g id="Layer_1_1_">
	<path d="M45.1,19.5h-4.8v-5.8h4.8c1.4,0,2.4,0.2,3.1,0.7c0.7,0.5,1,1.2,1,2.3C49.2,18.6,47.9,19.5,45.1,19.5z"/>
	<path d="M50.5,26c0,1.2-0.4,2-1.1,2.5c-0.7,0.4-1.8,0.6-3.2,0.6h-5.9V23h5.4C48.9,23,50.5,24,50.5,26z"/>
	<path d="M45,0.2c-10.4,0-19.9,8.5-19.9,18.9c0,10.4,8.6,22.9,19.9,40.7C56.3,42,64.9,29.5,64.9,19.1C64.9,8.6,55.4,0.2,45,0.2z
		 M52.8,30.5c-1.3,1.4-3.4,2.1-6.5,2.1h-9.8V10.2h8.7c1.5,0,2.8,0.2,3.9,0.6c1.1,0.4,1.9,0.8,2.5,1.5c1,1.2,1.5,2.5,1.5,3.9
		c0,1.8-0.6,3.1-1.7,3.9c-0.4,0.3-0.7,0.5-0.8,0.6c-0.2,0.1-0.4,0.2-0.8,0.4c1.4,0.3,2.5,0.9,3.3,1.9c0.8,1,1.2,2.1,1.2,3.5
		C54.4,27.9,53.9,29.3,52.8,30.5z"/>
</g>
</svg>
