<?xml version="1.0" encoding="utf-8"?>
<!-- Generator: Adobe Illustrator 15.1.0, SVG Export Plug-In . SVG Version: 6.00 Build 0)  -->
<!DOCTYPE svg PUBLIC "-//W3C//DTD SVG 1.1//EN" "http://www.w3.org/Graphics/SVG/1.1/DTD/svg11.dtd">
<svg version="1.1" id="Layer_1" xmlns="http://www.w3.org/2000/svg" xmlns:xlink="http://www.w3.org/1999/xlink" x="0px" y="0px"
	 width="202.2px" height="50.1px" viewBox="13.16 83.4 202.2 50.1" enable-background="new 13.16 83.4 202.2 50.1"
	 xml:space="preserve">
<g id="Layer_1_1_">
</g>
<g id="Layer_3">
	<g>
		<g>
			<path fill="#002D62" d="M81.54,92.523c-1.2,0-2.104,0.905-2.104,2.104v12.56c0,4.229-2.328,6.757-6.225,6.757
				c-3.896,0-6.225-2.527-6.225-6.757v-12.56c0-1.198-0.906-2.104-2.104-2.104c-1.173,0-2.057,0.905-2.057,2.104v12.959
				c0,6.18,4.048,10.34,10.072,10.34h0.625c6.024,0,10.072-4.16,10.072-10.34V94.627C83.596,93.429,82.712,92.523,81.54,92.523"/>
			<path fill="#002D62" d="M169.715,92.523c-1.193,0-2.102,0.905-2.102,2.104v12.56c0,4.229-2.328,6.757-6.225,6.757
				s-6.225-2.527-6.225-6.757v-12.56c0-1.198-0.904-2.104-2.104-2.104c-1.175,0-2.06,0.905-2.06,2.104v12.959
				c0,6.18,4.049,10.34,10.074,10.34h0.625c6.021,0,10.067-4.16,10.067-10.34V94.627C171.771,93.429,170.887,92.523,169.715,92.523"
				/>
			<path fill="#002D62" d="M99.329,92.166h-0.621c-6.025,0-10.073,4.156-10.073,10.344v12.955c0,1.199,0.884,2.102,2.062,2.102
				c1.195,0,2.103-0.9,2.103-2.102v-12.553c0-4.234,2.322-6.76,6.223-6.76c3.896,0,6.227,2.525,6.227,6.76v12.553
				c0,1.199,0.9,2.102,2.1,2.102c1.174,0,2.059-0.9,2.059-2.102V102.51C109.407,96.322,105.36,92.166,99.329,92.166"/>
			<path fill="#002D62" d="M116.519,92.523c-1.152,0-2.057,0.926-2.057,2.104v20.838c0,1.199,0.904,2.104,2.104,2.104
				c1.172,0,2.061-0.904,2.061-2.104V94.627C118.626,93.429,117.718,92.523,116.519,92.523"/>
			<path fill="#002D62" d="M116.519,83.471c-1.301,0-2.324,1.023-2.324,2.328v0.758c0,1.305,1.023,2.324,2.324,2.324
				c1.309,0,2.371-1.043,2.371-2.324v-0.758C118.89,84.519,117.827,83.471,116.519,83.471"/>
			<path fill="#002D62" d="M134.984,92.166c-6.604,0-11.771,5.643-11.771,12.838v0.092c0,7.313,5.219,12.83,12.123,12.83
				c3.91,0,6.771-1.191,9.563-3.986c0.537-0.531,0.646-1.09,0.646-1.457c0-1.109-0.924-2.014-2.058-2.014
				c-0.541,0-1.012,0.203-1.405,0.594c-1.981,1.938-4.099,2.832-6.654,2.832c-3.307,0-6.995-2.186-7.797-6.967h16.701
				c1.099,0,2.06-0.939,2.06-2.014C146.391,97.528,141.592,92.166,134.984,92.166 M134.893,96.152c3,0,6.32,1.822,7.051,6.838
				h-14.297C128.373,98.971,131.293,96.152,134.893,96.152"/>
			<path fill="#002D62" d="M202.701,92.166c-7.125,0-12.701,5.662-12.701,12.883v0.088c0,7.17,5.539,12.789,12.611,12.789
				c7.121,0,12.701-5.656,12.701-12.877v-0.09C215.313,97.789,209.773,92.166,202.701,92.166 M202.701,113.895
				c-4.688,0-8.357-3.885-8.357-8.846v-0.09c0-4.994,3.553-8.762,8.268-8.762c4.693,0,8.361,3.887,8.361,8.852v0.088
				C210.973,110.129,207.418,113.895,202.701,113.895"/>
			<path fill="#002D62" d="M187.604,92.528c-0.172-0.015-0.699-0.005-0.699-0.005c-6.023,0.002-10.07,4.157-10.07,10.344v12.598
				c0,1.199,0.883,2.105,2.059,2.105c1.197,0,2.102-0.906,2.102-2.105V103.27c0-4.336,2.299-6.881,6.158-6.762h0.105
				c1.164,0,1.953-0.617,2.119-1.652c0.084-0.586-0.063-1.172-0.41-1.609C188.633,92.822,188.15,92.57,187.604,92.528"/>
		</g>
		<g>
			<g>
				<path fill="#002D62" d="M68.49,126.48c0.72-0.32,1.46-0.939,1.46-2.141v-0.031c0-0.59-0.21-1.078-0.59-1.479
					c-0.53-0.51-1.36-0.82-2.42-0.82h-3.41c-0.28,0-0.52,0.24-0.52,0.531v8.189c0,0.289,0.24,0.52,0.52,0.52h3.59
					c2.02,0,3.35-0.93,3.35-2.52v-0.02C70.47,127.439,69.58,126.811,68.49,126.48z M64.04,122.951h2.81c1.32,0,2.05,0.6,2.05,1.51
					v0.02c0,1.09-0.87,1.65-2.13,1.65h-2.73V122.951z M69.41,128.67c0,1.031-0.87,1.65-2.27,1.65h-3.1v-3.26h2.92
					c1.61,0,2.45,0.58,2.45,1.58V128.67z"/>
				<path fill="#002D62" d="M77.15,125.09c-0.5-0.5-1.24-0.75-2.21-0.75c-0.87,0-1.55,0.17-2.23,0.461
					c-0.13,0.049-0.27,0.209-0.27,0.42c0,0.24,0.21,0.439,0.44,0.439c0.06,0,0.12-0.021,0.19-0.039c0.5-0.23,1.08-0.381,1.77-0.381
					c1.28,0,2.03,0.631,2.03,1.859v0.23c-0.61-0.17-1.23-0.291-2.1-0.291c-1.73,0-2.92,0.77-2.92,2.211v0.02
					c0,1.4,1.28,2.131,2.55,2.131c1.2,0,2-0.561,2.47-1.182v0.621c0,0.27,0.2,0.479,0.49,0.479c0.28,0,0.49-0.209,0.49-0.5v-3.738
					C77.85,126.211,77.61,125.551,77.15,125.09z M76.88,128.75c0,1.08-1.03,1.84-2.28,1.84c-0.92,0-1.72-0.5-1.72-1.359v-0.02
					c0-0.861,0.72-1.41,2-1.41c0.83,0,1.5,0.141,2,0.289V128.75z"/>
				<path fill="#002D62" d="M80.303,129.445v-4.117h-0.555c-0.237,0-0.449-0.211-0.449-0.449c0-0.25,0.211-0.449,0.449-0.449h0.555
					v-1.609c0-0.277,0.211-0.516,0.501-0.516c0.277,0,0.515,0.238,0.515,0.516v1.609h1.769c0.251,0,0.462,0.211,0.462,0.449
					c0,0.25-0.211,0.447-0.462,0.447h-1.769v3.986c0,0.832,0.462,1.137,1.148,1.137c0.356,0,0.541-0.094,0.62-0.094
					c0.238,0,0.436,0.197,0.436,0.436c0,0.186-0.119,0.33-0.291,0.396c-0.29,0.119-0.607,0.186-1.003,0.186
					C81.134,131.373,80.303,130.832,80.303,129.445z"/>
				<path fill="#002D62" d="M85.636,129.445v-4.117h-0.555c-0.237,0-0.449-0.211-0.449-0.449c0-0.25,0.211-0.449,0.449-0.449h0.555
					v-1.609c0-0.277,0.211-0.516,0.501-0.516c0.277,0,0.515,0.238,0.515,0.516v1.609h1.769c0.251,0,0.462,0.211,0.462,0.449
					c0,0.25-0.211,0.447-0.462,0.447h-1.769v3.986c0,0.832,0.462,1.137,1.148,1.137c0.356,0,0.541-0.094,0.62-0.094
					c0.238,0,0.436,0.197,0.436,0.436c0,0.186-0.119,0.33-0.291,0.396c-0.29,0.119-0.607,0.186-1.003,0.186
					C86.467,131.373,85.636,130.832,85.636,129.445z"/>
				<path fill="#002D62" d="M96.43,127.74c0-1.811-1.15-3.449-3.17-3.449c-1.88,0-3.27,1.58-3.27,3.539v0.029
					c0,2.109,1.53,3.551,3.41,3.551c1.16,0,1.92-0.41,2.57-1.029c0.11-0.09,0.16-0.211,0.16-0.33c0-0.23-0.2-0.43-0.45-0.43
					c-0.12,0-0.21,0.049-0.29,0.119c-0.5,0.461-1.12,0.789-1.97,0.789c-1.21,0-2.25-0.828-2.4-2.311h4.94
					C96.21,128.221,96.43,128.02,96.43,127.74z M91.02,127.471c0.13-1.34,1.03-2.33,2.22-2.33c1.36,0,2.07,1.09,2.18,2.33H91.02z"/>
				<path fill="#002D62" d="M98.584,129.803c0.356,0,0.62,0.264,0.62,0.621v0.264c0,0.355-0.264,0.633-0.62,0.633
					c-0.37,0-0.634-0.275-0.634-0.633v-0.264C97.951,130.066,98.215,129.803,98.584,129.803z"/>
			</g>
			<g>
				<path fill="#002D62" d="M113.381,122.543c0-0.291,0.238-0.527,0.515-0.527h5.715c0.264,0,0.475,0.211,0.475,0.477
					c0,0.264-0.211,0.486-0.475,0.486h-5.187v3.301h4.593c0.264,0,0.476,0.211,0.476,0.475s-0.211,0.477-0.476,0.477h-4.593v3.563
					c0,0.291-0.238,0.527-0.528,0.527c-0.277,0-0.515-0.236-0.515-0.527V122.543z"/>
				<path fill="#002D62" d="M124.811,124.291c-2.061,0-3.561,1.629-3.561,3.559v0.031c0,1.92,1.49,3.529,3.54,3.529
					s3.569-1.631,3.569-3.561v-0.029C128.359,125.9,126.859,124.291,124.811,124.291z M127.32,127.881
					c0,1.43-1.03,2.619-2.512,2.619c-1.438,0-2.52-1.189-2.52-2.65v-0.029c0-1.439,1.02-2.641,2.5-2.641
					c1.43,0,2.529,1.199,2.529,2.67v0.031H127.32z"/>
				<path fill="#002D62" d="M130.197,124.879c0-0.277,0.225-0.514,0.502-0.514c0.291,0,0.515,0.225,0.515,0.514v1.281
					c0.501-1.137,1.491-1.822,2.351-1.822c0.304,0,0.5,0.225,0.5,0.516c0,0.277-0.185,0.475-0.447,0.516
					c-1.319,0.156-2.402,1.146-2.402,3.113v2.322c0,0.277-0.211,0.516-0.501,0.516c-0.291,0-0.516-0.225-0.516-0.516
					L130.197,124.879L130.197,124.879z"/>
				<path fill="#002D62" d="M135.9,129.445v-4.117h-0.555c-0.238,0-0.449-0.211-0.449-0.449c0-0.25,0.211-0.449,0.449-0.449h0.555
					v-1.609c0-0.277,0.211-0.516,0.502-0.516c0.275,0,0.514,0.238,0.514,0.516v1.609h1.77c0.25,0,0.461,0.211,0.461,0.449
					c0,0.25-0.211,0.447-0.461,0.447h-1.77v3.986c0,0.832,0.463,1.137,1.148,1.137c0.355,0,0.541-0.094,0.621-0.094
					c0.236,0,0.436,0.197,0.436,0.436c0,0.186-0.119,0.33-0.291,0.396c-0.29,0.119-0.607,0.186-1.003,0.186
					C136.73,131.373,135.9,130.832,135.9,129.445z"/>
				<path fill="#002D62" d="M146.7,127.74c0-1.811-1.15-3.449-3.171-3.449c-1.891,0-3.271,1.58-3.271,3.539v0.029
					c0,2.109,1.53,3.551,3.4,3.551c1.159,0,1.93-0.41,2.569-1.029c0.109-0.09,0.16-0.211,0.16-0.33c0-0.23-0.189-0.43-0.449-0.43
					c-0.11,0-0.211,0.049-0.291,0.119c-0.5,0.461-1.119,0.789-1.959,0.789c-1.222,0-2.262-0.828-2.4-2.311h4.93
					C146.471,128.221,146.7,128.02,146.7,127.74z M141.29,127.471c0.13-1.34,1.021-2.33,2.21-2.33c1.359,0,2.07,1.09,2.18,2.33
					H141.29z"/>
				<path fill="#002D62" d="M148.85,129.803c0.355,0,0.619,0.264,0.619,0.621v0.264c0,0.355-0.264,0.633-0.619,0.633
					c-0.369,0-0.635-0.275-0.635-0.633v-0.264C148.215,130.066,148.479,129.803,148.85,129.803z"/>
			</g>
			<g>
				<path fill="#002D62" d="M163.314,130.146c-0.117-0.08-0.197-0.225-0.197-0.396c0-0.289,0.225-0.516,0.502-0.516
					c0.132,0,0.251,0.055,0.316,0.119c0.871,0.74,1.741,1.098,2.918,1.098c1.239,0,2.059-0.66,2.059-1.572v-0.025
					c0-0.857-0.463-1.346-2.402-1.756c-2.125-0.461-3.102-1.146-3.102-2.666v-0.027c0-1.449,1.279-2.52,3.035-2.52
					c1.215,0,2.1,0.303,2.943,0.91c0.104,0.08,0.225,0.225,0.225,0.422c0,0.277-0.225,0.502-0.502,0.502
					c-0.118,0-0.211-0.025-0.303-0.092c-0.779-0.568-1.531-0.807-2.39-0.807c-1.201,0-1.967,0.66-1.967,1.492v0.025
					c0,0.871,0.475,1.359,2.508,1.795c2.06,0.449,3.009,1.201,3.009,2.613v0.025c0,1.584-1.318,2.613-3.154,2.613
					C165.467,131.387,164.346,130.965,163.314,130.146z"/>
				<path fill="#002D62" d="M177.939,127.74c0-1.811-1.149-3.449-3.17-3.449c-1.881,0-3.271,1.58-3.271,3.539v0.029
					c0,2.109,1.53,3.551,3.41,3.551c1.159,0,1.92-0.41,2.569-1.029c0.101-0.09,0.16-0.211,0.16-0.33c0-0.23-0.199-0.43-0.449-0.43
					c-0.121,0-0.211,0.049-0.291,0.119c-0.5,0.461-1.119,0.789-1.971,0.789c-1.21,0-2.26-0.828-2.398-2.311h4.938
					C177.721,128.221,177.939,128.02,177.939,127.74z M172.529,127.471c0.131-1.34,1.029-2.33,2.221-2.33
					c1.359,0,2.07,1.09,2.17,2.33H172.529z"/>
				<path fill="#002D62" d="M179.736,124.879c0-0.277,0.225-0.514,0.502-0.514c0.291,0,0.515,0.225,0.515,0.514v0.699
					c0.448-0.674,1.056-1.293,2.204-1.293c1.109,0,1.82,0.594,2.191,1.359c0.487-0.754,1.213-1.359,2.401-1.359
					c1.57,0,2.534,1.057,2.534,2.744v3.775c0,0.291-0.225,0.516-0.502,0.516c-0.29,0-0.516-0.225-0.516-0.516v-3.537
					c0-1.318-0.66-2.059-1.769-2.059c-1.028,0-1.874,0.766-1.874,2.109v3.484c0,0.291-0.225,0.516-0.516,0.516
					c-0.277,0-0.502-0.225-0.502-0.516v-3.563c0-1.279-0.672-2.031-1.754-2.031c-1.084,0-1.901,0.896-1.901,2.15v3.443
					c0,0.291-0.211,0.516-0.501,0.516c-0.291,0-0.516-0.225-0.516-0.516v-5.924H179.736z"/>
				<path fill="#002D62" d="M195.92,124.291c-1.25,0-2.061,0.689-2.609,1.51v-0.92c0-0.291-0.229-0.521-0.521-0.521
					c-0.28,0-0.5,0.23-0.5,0.521v8.039c0,0.291,0.22,0.51,0.51,0.51s0.511-0.219,0.511-0.51v-2.969
					c0.521,0.76,1.34,1.449,2.609,1.449c1.65,0,3.26-1.32,3.26-3.551v-0.029C199.18,125.58,197.561,124.291,195.92,124.291z
					 M198.141,127.859c0,1.65-1.091,2.631-2.41,2.631c-1.26,0-2.461-1.061-2.461-2.641v-0.029c0-1.561,1.201-2.619,2.461-2.619
					c1.301,0,2.41,1.029,2.41,2.629V127.859z"/>
				<path fill="#002D62" d="M201.055,124.879c0-0.277,0.225-0.514,0.502-0.514c0.289,0,0.514,0.225,0.514,0.514v1.281
					c0.503-1.137,1.492-1.822,2.351-1.822c0.304,0,0.501,0.225,0.501,0.516c0,0.277-0.186,0.475-0.447,0.516
					c-1.32,0.156-2.402,1.146-2.402,3.113v2.322c0,0.277-0.211,0.516-0.502,0.516c-0.29,0-0.516-0.225-0.516-0.516V124.879
					L201.055,124.879z"/>
				<path fill="#002D62" d="M212.13,127.74c0-1.811-1.149-3.449-3.17-3.449c-1.89,0-3.271,1.58-3.271,3.539v0.029
					c0,2.109,1.529,3.551,3.399,3.551c1.16,0,1.931-0.41,2.58-1.029c0.101-0.09,0.16-0.211,0.16-0.33c0-0.23-0.2-0.43-0.45-0.43
					c-0.12,0-0.21,0.049-0.29,0.119c-0.51,0.461-1.13,0.789-1.97,0.789c-1.221,0-2.26-0.828-2.4-2.311h4.932
					C211.9,128.221,212.13,128.02,212.13,127.74z M206.721,127.471c0.129-1.34,1.029-2.33,2.209-2.33c1.36,0,2.08,1.09,2.182,2.33
					H206.721z"/>
				<path fill="#002D62" d="M214.279,129.803c0.357,0,0.621,0.264,0.621,0.621v0.264c0,0.355-0.264,0.633-0.621,0.633
					c-0.368,0-0.633-0.275-0.633-0.633v-0.264C213.646,130.066,213.911,129.803,214.279,129.803z"/>
			</g>
		</g>
		<path fill="#FF9933" d="M15.505,106.867c-1.747-3.281-2.719-10.298-2.095-13.607c0.568-3.03,2.844-5.574,6.781-5.574
			c3.941,0,6.212,2.544,6.786,5.574c0.622,3.31-0.353,10.326-2.099,13.607c-1.276,2.399-3.713,2.565-4.686,2.565
			S16.782,109.267,15.505,106.867 M32.802,122.715c6.965-0.48,12.671-4.494,16.944-11.963c2.613-4.564,3.625-9.193,3.871-13.002
			c0.189-2.922-0.082-5.406-0.327-6.746c-0.651-3.535-3.697-7.099-9.245-7.099c-5.091,0-9.007,3.604-9.254,8.906
			c-0.31,6.664,0.123,15.983-6.008,20.39c-1.882,1.352-4.448,2.283-4.477,5.053C24.268,122.328,29.887,122.918,32.802,122.715"/>
	</g>
</g>
<g id="Layer_2_1_">
</g>
</svg>
