<?xml version="1.0" encoding="utf-8"?>
<!-- Generator: Adobe Illustrator 21.0.0, SVG Export Plug-In . SVG Version: 6.00 Build 0)  -->
<svg version="1.1" id="Layer_1" xmlns="http://www.w3.org/2000/svg" xmlns:xlink="http://www.w3.org/1999/xlink" x="0px" y="0px"
	 viewBox="0 0 90 60" style="enable-background:new 0 0 90 60;" xml:space="preserve">
<g transform="translate(1 1)">
	<g>
		<path d="M69.3,1.9H18.7c-1.1,0-1.8,0.8-1.8,1.8v50.5c0,1.1,0.8,1.8,1.8,1.8h50.5c1.1,0,1.8-0.8,1.8-1.8V3.7
			C71.1,2.7,70.3,1.9,69.3,1.9z M39.3,5.6h19.6L39.3,25.2V5.6z M20.6,5.6h7.5v7.5h-7.5V5.6z M20.6,43.9V24.3h7.5v12L20.6,43.9z
			 M67.4,52.4H29.1l24.3-24.3l14,13.9V52.4z M67.4,24.6l-5.3-5.2l5.3-5.4V24.6z M67.4,8.9l-9.2,9.3c-0.4,0.4-0.5,0.8-0.5,1.3
			s0.2,0.9,0.5,1.3l9.2,9v7L54.7,24.2c-0.4-0.4-0.8-0.5-1.3-0.5c-0.5,0-0.9,0.2-1.3,0.5L23.9,52.4h-3.3v-3.3l10.7-10.7
			c0.4-0.4,0.5-0.8,0.5-1.3V22.5c0-1-0.8-1.9-1.8-1.9h-9.4v-3.8H30c1.1,0,1.8-0.8,1.8-1.8V5.6h3.8v24c0,0.7,0.4,1.3,1.1,1.7
			c0.3,0.1,0.5,0.2,0.8,0.2c0.5,0,0.9-0.2,1.3-0.5L64.1,5.6h3.3V8.9z"/>
	</g>
</g>
</svg>
