<?xml version="1.0" encoding="utf-8"?>
<!-- Generator: Adobe Illustrator 15.1.0, SVG Export Plug-In . SVG Version: 6.00 Build 0)  -->
<!DOCTYPE svg PUBLIC "-//W3C//DTD SVG 1.1//EN" "http://www.w3.org/Graphics/SVG/1.1/DTD/svg11.dtd">
<svg version="1.1" xmlns="http://www.w3.org/2000/svg" xmlns:xlink="http://www.w3.org/1999/xlink" x="0px" y="0px" width="90px"
	 height="60px" viewBox="0 0 90 60" enable-background="new 0 0 90 60" xml:space="preserve">
<g id="Layer_2">
</g>
<g id="Layer_1">
	<g>
		<path d="M18.869,48.99c-2.101,0-3.809-1.709-3.809-3.809c0-1.006,0.392-1.947,1.104-2.652c0.716-0.709,1.677-1.099,2.705-1.099
			h52.323c2.139,0,3.75,1.611,3.75,3.751c0,2.135-1.646,3.809-3.75,3.809H18.869z"/>
		<path d="M18.869,33.779c-2.136,0-3.809-1.674-3.809-3.811c0-2.136,1.673-3.809,3.809-3.809h52.323c2.139,0,3.75,1.637,3.75,3.809
			c0,2.174-1.611,3.811-3.75,3.811H18.869z"/>
		<path d="M18.869,18.51c-2.171,0-3.809-1.587-3.809-3.69c0-2.138,1.673-3.81,3.809-3.81h52.262c2.139,0,3.75,1.638,3.75,3.81
			c0,2.139-1.576,3.69-3.75,3.69H18.869z"/>
	</g>
</g>
</svg>
