<?xml version="1.0" encoding="utf-8"?>
<!-- Generator: Adobe Illustrator 15.1.0, SVG Export Plug-In . SVG Version: 6.00 Build 0)  -->
<!DOCTYPE svg PUBLIC "-//W3C//DTD SVG 1.1//EN" "http://www.w3.org/Graphics/SVG/1.1/DTD/svg11.dtd">
<svg version="1.1" id="Layer_1" xmlns="http://www.w3.org/2000/svg" xmlns:xlink="http://www.w3.org/1999/xlink" x="0px" y="0px"
	 width="90px" height="60px" viewBox="0 0 90 60" enable-background="new 0 0 90 60" xml:space="preserve">
<path d="M78.357,0.227H11.65C5.228,0.227,0,5.454,0,11.876v36.248c0,6.422,5.228,11.649,11.65,11.649h66.707
	C84.782,59.773,90,54.546,90,48.124V11.876C90,5.454,84.782,0.227,78.357,0.227z M11.65,8.053h66.707
	c0.808,0,1.585,0.269,2.222,0.737L47.737,29.442c-0.646,0.408-1.673,0.647-2.739,0.647c-1.053,0-2.08-0.239-2.728-0.647L9.431,8.791
	C10.067,8.322,10.844,8.053,11.65,8.053z M82.171,41.681L62.308,29.522l19.863-12.487V41.681z M7.827,17.035l19.866,12.487
	L7.827,41.681V17.035z M78.357,51.949H11.65c-1.215,0-2.34-0.61-3.047-1.564l26.488-16.212l3.007,1.89
	c1.902,1.198,4.354,1.855,6.899,1.855c2.559,0,5.011-0.657,6.913-1.855l3.006-1.89l26.489,16.222
	C80.71,51.361,79.593,51.949,78.357,51.949z"/>
</svg>
