<?xml version="1.0" encoding="utf-8"?>
<!-- Generator: Adobe Illustrator 15.1.0, SVG Export Plug-In . SVG Version: 6.00 Build 0)  -->
<!DOCTYPE svg PUBLIC "-//W3C//DTD SVG 1.1//EN" "http://www.w3.org/Graphics/SVG/1.1/DTD/svg11.dtd">
<svg version="1.1" id="Layer_1" xmlns="http://www.w3.org/2000/svg" xmlns:xlink="http://www.w3.org/1999/xlink" x="0px" y="0px"
	 width="90px" height="60px" viewBox="0 0 90 60" enable-background="new 0 0 90 60" xml:space="preserve">
<g id="Layer_2">
</g>
<g>
	<g>
		<path d="M73.67,45.41l-0.21-0.21c-2.89-2.721-6.17-5.801-6.17-18.141c0-0.109-0.09-11.27-7.71-18.35
			c-2.56-2.37-5.569-3.95-8.96-4.71c-0.39-2.12-2.76-3.76-5.61-3.76c-2.91,0-5.311,1.7-5.641,3.88c-3.45,0.78-6.479,2.37-9.01,4.74
			c-7.54,7.06-7.63,18.149-7.63,18.26c0,12.159-3.271,15.3-6.16,18.08l-0.03,0.029c-1.8,1.53-2.43,4.07-1.56,6.34l0.09,0.2
			c0.95,2.09,3.03,3.44,5.29,3.44h17.1c1.48,2.63,4.311,4.55,7.551,4.55c3.24,0,6.07-1.92,7.55-4.55h17.17
			c2.33,0,4.47-1.46,5.31-3.641C75.84,49.479,75.311,47.069,73.67,45.41z M23.44,48.21c3.09-3.38,6.29-8.72,6.29-21.06
			c0-0.08,0.3-8.391,5.41-13.181c1.699-1.59,3.779-2.64,6.159-3.109c0.881-0.17,1.79-0.271,2.711-0.29l0.47-0.011l0.42-0.13
			c1.371-0.04,2.661,0.07,3.88,0.33c2.34,0.48,4.32,1.49,6.05,3.08c5.141,4.79,5.46,13.17,5.46,13.22
			c0,12.45,3.181,17.8,6.271,21.15H23.44z"/>
	</g>
</g>
</svg>
