<?xml version="1.0" encoding="utf-8"?>
<!-- Generator: Adobe Illustrator 21.0.0, SVG Export Plug-In . SVG Version: 6.00 Build 0)  -->
<svg version="1.1" id="Layer_1" xmlns="http://www.w3.org/2000/svg" xmlns:xlink="http://www.w3.org/1999/xlink" x="0px" y="0px"
	 viewBox="0 0 90 60" style="enable-background:new 0 0 90 60;" xml:space="preserve">
<g>
	<g>
		<path d="M86.7,32.6H68.6v-8.4c0-1.1,0.9-2,2-2c0.6,0,1.1-0.2,1.4-0.6c0.4-0.4,0.6-0.9,0.6-1.4V3.5c0-1.1-0.9-2-2-2H56.8V1.4H4.4
			c-1.1,0-2,0.9-2,2v16.7c0,1.1,0.9,2,2,2c0.5,0,1,0.2,1.4,0.6c0.4,0.4,0.6,0.9,0.6,1.4v32.4c0,1.1,0.9,2,2,2h76.4
			c0.5,0,0.9-0.4,0.9-0.9V43c0-0.5,0.4-0.9,0.9-0.9s0.9-0.4,0.9-0.9v-7.6C87.7,33,87.2,32.6,86.7,32.6z M47.3,8.3c0-1.1,0.9-2,2-2
			h16.5c1.1,0,2,0.9,2,2v7.1c0.1,1.1-0.8,2-1.9,2H49.3c-1.1,0-2-0.9-2-2V8.3z M27.8,51.7c0,1.1-0.9,2-2,2H13.3c-1.1,0-2-0.9-2-2
			V24.2c0-1.1,0.9-2,2-2h12.5c1.1,0,2,0.9,2,2V51.7z M27.9,15.4c0,1.1-1,2-2.1,2H9.3c-1.1,0-2-0.9-2-2V8.3c0-1.1,0.9-2,2-2h16.6
			c1.1,0,2,0.9,2,2V15.4z M42.4,51.7c0,1.1-0.9,2-2,2h-5.6c-1.1,0-2-0.9-2-2V8.3c0-1.1,0.9-2,2-2h5.6c1.1,0,2,0.9,2,2V51.7z
			 M57.4,53.7h-8.1c-1.1,0-2-0.9-2-2V24.2c0-1.1,0.9-2,2-2h12.5c1.1,0,2,0.9,2,2v8.4h-7.3c-0.5,0-0.9,0.4-0.9,0.9v7.6
			c0,0.5,0.4,0.9,0.9,0.9s0.9,0.4,0.9,0.9V53.7z M83.6,55.5c0,0.5-0.4,0.9-0.9,0.9H60.6c-0.5,0-0.9-0.4-0.9-0.9V43
			c0-0.5,0.4-0.9,0.9-0.9h22.1c0.5-0.1,0.9,0.3,0.9,0.9V55.5z M85.4,39c0,0.5-0.4,0.9-0.9,0.9H58.7c-0.5,0-0.9-0.4-0.9-0.9v-3.2
			c0-0.5,0.4-0.9,0.9-0.9h25.8c0.5,0,0.9,0.4,0.9,0.9V39z"/>
	</g>
</g>
</svg>
