<?xml version="1.0" encoding="utf-8"?>
<!-- Generator: Adobe Illustrator 15.1.0, SVG Export Plug-In . SVG Version: 6.00 Build 0)  -->
<!DOCTYPE svg PUBLIC "-//W3C//DTD SVG 1.1//EN" "http://www.w3.org/Graphics/SVG/1.1/DTD/svg11.dtd">
<svg version="1.1" xmlns="http://www.w3.org/2000/svg" xmlns:xlink="http://www.w3.org/1999/xlink" x="0px" y="0px" width="90px"
	 height="60px" viewBox="0 0 90 60" enable-background="new 0 0 90 60" xml:space="preserve">
<g id="Layer_1">
	<path d="M94.51,44.95c-0.002-0.04-0.003-0.081-0.003-0.122v-0.502L94.51,44.95z"/>
</g>
<g id="Layer_2">
	<g>
		<g>
			<path d="M73.095,3.11c-1.95-1.939-4.51-3.01-7.229-3.01H14.975c-2.71,0-5.28,1.07-7.22,3.01c-1.95,1.95-3.02,4.51-3.02,7.23
				v32.25c0,2.72,1.07,5.28,3.02,7.229c1.94,1.94,4.51,3.011,7.22,3.011h41.08v-8.08h-41.37c-1.1,0-1.96-0.87-1.96-1.97V21.33h55.96
				v2.271h7.42v-13.26C76.104,7.62,75.035,5.061,73.095,3.11z M12.635,10.221c0.01-1.09,0.87-1.94,1.96-1.94h51.94
				c1.09,0,1.949,0.851,1.96,1.94H12.635z"/>
		</g>
		<g>
			<path d="M82.145,41.551c0-0.38,0.09-0.66,0.09-1.04v-5.479c0-4.73-3.88-8.61-8.609-8.61h-3.21c-4.74,0-8.61,3.88-8.61,8.61v5.479
				c0,0.38,0,0.66,0.09,1.04c-1.8,0.38-3.12,1.99-3.12,3.88v10.5c0,2.18,1.801,3.97,3.971,3.97h18.54c2.18,0,3.979-1.79,3.979-3.97
				v-10.5C85.265,43.631,83.935,42.031,82.145,41.551z M73.345,51.11c-0.19,0.091-0.19,0.28-0.19,0.471v2.84
				c0,0.28-0.119,0.57-0.319,0.78s-0.49,0.35-0.82,0.35c-0.66,0-1.13-0.47-1.13-1.13v-2.84c0-0.19,0-0.28-0.19-0.471
				c-0.85-0.659-1.14-1.71-0.67-2.649c0.391-0.95,1.42-1.42,2.37-1.23c1.04,0.19,1.8,1.04,1.8,2.17
				C74.285,50.07,73.904,50.73,73.345,51.11z M77.975,40.511h-0.09c0,0.29,0,0.66-0.1,0.95h-11.44c-0.1-0.29-0.1-0.66-0.1-0.95
				v-5.479c0-2.37,1.89-4.261,4.26-4.261h3.22c2.36,0,4.25,1.891,4.25,4.261V40.511z"/>
		</g>
	</g>
</g>
</svg>
