<?xml version="1.0" encoding="utf-8"?>
<!-- Generator: Adobe Illustrator 15.1.0, SVG Export Plug-In . SVG Version: 6.00 Build 0)  -->
<!DOCTYPE svg PUBLIC "-//W3C//DTD SVG 1.1//EN" "http://www.w3.org/Graphics/SVG/1.1/DTD/svg11.dtd">
<svg version="1.1" xmlns="http://www.w3.org/2000/svg" xmlns:xlink="http://www.w3.org/1999/xlink" x="0px" y="0px" width="90px"
	 height="60px" viewBox="0 0 90 60" enable-background="new 0 0 90 60" xml:space="preserve">
<g id="Layer_1">
	<path d="M94.51,44.95c-0.002-0.04-0.003-0.081-0.003-0.122v-0.502L94.51,44.95z"/>
</g>
<g id="Layer_2">
	<g>
		<path d="M4.445,48.744c-1.045,0-1.894-0.85-1.894-1.893c0-0.5,0.195-0.969,0.549-1.318c0.356-0.354,0.833-0.547,1.345-0.547
			h26.008c1.063,0,1.864,0.801,1.864,1.865c0,1.061-0.818,1.893-1.864,1.893H4.445z"/>
		<path d="M8.688,41.184c-1.063,0-1.895-0.832-1.895-1.895s0.832-1.894,1.895-1.894h21.765c1.063,0,1.864,0.813,1.864,1.894
			s-0.801,1.895-1.864,1.895H8.688z"/>
		<path d="M13.639,33.592c-1.081,0-1.895-0.788-1.895-1.834c0-1.062,0.832-1.894,1.895-1.894h16.784
			c1.063,0,1.864,0.814,1.864,1.894c0,1.063-0.784,1.834-1.864,1.834H13.639z"/>
		<path d="M84.191,21.731c-0.076-2.809-2.645-5.335-5.461-5.335h-3.428l-0.895-7.818c-0.236-2.06-1.248-4.155-2.775-5.745
			c-1.686-1.756-3.791-2.722-5.932-2.722h-9.77c-2.14,0-4.245,0.967-5.929,2.722c-1.528,1.59-2.54,3.686-2.775,5.745l-0.896,7.818
			h-3.425c-2.818,0-5.388,2.526-5.462,5.335l-3.26,32.587v0.109c0,2.859,2.604,5.462,5.462,5.462h42.342
			c2.859,0,5.461-2.603,5.461-5.462v-0.109L84.191,21.731z M54.864,9.081c0.077-0.659,0.731-1.304,1.067-1.304h9.77
			c0.339,0,0.992,0.645,1.068,1.304l0.838,7.315h-13.58L54.864,9.081z M41.602,52.673l2.906-29.06h32.619l2.906,29.06H41.602z"/>
	</g>
</g>
</svg>
