<?xml version="1.0" encoding="utf-8"?>
<!-- Generator: Adobe Illustrator 15.1.0, SVG Export Plug-In . SVG Version: 6.00 Build 0)  -->
<!DOCTYPE svg PUBLIC "-//W3C//DTD SVG 1.1//EN" "http://www.w3.org/Graphics/SVG/1.1/DTD/svg11.dtd">
<svg version="1.1" xmlns="http://www.w3.org/2000/svg" xmlns:xlink="http://www.w3.org/1999/xlink" x="0px" y="0px" width="90px"
	 height="60px" viewBox="0 0 90 60" enable-background="new 0 0 90 60" xml:space="preserve">
<g id="Layer_2">
</g>
<g id="Layer_1">
	<g id="Layer_2_1_">
	</g>
	<g>
		<path fill="#030104" d="M40.877,39.621c-1.567,8.207-3.478,16.078-9.143,20.188c-1.747-12.406,2.567-21.721,4.571-31.614
			c-3.416-5.75,0.41-17.324,7.618-14.473c8.865,3.509-7.68,21.381,3.426,23.614c11.6,2.332,16.332-20.121,9.143-27.423
			C46.102-0.629,26.246,9.674,28.688,24.768c0.595,3.691,4.406,4.81,1.523,9.904c-6.649-1.477-8.635-6.72-8.38-13.713
			C22.244,9.514,32.117,1.5,42.019,0.392C54.541-1.011,66.295,4.989,67.918,16.77c1.828,13.296-5.652,27.697-19.043,26.662
			C45.245,43.15,43.72,41.352,40.877,39.621z"/>
	</g>
</g>
</svg>
