<?xml version="1.0" encoding="utf-8"?>
<!-- Generator: Adobe Illustrator 15.1.0, SVG Export Plug-In . SVG Version: 6.00 Build 0)  -->
<!DOCTYPE svg PUBLIC "-//W3C//DTD SVG 1.1//EN" "http://www.w3.org/Graphics/SVG/1.1/DTD/svg11.dtd">
<svg version="1.1" id="Layer_1" xmlns="http://www.w3.org/2000/svg" xmlns:xlink="http://www.w3.org/1999/xlink" x="0px" y="0px"
	 width="90px" height="60px" viewBox="0 0 90 60" enable-background="new 0 0 90 60" xml:space="preserve">
<g>
	<g id="Layer_1_2_">
		<g id="Layer_1_1_">
			<path d="M94.51,44.95c-0.002-0.04-0.003-0.081-0.003-0.122v-0.502L94.51,44.95z"/>
		</g>
	</g>
	<path d="M45,58.916c-15.944,0-28.916-12.973-28.916-28.917C16.084,14.055,29.056,1.083,45,1.083
		c15.945,0,28.917,12.972,28.917,28.917C73.917,45.943,60.945,58.916,45,58.916z M45,4.828C31.121,4.828,19.829,16.12,19.829,30
		c0,13.879,11.292,25.17,25.171,25.17c13.88,0,25.172-11.291,25.172-25.17C70.172,16.12,58.88,4.828,45,4.828z"/>
	<path d="M37.806,44.203c-0.244,0-0.489-0.06-0.711-0.18c-0.486-0.262-0.789-0.769-0.789-1.32V17.295
		c0-0.552,0.303-1.059,0.789-1.321c0.486-0.261,1.077-0.236,1.537,0.069L57.9,28.751c0.421,0.277,0.674,0.748,0.674,1.252
		c0,0.505-0.254,0.975-0.675,1.252l-19.268,12.7C38.382,44.12,38.094,44.203,37.806,44.203z M39.306,20.081v19.837l15.043-9.916
		L39.306,20.081z"/>
</g>
</svg>
