<?xml version="1.0" encoding="utf-8"?>
<!-- Generator: Adobe Illustrator 15.1.0, SVG Export Plug-In . SVG Version: 6.00 Build 0)  -->
<!DOCTYPE svg PUBLIC "-//W3C//DTD SVG 1.1//EN" "http://www.w3.org/Graphics/SVG/1.1/DTD/svg11.dtd">
<svg version="1.1" xmlns="http://www.w3.org/2000/svg" xmlns:xlink="http://www.w3.org/1999/xlink" x="0px" y="0px" width="90px"
	 height="60px" viewBox="0 0 90 60" enable-background="new 0 0 90 60" xml:space="preserve">
<g id="Layer_2_1_">
</g>
<g id="Layer_1">
	<g id="Layer_2">
	</g>
	<g>
		<path d="M56.451,31.186v2.54h5.09v-2.54H56.451z M56.451,31.186v2.54h5.09v-2.54H56.451z M56.451,31.186v2.54h5.09v-2.54H56.451z"
			/>
		<path d="M67.9,19.436h-2.789V5.835c0-3.02-2.461-5.479-5.48-5.479H30.37c-3.02,0-5.48,2.46-5.48,5.479v13.601H22.1
			c-4.42,0-8.02,3.6-8.02,8.02v15.9c0,4.43,3.6,8.02,8.02,8.02h2.79v2.79c0,3.021,2.46,5.48,5.48,5.48h29.261
			c3.02,0,5.48-2.46,5.48-5.48v-2.79H67.9c4.42,0,8.02-3.59,8.02-8.02v-15.9C75.92,23.035,72.32,19.436,67.9,19.436z M68.781,43.355
			c0,0.49-0.4,0.88-0.881,0.88h-2.789v-6.85H24.89v6.85H22.1c-0.48,0-0.87-0.39-0.87-0.88v-15.9c0-0.48,0.39-0.88,0.87-0.88h45.8
			c0.48,0,0.881,0.399,0.881,0.88V43.355z M32.04,7.495h25.921v11.94H32.04V7.495z M60.26,54.165c0,0.351-0.289,0.641-0.629,0.641
			H30.37c-0.34,0-0.63-0.29-0.63-0.641v-12.08h30.52V54.165z"/>
		<rect x="56.451" y="31.186" width="5.09" height="2.54"/>
		<rect x="32.28" y="44.53" width="25.441" height="2.54"/>
		<rect x="32.28" y="49.61" width="25.441" height="2.55"/>
		<rect x="56.451" y="31.186" width="5.09" height="2.54"/>
	</g>
</g>
</svg>
