<?xml version="1.0" encoding="utf-8"?>
<!-- Generator: Adobe Illustrator 15.1.0, SVG Export Plug-In . SVG Version: 6.00 Build 0)  -->
<!DOCTYPE svg PUBLIC "-//W3C//DTD SVG 1.1//EN" "http://www.w3.org/Graphics/SVG/1.1/DTD/svg11.dtd">
<svg version="1.1" id="Layer_1" xmlns="http://www.w3.org/2000/svg" xmlns:xlink="http://www.w3.org/1999/xlink" x="0px" y="0px"
	 width="90px" height="60px" viewBox="0 0 90 60" enable-background="new 0 0 90 60" xml:space="preserve">
<g id="Layer_2_1_">
</g>
<g id="Layer_1_1_">
	<g id="Layer_2_3_">
	</g>
	<g>
		<path d="M45.001,9.877c-6.936,0-12.578,5.642-12.578,12.577c0,1.389,1.127,2.515,2.516,2.515s2.516-1.125,2.516-2.515
			c0-4.162,3.385-7.546,7.547-7.546c4.16,0,7.545,3.385,7.545,7.546c0,4.161-3.385,7.546-7.545,7.546
			c-1.389,0-2.516,1.127-2.516,2.515v6.289c0,1.389,1.125,2.516,2.516,2.516c1.389,0,2.514-1.127,2.514-2.516v-4.025
			c5.734-1.169,10.063-6.251,10.063-12.324C57.577,15.519,51.935,9.877,45.001,9.877z"/>
		<circle cx="45.001" cy="47.608" r="2.515"/>
	</g>
</g>
<path d="M45,58.916c-15.944,0-28.916-12.973-28.916-28.916C16.084,14.056,29.056,1.084,45,1.084
	c15.945,0,28.916,12.972,28.916,28.917C73.916,45.943,60.945,58.916,45,58.916z M45,4.829c-13.879,0-25.171,11.292-25.171,25.172
	C19.829,43.879,31.121,55.17,45,55.17s25.172-11.291,25.172-25.169C70.172,16.121,58.879,4.829,45,4.829z"/>
</svg>
