<?xml version="1.0" encoding="utf-8"?>
<!-- Generator: Adobe Illustrator 15.1.0, SVG Export Plug-In . SVG Version: 6.00 Build 0)  -->
<!DOCTYPE svg PUBLIC "-//W3C//DTD SVG 1.1//EN" "http://www.w3.org/Graphics/SVG/1.1/DTD/svg11.dtd">
<svg version="1.1" xmlns="http://www.w3.org/2000/svg" xmlns:xlink="http://www.w3.org/1999/xlink" x="0px" y="0px" width="90px"
	 height="60px" viewBox="0 0 90 60" enable-background="new 0 0 90 60" xml:space="preserve">
<g id="Layer_2_1_">
</g>
<g id="Layer_1">
	<g id="Layer_2_3_">
	</g>
	<g>
		<path fill-rule="evenodd" clip-rule="evenodd" d="M34.81,39.012c-11.686-1.89-19.713-10.804-20.485-22.147
			c-0.597-8.758,5.397-16.08,13.842-16.609c8.377-0.526,15.843,5.986,15.779,14.949c-0.033,4.677-2.207,8.234-4.43,10.52
			c-2.083,2.143-6.102,3.077-6.643,6.646C32.325,35.975,34.345,35.983,34.81,39.012z"/>
		<path fill-rule="evenodd" clip-rule="evenodd" d="M55.297,59.774c0.72-2.485,2.979-3.498,1.66-7.475
			c-0.948-2.853-5.53-4.482-7.475-6.921c-1.678-2.104-3.301-5.362-3.321-9.135c-0.049-8.769,6.937-14.573,13.841-14.949
			c10.028-0.547,17.038,8.249,15.504,18.548C73.928,50.429,66.256,58.175,55.297,59.774z"/>
	</g>
</g>
</svg>
