<?xml version="1.0" encoding="utf-8"?>
<!-- Generator: Adobe Illustrator 21.1.0, SVG Export Plug-In . SVG Version: 6.00 Build 0)  -->
<svg version="1.1" xmlns="http://www.w3.org/2000/svg" xmlns:xlink="http://www.w3.org/1999/xlink" x="0px" y="0px"
	 viewBox="0 0 575.6 556.1" style="enable-background:new 0 0 575.6 556.1;" xml:space="preserve">
<style type="text/css">
	.st0{fill:#333333;}
</style>
<g id="Livello_25">
	<g>
		<g>
			<g>
				<path class="st0" d="M437.4,173.5c-3.1-3.1-7.1-4.8-11.5-4.8H138c-9,0-16.3,7.3-16.3,16.2v31.3c0,9,7.3,16.2,16.3,16.2h0.8
					v175.7c0,9,7.3,16.2,16.2,16.2h253.9c9,0,16.2-7.3,16.2-16.2V232.6h0.8c9,0,16.2-7.3,16.2-16.2V185
					C442.1,180.7,440.4,176.6,437.4,173.5z M157.3,406V232.6h249.3l0,173.4H157.3z M140.2,214.1v-26.8h283.4l0,26.8H140.2z"/>
			</g>
		</g>
		<g>
			<g>
				<path class="st0" d="M250.1,257.7c0,4.7-3.8,8.6-8.6,8.6h-60.8c-4.7,0-8.6-3.8-8.6-8.6c0-4.7,3.8-8.6,8.6-8.6h60.8
					C246.3,249.1,250.1,253,250.1,257.7z"/>
			</g>
		</g>
		<g>
			<g>
				<path class="st0" d="M219.7,285.2c0,4.7-3.8,8.6-8.6,8.6h-30.4c-4.7,0-8.6-3.8-8.6-8.6s3.8-8.6,8.6-8.6h30.4
					C215.9,276.7,219.7,280.5,219.7,285.2z"/>
			</g>
		</g>
	</g>
</g>
<g id="Livello_27">
	<g>
		<path class="st0" d="M281.9,529.7c-64.5,0-125.2-25.1-170.8-70.7c-45.6-45.6-70.7-106.3-70.7-170.8s25.1-125.2,70.7-170.8
			c45.6-45.6,106.3-70.7,170.8-70.7c49.6,0,97.3,14.9,137.8,43.2L409.2,105c-37.5-26.1-81.5-39.9-127.3-39.9
			c-59.6,0-115.6,23.2-157.7,65.3C82,172.6,58.8,228.7,58.8,288.2S82,403.8,124.2,446c42.1,42.1,98.2,65.3,157.7,65.3
			c56.3,0,110-21,151.3-59.2c41.1-38,66.3-89.4,70.9-144.9l18.4,1.5c-5.1,60.1-32.3,115.8-76.8,156.9
			C401,507,342.9,529.7,281.9,529.7z"/>
		<g>
			<polygon class="st0" points="462.2,141.7 418.9,52.6 410.1,95.1 368.9,108.4 			"/>
		</g>
		<g>
			
				<ellipse transform="matrix(4.676699e-02 -0.9989 0.9989 4.676699e-02 180.5806 807.2316)" class="st0" cx="513.2" cy="309" rx="20.8" ry="20.8"/>
		</g>
	</g>
</g>
</svg>
