<?xml version="1.0" encoding="utf-8"?>
<!-- Generator: Adobe Illustrator 15.1.0, SVG Export Plug-In . SVG Version: 6.00 Build 0)  -->
<!DOCTYPE svg PUBLIC "-//W3C//DTD SVG 1.1//EN" "http://www.w3.org/Graphics/SVG/1.1/DTD/svg11.dtd">
<svg version="1.1" id="Layer_2" xmlns="http://www.w3.org/2000/svg" xmlns:xlink="http://www.w3.org/1999/xlink" x="0px" y="0px"
	 width="90px" height="60px" viewBox="0 0 90 60" enable-background="new 0 0 90 60" xml:space="preserve">
<g id="Layer_2_1_">
	<path d="M27.387,59.604c-0.516,0-1.031-0.159-1.47-0.478c-0.876-0.637-1.243-1.765-0.908-2.795l6.167-18.976L15.032,25.624
		c-0.876-0.637-1.243-1.765-0.908-2.795c0.334-1.03,1.294-1.728,2.377-1.728h19.955l6.167-18.978
		c0.334-1.03,1.294-1.728,2.377-1.728s2.043,0.697,2.378,1.727l6.168,18.978H73.5c1.083,0,2.043,0.697,2.378,1.728
		c0.334,1.03-0.032,2.159-0.908,2.795l-16.146,11.73l6.166,18.976c0.334,1.03-0.032,2.158-0.908,2.795
		c-0.877,0.637-2.063,0.637-2.939,0L45.001,47.396L28.856,59.126C28.418,59.444,27.903,59.604,27.387,59.604z M24.195,26.101
		l11.39,8.277c0.876,0.637,1.243,1.765,0.908,2.795l-4.35,13.386l11.389-8.274c0.876-0.637,2.062-0.637,2.939,0l11.386,8.272
		l-4.35-13.386c-0.334-1.03,0.032-2.158,0.908-2.795l11.391-8.275H51.73c-1.083,0-2.043-0.697-2.378-1.727l-4.351-13.389
		L40.65,24.374c-0.334,1.03-1.294,1.728-2.377,1.728H24.195z"/>
</g>
</svg>
