<?xml version="1.0" encoding="utf-8"?>
<!-- Generator: Adobe Illustrator 15.1.0, SVG Export Plug-In . SVG Version: 6.00 Build 0)  -->
<!DOCTYPE svg PUBLIC "-//W3C//DTD SVG 1.1//EN" "http://www.w3.org/Graphics/SVG/1.1/DTD/svg11.dtd">
<svg version="1.1" xmlns="http://www.w3.org/2000/svg" xmlns:xlink="http://www.w3.org/1999/xlink" x="0px" y="0px" width="90px"
	 height="60px" viewBox="0 0 90 60" enable-background="new 0 0 90 60" xml:space="preserve">
<g id="Layer_2">
</g>
<g id="Layer_1">
	<path d="M73.781,53.516L55.678,35.412c2.604-3.654,4.144-8.119,4.144-12.937c0-12.322-10.025-22.347-22.347-22.347
		c-12.323,0-22.347,10.025-22.347,22.347S25.152,44.82,37.475,44.82c4.819,0,9.281-1.537,12.936-4.143l18.105,18.104
		c0.725,0.73,1.68,1.092,2.633,1.092s1.906-0.361,2.633-1.09C75.236,57.328,75.236,54.969,73.781,53.516z M37.475,37.373
		c-8.229,0-14.899-6.67-14.899-14.898c0-8.229,6.67-14.898,14.899-14.898c8.228,0,14.896,6.669,14.896,14.898
		C52.371,30.703,45.702,37.373,37.475,37.373z"/>
</g>
</svg>
