<?xml version="1.0" encoding="utf-8"?>
<!-- Generator: Adobe Illustrator 21.0.0, SVG Export Plug-In . SVG Version: 6.00 Build 0)  -->
<svg version="1.1" id="Layer_1" xmlns="http://www.w3.org/2000/svg" xmlns:xlink="http://www.w3.org/1999/xlink" x="0px" y="0px"
	 viewBox="0 0 90 60" style="enable-background:new 0 0 90 60;" xml:space="preserve">
<path d="M76.9,18.9L66.5,1.7c-0.5-0.8-1.4-1.3-2.3-1.3H25.8c-0.9,0-1.8,0.5-2.3,1.3L13.1,18.9V19c-0.1,0.2-0.2,0.4-0.2,0.5v0.1
	c-0.1,0.2-0.1,0.4-0.1,0.6v0.1c0,0,0,0.1,0,0.2c0,0.2,0.1,0.4,0.1,0.6v0.1c0.1,0.2,0.2,0.4,0.3,0.6l29.6,36.7l0.1,0.1
	c0.1,0.1,0.2,0.2,0.3,0.3l0.2,0.1c0.2,0.1,0.4,0.2,0.6,0.3c0.2,0.1,0.4,0.1,0.5,0.1H45c0.2,0,0.3,0,0.5-0.1h0.3l0.2-0.2
	c0,0,0.1,0,0.1-0.1c0.1,0,0.2-0.1,0.2-0.1l0.2-0.1h0.1c0.1-0.1,0.2-0.2,0.3-0.3l0.1-0.1v-0.1L76.7,22C77.4,21.1,77.5,19.9,76.9,18.9
	z M42,5.8h6l4.7,11.7H37.3L42,5.8z M27.4,5.8h8.8l-4.7,11.7H20.3L27.4,5.8z M21.1,23h10.2L38,43.9L21.1,23z M45,48l-8-25h16L45,48z
	 M52,43.9L58.7,23h10.2L52,43.9z M58.6,17.5L58.6,17.5L53.9,5.8h8.8l7.1,11.7H58.6z"/>
</svg>
