<?xml version="1.0" encoding="utf-8"?>
<!-- Generator: Adobe Illustrator 15.1.0, SVG Export Plug-In . SVG Version: 6.00 Build 0)  -->
<!DOCTYPE svg PUBLIC "-//W3C//DTD SVG 1.1//EN" "http://www.w3.org/Graphics/SVG/1.1/DTD/svg11.dtd">
<svg version="1.1" id="Layer_1" xmlns="http://www.w3.org/2000/svg" xmlns:xlink="http://www.w3.org/1999/xlink" x="0px" y="0px"
	 width="90px" height="60px" viewBox="0 0 90 60" enable-background="new 0 0 90 60" xml:space="preserve">
<g id="Layer_2_1_">
</g>
<g id="Layer_1_1_">
	<g id="Layer_2_2_">
	</g>
	<g>
		<path d="M62.684,29.997c0,1.287-0.95,2.25-2.215,2.25H47.218v13.167c0,1.281-0.938,2.251-2.179,2.251
			c-1.263,0-2.25-0.993-2.25-2.251V32.247H29.567c-1.258,0-2.25-0.986-2.25-2.25c0-1.258,0.992-2.25,2.25-2.25h13.222V14.549
			c0-1.258,0.963-2.214,2.25-2.214c1.258,0,2.179,0.933,2.179,2.214v13.197h13.251C61.733,27.747,62.684,28.716,62.684,29.997z"/>
	</g>
</g>
<path d="M45,58.916c-15.944,0-28.916-12.973-28.916-28.917C16.084,14.055,29.056,1.083,45,1.083
	c15.945,0,28.917,12.972,28.917,28.917C73.917,45.943,60.945,58.916,45,58.916z M45,4.828C31.121,4.828,19.829,16.12,19.829,30
	c0,13.879,11.292,25.17,25.171,25.17c13.88,0,25.172-11.291,25.172-25.17C70.172,16.12,58.88,4.828,45,4.828z"/>
</svg>
