<?xml version="1.0" encoding="utf-8"?>
<!-- Generator: Adobe Illustrator 15.1.0, SVG Export Plug-In . SVG Version: 6.00 Build 0)  -->
<!DOCTYPE svg PUBLIC "-//W3C//DTD SVG 1.1//EN" "http://www.w3.org/Graphics/SVG/1.1/DTD/svg11.dtd">
<svg version="1.1" xmlns="http://www.w3.org/2000/svg" xmlns:xlink="http://www.w3.org/1999/xlink" x="0px" y="0px" width="90px"
	 height="60px" viewBox="0 0 90 60" enable-background="new 0 0 90 60" xml:space="preserve">
<g id="Layer_1">
	<g id="Layer_2">
	</g>
</g>
<g id="Layer_2_1_">
	<g>
		<path d="M74.684,5.83v19.33c0,1.98-1.639,3.59-3.66,3.59c-1.969,0-3.58-1.609-3.58-3.59V12.74L51.635,28.61
			c-0.73,0.729-1.67,1.12-2.66,1.12s-1.93-0.391-2.66-1.12c-0.721-0.72-1.121-1.67-1.121-2.66s0.4-1.93,1.121-2.66l15.811-15.8
			H49.764c-1.98,0-3.66-1.65-3.66-3.59c0-1.98,1.641-3.58,3.66-3.58h19.33C72.174,0.32,74.684,2.79,74.684,5.83z"/>
		<path d="M74.754,39.631v14.46c-0.08,3.14-2.57,5.59-5.66,5.59H20.835c-3.08,0-5.591-2.47-5.591-5.521V5.83
			c0-3.04,2.511-5.51,5.591-5.51h14.47c1.979,0,3.648,1.64,3.648,3.58c0,1.979-1.639,3.59-3.648,3.59H24.704
			c-1.22,0-2.21,0.99-2.21,2.21v40.601c0,1.2,0.971,2.14,2.21,2.14h40.601c1.199,0,2.209-0.979,2.209-2.14v-10.67
			c0-1.98,1.611-3.59,3.59-3.59C73.084,36.041,74.754,37.681,74.754,39.631z"/>
	</g>
</g>
</svg>
