<?xml version="1.0" encoding="utf-8"?>
<!-- Generator: Adobe Illustrator 15.1.0, SVG Export Plug-In . SVG Version: 6.00 Build 0)  -->
<!DOCTYPE svg PUBLIC "-//W3C//DTD SVG 1.1//EN" "http://www.w3.org/Graphics/SVG/1.1/DTD/svg11.dtd">
<svg version="1.1" id="Layer_1" xmlns="http://www.w3.org/2000/svg" xmlns:xlink="http://www.w3.org/1999/xlink" x="0px" y="0px"
	 width="90px" height="60px" viewBox="0 0 90 60" enable-background="new 0 0 90 60" xml:space="preserve">
<g id="Layer_2_1_">
</g>
<g>
	<g>
		<path d="M71.244,35.27l-4.52-2.629c0.1-0.881,0.16-1.76,0.16-2.69V29.36l-0.011-0.26c-0.029-0.46-0.06-0.92-0.1-1.399l4.55-2.581
			c2.29-1.41,2.84-3.54,1.5-5.85l-4.46-7.73c-1.08-1.93-2.5-2.33-3.5-2.33c-0.78,0-1.59,0.25-2.38,0.73l-4.36,2.53
			c-1.449-1.1-2.96-1.98-4.5-2.64v-5.4c0-2.68-1.6-4.29-4.29-4.29h-8.689c-2.68,0-4.29,1.61-4.29,4.29V9.9
			c-1.07,0.46-2.12,1.03-3.16,1.69c-0.33,0.22-0.66,0.46-1,0.71l-4.7-2.71c-0.8-0.46-1.59-0.7-2.35-0.7c-0.83,0-2.38,0.3-3.47,2.28
			l-4.54,7.8c-0.25,0.47-1.01,1.9-0.46,3.44c0.28,0.92,0.97,1.72,2.07,2.38l4.51,2.59c-0.1,0.869-0.16,1.76-0.16,2.67v0.6
			l0.01,0.119c0.03,0.51,0.06,1.031,0.11,1.561l-4.49,2.6c-2.18,1.281-2.83,3.27-1.77,5.461l0.12,0.229v0.031l4.55,7.891
			c1.08,1.85,2.49,2.238,3.47,2.238c0.78,0,1.58-0.238,2.39-0.709l4.37-2.49c1.4,1.061,2.91,1.939,4.5,2.631v5.369
			c0,2.68,1.61,4.279,4.29,4.279h8.689c2.69,0,4.29-1.6,4.29-4.279v-5.471c1.021-0.439,2.061-0.979,3.101-1.6l0.06-0.039l1.01-0.76
			l4.69,2.699c0.82,0.48,1.62,0.721,2.39,0.721c0.96,0,2.34-0.391,3.48-2.25l4.46-7.73c0.18-0.291,0.35-0.621,0.46-1.01
			c0.3-0.941,0.33-1.801,0.07-2.59C73.104,36.891,72.534,35.961,71.244,35.27z M64.284,45.32l-4.76-2.74
			c-0.57-0.32-1.2-0.49-1.84-0.49c-0.811,0-1.58,0.26-2.23,0.75l-1.62,1.221c-1.06,0.619-2.109,1.119-3.1,1.49
			c-1.45,0.539-2.42,1.93-2.42,3.469v5.541h-6.65v-5.441c0-1.529-0.97-2.93-2.41-3.469c-1.78-0.66-3.38-1.59-4.87-2.84
			c-0.67-0.561-1.51-0.871-2.38-0.871c-0.64,0-1.28,0.17-1.83,0.49l-4.47,2.551l-3.44-5.971l4.54-2.619
			c1.34-0.781,2.06-2.33,1.79-3.861c-0.1-0.6-0.15-1.279-0.19-1.988V30.05c0-0.99,0.08-1.94,0.25-2.891
			c0.26-1.52-0.46-3.069-1.81-3.839l-4.58-2.63l3.49-5.98l4.7,2.71c0.56,0.32,1.2,0.49,1.85,0.49c0.79,0,1.58-0.26,2.22-0.73
			l0.07-0.06c0.54-0.4,1.04-0.78,1.51-1.09c1.01-0.65,2.07-1.18,3.15-1.58c1.44-0.53,2.41-1.93,2.41-3.47V5.45h6.65v5.48
			c0,1.57,1,2.98,2.479,3.5c1.641,0.57,3.261,1.52,4.811,2.82c0.66,0.56,1.51,0.86,2.37,0.86c0.66,0,1.3-0.17,1.859-0.5l4.431-2.56
			l3.47,6.01l-4.48,2.55c-1.3,0.73-2.02,2.16-1.85,3.65c0.08,0.72,0.13,1.489,0.17,2.229v0.461c0,0.999-0.08,1.95-0.24,2.899
			c-0.26,1.52,0.45,3.061,1.79,3.83l4.601,2.68L64.284,45.32z"/>
	</g>
</g>
</svg>
