<?xml version="1.0" encoding="utf-8"?>
<!-- Generator: Adobe Illustrator 15.1.0, SVG Export Plug-In . SVG Version: 6.00 Build 0)  -->
<!DOCTYPE svg PUBLIC "-//W3C//DTD SVG 1.1//EN" "http://www.w3.org/Graphics/SVG/1.1/DTD/svg11.dtd">
<svg version="1.1" id="Layer_1" xmlns="http://www.w3.org/2000/svg" xmlns:xlink="http://www.w3.org/1999/xlink" x="0px" y="0px"
	 width="450px" height="60px" viewBox="0 0 450 60" enable-background="new 0 0 450 60" xml:space="preserve">
<g id="Layer_2">
	<path d="M74.97,25.62L58.82,37.35l6.17,18.98c0.33,1.03-0.03,2.16-0.91,2.79c-0.87,0.64-2.06,0.64-2.94,0L45,47.4L28.86,59.13
		c-0.44,0.311-0.96,0.47-1.47,0.47c-0.52,0-1.03-0.149-1.47-0.47c-0.88-0.64-1.25-1.77-0.91-2.8l6.17-18.97L15.03,25.62
		c-0.87-0.63-1.24-1.76-0.91-2.79c0.34-1.03,1.3-1.73,2.38-1.73h19.96l6.16-18.98C42.96,1.09,43.92,0.4,45,0.4s2.04,0.69,2.38,1.72
		l6.17,18.98H73.5c1.08,0,2.04,0.7,2.38,1.73C76.21,23.86,75.85,24.99,74.97,25.62z"/>
</g>
<g id="Layer_3">
	<g id="Layer_2_2_">
		<path d="M164.97,25.62L148.83,37.35l6.16,18.98c0.34,1.03-0.03,2.16-0.91,2.79c-0.87,0.64-2.06,0.64-2.94,0L135,47.4l-16.14,11.72
			c-0.44,0.32-0.96,0.479-1.47,0.479c-0.52,0-1.03-0.149-1.47-0.47c-0.88-0.64-1.25-1.77-0.91-2.8l6.17-18.97l-16.15-11.74
			c-0.87-0.63-1.24-1.76-0.91-2.79c0.34-1.03,1.3-1.73,2.38-1.73h19.96l6.16-18.98c0.34-1.03,1.3-1.72,2.38-1.72
			s2.04,0.69,2.38,1.72l6.17,18.98h19.95c1.08,0,2.04,0.7,2.38,1.73C166.21,23.86,165.85,24.99,164.97,25.62z"/>
	</g>
</g>
<path d="M254.969,25.62L238.83,37.35l6.16,18.98c0.34,1.03-0.03,2.16-0.91,2.79c-0.87,0.64-2.061,0.64-2.94,0L225,47.4l-16.14,11.72
	c-0.44,0.32-0.96,0.479-1.47,0.479c-0.52,0-1.03-0.149-1.47-0.47c-0.88-0.64-1.25-1.77-0.91-2.8l6.17-18.97l-16.15-11.74
	c-0.87-0.63-1.24-1.76-0.91-2.79c0.34-1.03,1.3-1.73,2.38-1.73h19.96l6.16-18.98c0.34-1.03,1.3-1.72,2.38-1.72s2.04,0.69,2.38,1.72
	l6.17,18.98h19.95c1.08,0,2.04,0.7,2.38,1.73C256.21,23.86,255.849,24.99,254.969,25.62z"/>
<path d="M344.969,25.62L328.83,37.35l6.16,18.98c0.34,1.03-0.03,2.16-0.91,2.79c-0.87,0.64-2.061,0.64-2.94,0L315,47.4l-16.14,11.72
	c-0.44,0.32-0.96,0.479-1.471,0.479c-0.52,0-1.029-0.149-1.47-0.47c-0.88-0.64-1.25-1.77-0.91-2.8l6.17-18.97L285.03,25.62
	c-0.87-0.63-1.24-1.76-0.91-2.79c0.34-1.03,1.3-1.73,2.38-1.73h19.96l6.16-18.98c0.34-1.03,1.3-1.72,2.38-1.72s2.04,0.69,2.38,1.72
	l6.17,18.98h19.95c1.08,0,2.04,0.7,2.38,1.73C346.21,23.86,345.849,24.99,344.969,25.62z"/>
<path d="M435.88,22.83c-0.34-1.03-1.3-1.73-2.38-1.73h-19.95l-6.17-18.98c-0.34-1.03-1.3-1.72-2.38-1.72s-2.04,0.69-2.38,1.72
	l-6.16,18.98H376.5c-1.08,0-2.04,0.7-2.38,1.73c-0.33,1.03,0.04,2.16,0.91,2.79l16.149,11.74l-6.17,18.97
	c-0.34,1.03,0.03,2.16,0.91,2.8c0.44,0.32,0.95,0.47,1.47,0.47c0.511,0,1.03-0.159,1.471-0.479L405,47.4l16.14,11.72
	c0.88,0.64,2.07,0.64,2.94,0c0.88-0.63,1.25-1.76,0.91-2.79l-6.16-18.98l16.14-11.729C435.849,24.99,436.21,23.86,435.88,22.83z
	 M414.42,34.38c-0.88,0.63-1.25,1.76-0.91,2.79l4.351,13.39l-11.391-8.27c-0.439-0.32-0.95-0.48-1.47-0.48V10.98l4.35,13.39
	c0.341,1.03,1.301,1.73,2.381,1.73h14.079L414.42,34.38z"/>
</svg>
