<?xml version="1.0" encoding="utf-8"?>
<!-- Generator: Adobe Illustrator 15.1.0, SVG Export Plug-In . SVG Version: 6.00 Build 0)  -->
<!DOCTYPE svg PUBLIC "-//W3C//DTD SVG 1.1//EN" "http://www.w3.org/Graphics/SVG/1.1/DTD/svg11.dtd">
<svg version="1.1" id="Layer_1" xmlns="http://www.w3.org/2000/svg" xmlns:xlink="http://www.w3.org/1999/xlink" x="0px" y="0px"
	 width="450px" height="60px" viewBox="0 0 450 60" enable-background="new 0 0 450 60" xml:space="preserve">
<g id="Layer_2">
	<g id="Layer_2_1_">
		<path d="M74.97,25.62L58.83,37.35l6.16,18.98c0.34,1.03-0.03,2.16-0.91,2.79c-0.87,0.64-2.06,0.64-2.94,0L45,47.4L28.86,59.13
			c-0.44,0.311-0.96,0.47-1.47,0.47c-0.52,0-1.03-0.149-1.47-0.47c-0.88-0.64-1.25-1.77-0.91-2.8l6.17-18.97L15.03,25.62
			c-0.87-0.63-1.24-1.76-0.91-2.79c0.34-1.03,1.3-1.73,2.38-1.73h19.96l6.16-18.98C42.96,1.09,43.92,0.4,45,0.4s2.04,0.69,2.38,1.72
			l6.17,18.98H73.5c1.08,0,2.04,0.7,2.38,1.73C76.21,23.86,75.85,24.99,74.97,25.62z"/>
	</g>
</g>
<g id="Layer_3">
	<g id="Layer_2_2_">
		<path d="M117.388,59.604c-0.518,0-1.031-0.158-1.471-0.478c-0.877-0.638-1.244-1.765-0.908-2.795l6.166-18.976l-16.143-11.731
			c-0.877-0.637-1.244-1.765-0.908-2.795c0.334-1.03,1.293-1.728,2.377-1.728h19.955l6.166-18.978
			c0.334-1.03,1.295-1.728,2.377-1.728c1.084,0,2.043,0.697,2.379,1.727l6.168,18.978H163.5c1.084,0,2.043,0.697,2.379,1.728
			c0.334,1.03-0.032,2.159-0.907,2.795l-16.146,11.73l6.166,18.976c0.334,1.03-0.031,2.157-0.908,2.795s-2.063,0.638-2.938,0
			l-16.142-11.728l-16.146,11.729C118.418,59.443,117.903,59.604,117.388,59.604z M114.195,26.101l11.391,8.277
			c0.875,0.638,1.242,1.765,0.908,2.795l-4.351,13.386l11.39-8.272c0.875-0.638,2.062-0.638,2.938,0l11.387,8.271l-4.351-13.386
			c-0.334-1.03,0.031-2.157,0.908-2.795l11.392-8.275H141.73c-1.084,0-2.043-0.697-2.379-1.727l-4.351-13.389l-4.352,13.389
			c-0.334,1.03-1.294,1.728-2.377,1.728L114.195,26.101L114.195,26.101z"/>
	</g>
</g>
<g id="Layer_4">
	<g id="Layer_2_3_">
		<path d="M207.388,59.604c-0.518,0-1.031-0.158-1.471-0.478c-0.877-0.638-1.244-1.765-0.908-2.795l6.166-18.976l-16.143-11.731
			c-0.877-0.637-1.244-1.765-0.908-2.795c0.334-1.03,1.293-1.728,2.377-1.728h19.955l6.166-18.978
			c0.334-1.03,1.295-1.728,2.377-1.728c1.084,0,2.043,0.697,2.379,1.727l6.168,18.978H253.5c1.084,0,2.043,0.697,2.379,1.728
			c0.334,1.03-0.032,2.159-0.907,2.795l-16.146,11.73l6.166,18.976c0.334,1.03-0.031,2.157-0.908,2.795s-2.063,0.638-2.938,0
			l-16.142-11.728l-16.146,11.729C208.418,59.443,207.903,59.604,207.388,59.604z M204.195,26.101l11.391,8.277
			c0.875,0.638,1.242,1.765,0.908,2.795l-4.351,13.386l11.39-8.272c0.875-0.638,2.062-0.638,2.938,0l11.387,8.271l-4.351-13.386
			c-0.334-1.03,0.031-2.157,0.908-2.795l11.392-8.275H231.73c-1.084,0-2.043-0.697-2.379-1.727l-4.351-13.389l-4.352,13.389
			c-0.334,1.03-1.294,1.728-2.377,1.728L204.195,26.101L204.195,26.101z"/>
	</g>
</g>
<g id="Layer_5">
	<g id="Layer_2_4_">
		<path d="M387.388,59.604c-0.518,0-1.031-0.158-1.471-0.478c-0.877-0.638-1.244-1.765-0.907-2.795l6.165-18.976l-16.143-11.731
			c-0.877-0.637-1.244-1.765-0.908-2.795c0.334-1.03,1.293-1.728,2.377-1.728h19.955l6.166-18.978
			c0.334-1.03,1.295-1.728,2.377-1.728c1.084,0,2.043,0.697,2.379,1.727l6.168,18.978H433.5c1.085,0,2.044,0.697,2.38,1.728
			c0.334,1.03-0.033,2.159-0.908,2.795l-16.146,11.73l6.166,18.976c0.334,1.03-0.03,2.157-0.907,2.795
			c-0.878,0.638-2.063,0.638-2.939,0l-16.142-11.728l-16.146,11.729C388.418,59.443,387.903,59.604,387.388,59.604z M384.195,26.101
			l11.391,8.277c0.875,0.638,1.242,1.765,0.908,2.795l-4.351,13.386l11.39-8.272c0.875-0.638,2.062-0.638,2.938,0l11.387,8.271
			l-4.351-13.386c-0.334-1.03,0.031-2.157,0.908-2.795l11.392-8.275H411.73c-1.084,0-2.043-0.697-2.379-1.727l-4.351-13.389
			l-4.352,13.389c-0.334,1.03-1.294,1.728-2.377,1.728L384.195,26.101L384.195,26.101z"/>
	</g>
</g>
<g id="Layer_6">
	<g id="Layer_2_5_">
		<path d="M297.388,59.604c-0.518,0-1.031-0.158-1.471-0.478c-0.877-0.638-1.244-1.765-0.907-2.795l6.165-18.976l-16.143-11.731
			c-0.877-0.637-1.244-1.765-0.908-2.795c0.334-1.03,1.293-1.728,2.377-1.728h19.955l6.166-18.978
			c0.334-1.03,1.295-1.728,2.377-1.728c1.084,0,2.043,0.697,2.379,1.727l6.168,18.978H343.5c1.084,0,2.043,0.697,2.379,1.728
			c0.334,1.03-0.032,2.159-0.907,2.795l-16.146,11.73l6.166,18.976c0.334,1.03-0.031,2.157-0.908,2.795s-2.063,0.638-2.938,0
			l-16.142-11.728l-16.146,11.729C298.418,59.443,297.903,59.604,297.388,59.604z M294.195,26.101l11.391,8.277
			c0.875,0.638,1.242,1.765,0.908,2.795l-4.351,13.386l11.39-8.272c0.875-0.638,2.062-0.638,2.938,0l11.387,8.271l-4.351-13.386
			c-0.334-1.03,0.031-2.157,0.908-2.795l11.392-8.275H321.73c-1.084,0-2.043-0.697-2.379-1.727l-4.351-13.389l-4.352,13.389
			c-0.334,1.03-1.294,1.728-2.377,1.728L294.195,26.101L294.195,26.101z"/>
	</g>
</g>
</svg>
