<?xml version="1.0" encoding="utf-8"?>
<!-- Generator: Adobe Illustrator 15.1.0, SVG Export Plug-In . SVG Version: 6.00 Build 0)  -->
<!DOCTYPE svg PUBLIC "-//W3C//DTD SVG 1.1//EN" "http://www.w3.org/Graphics/SVG/1.1/DTD/svg11.dtd">
<svg version="1.1" xmlns="http://www.w3.org/2000/svg" xmlns:xlink="http://www.w3.org/1999/xlink" x="0px" y="0px" width="450px"
	 height="60px" viewBox="0 0 450 60" enable-background="new 0 0 450 60" xml:space="preserve">
<g id="Layer_2">
	<g id="Layer_2_1_">
		<path d="M27.387,59.604c-0.516,0-1.031-0.158-1.47-0.478c-0.876-0.638-1.243-1.765-0.908-2.795l6.167-18.976L15.032,25.624
			c-0.876-0.637-1.243-1.765-0.908-2.795c0.334-1.03,1.294-1.728,2.377-1.728h19.955l6.167-18.978
			c0.334-1.03,1.294-1.728,2.377-1.728s2.043,0.697,2.378,1.727L53.546,21.1H73.5c1.083,0,2.043,0.697,2.378,1.728
			c0.334,1.03-0.032,2.159-0.907,2.795l-16.146,11.73l6.166,18.976c0.334,1.03-0.032,2.157-0.908,2.795
			c-0.877,0.638-2.063,0.638-2.939,0L45.001,47.396L28.856,59.126C28.418,59.443,27.903,59.604,27.387,59.604z M24.195,26.101
			l11.39,8.277c0.876,0.638,1.243,1.765,0.908,2.795l-4.35,13.386l11.389-8.273c0.876-0.637,2.062-0.637,2.938,0l11.387,8.271
			l-4.351-13.386c-0.334-1.03,0.032-2.157,0.908-2.795l11.392-8.275H51.73c-1.084,0-2.043-0.697-2.379-1.727l-4.351-13.389
			L40.65,24.374c-0.334,1.03-1.294,1.728-2.377,1.728L24.195,26.101L24.195,26.101z"/>
	</g>
</g>
<g id="Layer_3">
	<g id="Layer_2_2_">
		<path d="M117.388,59.604c-0.517,0-1.031-0.158-1.47-0.478c-0.877-0.638-1.244-1.765-0.908-2.795l6.166-18.976l-16.143-11.731
			c-0.877-0.637-1.244-1.765-0.908-2.795c0.334-1.03,1.293-1.728,2.377-1.728h19.955l6.166-18.978
			c0.334-1.03,1.295-1.728,2.377-1.728c1.084,0,2.043,0.697,2.379,1.727l6.168,18.978H163.5c1.084,0,2.043,0.697,2.379,1.728
			c0.334,1.03-0.033,2.159-0.908,2.795l-16.146,11.73l6.166,18.976c0.334,1.03-0.031,2.157-0.908,2.795s-2.063,0.638-2.939,0
			l-16.141-11.728l-16.146,11.729C118.418,59.443,117.903,59.604,117.388,59.604z M114.195,26.101l11.391,8.277
			c0.875,0.638,1.242,1.765,0.908,2.795l-4.351,13.386l11.39-8.273c0.875-0.637,2.061-0.637,2.938,0l11.387,8.271l-4.35-13.386
			c-0.334-1.03,0.031-2.157,0.908-2.795l11.391-8.275H141.73c-1.084,0-2.043-0.697-2.379-1.727l-4.35-13.389l-4.352,13.389
			c-0.334,1.03-1.294,1.728-2.377,1.728L114.195,26.101L114.195,26.101z"/>
	</g>
</g>
<g id="Layer_4">
	<g id="Layer_2_3_">
		<path d="M207.388,59.604c-0.517,0-1.031-0.158-1.47-0.478c-0.877-0.638-1.244-1.765-0.908-2.795l6.166-18.976l-16.143-11.731
			c-0.877-0.637-1.244-1.765-0.908-2.795c0.334-1.03,1.293-1.728,2.377-1.728h19.955l6.166-18.978
			c0.334-1.03,1.295-1.728,2.377-1.728c1.084,0,2.043,0.697,2.379,1.727l6.168,18.978H253.5c1.084,0,2.043,0.697,2.379,1.728
			c0.334,1.03-0.033,2.159-0.908,2.795l-16.146,11.73l6.166,18.976c0.334,1.03-0.031,2.157-0.908,2.795s-2.063,0.638-2.939,0
			l-16.141-11.728l-16.146,11.729C208.418,59.443,207.903,59.604,207.388,59.604z M204.195,26.101l11.391,8.277
			c0.875,0.638,1.242,1.765,0.908,2.795l-4.351,13.386l11.39-8.273c0.875-0.637,2.061-0.637,2.938,0l11.387,8.271l-4.35-13.386
			c-0.334-1.03,0.031-2.157,0.908-2.795l11.391-8.275H231.73c-1.084,0-2.043-0.697-2.379-1.727l-4.35-13.389l-4.352,13.389
			c-0.334,1.03-1.294,1.728-2.377,1.728L204.195,26.101L204.195,26.101z"/>
	</g>
</g>
<g id="Layer_5">
	<g id="Layer_2_4_">
		<path d="M387.388,59.604c-0.517,0-1.031-0.158-1.47-0.478c-0.877-0.638-1.244-1.765-0.908-2.795l6.166-18.976l-16.143-11.731
			c-0.877-0.637-1.244-1.765-0.908-2.795c0.334-1.03,1.293-1.728,2.377-1.728h19.955l6.166-18.978
			c0.334-1.03,1.295-1.728,2.377-1.728c1.084,0,2.043,0.697,2.379,1.727l6.168,18.978H433.5c1.084,0,2.043,0.697,2.379,1.728
			c0.334,1.03-0.033,2.159-0.908,2.795l-16.146,11.73l6.166,18.976c0.334,1.03-0.031,2.157-0.908,2.795s-2.063,0.638-2.939,0
			l-16.141-11.728l-16.146,11.729C388.418,59.443,387.903,59.604,387.388,59.604z M384.195,26.101l11.391,8.277
			c0.875,0.638,1.242,1.765,0.908,2.795l-4.351,13.386l11.39-8.273c0.875-0.637,2.061-0.637,2.938,0l11.387,8.271l-4.35-13.386
			c-0.334-1.03,0.031-2.157,0.908-2.795l11.391-8.275H411.73c-1.084,0-2.043-0.697-2.379-1.727l-4.35-13.389l-4.352,13.389
			c-0.334,1.03-1.294,1.728-2.377,1.728L384.195,26.101L384.195,26.101z"/>
	</g>
</g>
<g id="Layer_6">
	<g id="Layer_2_5_">
		<path d="M297.388,59.604c-0.517,0-1.031-0.158-1.47-0.478c-0.877-0.638-1.244-1.765-0.908-2.795l6.166-18.976l-16.143-11.731
			c-0.877-0.637-1.244-1.765-0.908-2.795c0.334-1.03,1.293-1.728,2.377-1.728h19.955l6.166-18.978
			c0.334-1.03,1.295-1.728,2.377-1.728c1.084,0,2.043,0.697,2.379,1.727l6.168,18.978H343.5c1.084,0,2.043,0.697,2.379,1.728
			c0.334,1.03-0.033,2.159-0.908,2.795l-16.146,11.73l6.166,18.976c0.334,1.03-0.031,2.157-0.908,2.795s-2.063,0.638-2.939,0
			l-16.141-11.728l-16.146,11.729C298.418,59.443,297.903,59.604,297.388,59.604z M294.195,26.101l11.391,8.277
			c0.875,0.638,1.242,1.765,0.908,2.795l-4.351,13.386l11.39-8.273c0.875-0.637,2.061-0.637,2.938,0l11.387,8.271l-4.35-13.386
			c-0.334-1.03,0.031-2.157,0.908-2.795l11.391-8.275H321.73c-1.084,0-2.043-0.697-2.379-1.727l-4.35-13.389l-4.352,13.389
			c-0.334,1.03-1.294,1.728-2.377,1.728L294.195,26.101L294.195,26.101z"/>
	</g>
</g>
</svg>
