<?xml version="1.0" encoding="utf-8"?>
<!-- Generator: Adobe Illustrator 15.1.0, SVG Export Plug-In . SVG Version: 6.00 Build 0)  -->
<!DOCTYPE svg PUBLIC "-//W3C//DTD SVG 1.1//EN" "http://www.w3.org/Graphics/SVG/1.1/DTD/svg11.dtd">
<svg version="1.1" id="Layer_1" xmlns="http://www.w3.org/2000/svg" xmlns:xlink="http://www.w3.org/1999/xlink" x="0px" y="0px"
	 width="90px" height="60px" viewBox="0 0 90 60" enable-background="new 0 0 90 60" xml:space="preserve">
<g id="Layer_2">
</g>
<g id="Layer_1_2_">
	<g id="Layer_1_1_">
	</g>
	<g id="Layer_3">
	</g>
	<g>
		<path stroke="#000000" stroke-width="4" stroke-linecap="round" stroke-linejoin="round" stroke-miterlimit="10" d="M45,20.515"/>
		<path stroke="#000000" stroke-width="4" stroke-linecap="round" stroke-linejoin="round" stroke-miterlimit="10" d="M45,20.515"/>
		<path stroke="#000000" stroke-width="4" stroke-linecap="round" stroke-linejoin="round" stroke-miterlimit="10" d="M45,20.515"/>
		<path stroke="#000000" stroke-width="4" stroke-miterlimit="10" d="M45,20.515"/>
		<path d="M77.69,18.04L71.71,3c-0.69-1.73-2.35-2.85-4.22-2.85H23.21c-1.77,0-3.4,1.05-4.16,2.7l-6.68,15.02l-0.04,0.1
			c-0.23,0.56-0.35,1.15-0.35,1.75v0.76c0,4.29,2.54,8.26,6.33,10.28v15.76c0,7.221,6.11,13.33,13.34,13.33h27.41
			c6.971,0,12.641-5.979,12.641-13.33V30.94c3.819-1.92,6.319-5.891,6.319-10.46v-0.76C78.02,19.15,77.91,18.58,77.69,18.04z
			 M40.12,52.85v-7.96c0-1.37,1.17-2.21,1.81-2.21h6.69c0.7,0,1.26,0.99,1.26,2.21v7.96H40.12z M64.7,46.52
			c0,3.49-2.53,6.33-5.641,6.33h-5.18v-7.96c0-3.54-2.26-6.21-5.26-6.21h-6.69c-2.75,0-5.81,2.551-5.81,6.21v7.96h-4.47
			c-3.32,0-6.34-3.02-6.34-6.33V31.89H64.7V46.52z M71.02,20.48c0,2.04-1.189,3.77-2.96,4.41H22.31c-1.94-0.65-3.33-2.45-3.33-4.41
			v-0.25L24.8,7.15h41.03l5.189,13.04V20.48z"/>
	</g>
	<g id="Layer_2_2_">
	</g>
</g>
</svg>
