<?xml version="1.0" encoding="utf-8"?>
<!-- Generator: Adobe Illustrator 21.0.0, SVG Export Plug-In . SVG Version: 6.00 Build 0)  -->
<svg version="1.1" id="Livello_1" xmlns="http://www.w3.org/2000/svg" xmlns:xlink="http://www.w3.org/1999/xlink" x="0px" y="0px"
	 viewBox="0 0 58 90.7" style="enable-background:new 0 0 58 90.7;" xml:space="preserve">
<style type="text/css">
	.st0{fill:#FFFFFF;}
</style>
<title>tag_1</title>
<g id="Livello_2">
	<path class="st0" d="M23.5,51.3L12.2,66.7H15l11.3-15.4H23.5z M26.1,60.9c-0.6-0.7-1.4-1-2.4-1c-0.9,0-1.7,0.4-2.4,1
		c-0.6,0.7-1,1.5-1,2.5c0,1,0.3,1.8,0.9,2.5s1.4,1,2.4,1s1.7-0.3,2.4-1c0.6-0.7,1-1.5,1-2.5C27,62.4,26.7,61.5,26.1,60.9z
		 M24.6,64.5c-0.2,0.3-0.5,0.5-0.9,0.5c-0.4,0-0.7-0.2-0.9-0.5s-0.4-0.7-0.4-1.1s0.1-0.8,0.3-1.1c0.2-0.3,0.5-0.4,0.9-0.4
		s0.7,0.1,0.9,0.4c0.2,0.3,0.4,0.7,0.4,1.1S24.9,64.2,24.6,64.5z M22.1,28.5c-2.2,0-4,1.8-4,4c0,2.2,1.8,4,4,4c2.2,0,4-1.8,4-4
		C26.1,30.3,24.3,28.5,22.1,28.5z M22.2,34.9l-0.3,0c-0.6-0.1-1.1-0.3-1.5-0.7c-0.4-0.4-0.7-1-0.7-1.7c0-1.2,1-2.3,2.2-2.4
		c0.1,0,0.2,0,0.2,0c0,0,0.1,0,0.1,0c1.2,0.1,2.2,1.1,2.2,2.4s-0.9,2.3-2.2,2.4C22.3,34.9,22.2,34.9,22.2,34.9z M17.3,51.9
		c-0.6-0.7-1.4-1-2.4-1c-0.9,0-1.7,0.3-2.4,1c-0.6,0.7-1,1.5-1,2.5c0,1,0.3,1.8,1,2.5s1.4,1,2.4,1c0.9,0,1.7-0.3,2.4-1s1-1.5,1-2.5
		C18.3,53.4,18,52.6,17.3,51.9z M15.9,55.6C15.6,55.9,15.3,56,15,56c-0.4,0-0.7-0.2-0.9-0.5c-0.2-0.3-0.4-0.7-0.4-1.1
		s0.1-0.8,0.4-1.1c0.2-0.3,0.5-0.5,0.9-0.5c0.4,0,0.7,0.2,0.9,0.5c0.2,0.3,0.4,0.7,0.4,1.1S16.1,55.3,15.9,55.6z"/>
	<path d="M54.3,20.5h-0.5c-2.1,0-3.8-1.7-3.8-3.8c0.2-8.4-6.5-15.3-14.8-15.5S20,7.6,19.7,15.9v4.6H9.4c-0.9,0-1.8,0.5-2.2,1.4
		L0.9,34.6c-0.2,0.3-0.3,0.7-0.3,1.1v50.6c0,1.4,1.1,2.5,2.5,2.5h38c1.4,0.1,2.5-1,2.5-2.4V35.7c0-0.5-0.2-1.1-0.5-1.5l-9.5-12.7
		c-0.5-0.6-1.2-1-2-1h-7v-3.9C24.4,11,28.8,6.3,34.4,6.1C40,5.9,44.8,10.3,45,15.9v0.7c0,4.8,3.9,8.8,8.8,8.8
		c1.4,0.2,2.6-0.8,2.7-2.2C56.7,21.8,55.7,20.6,54.3,20.5z M30.4,25.5l8.3,11v47.4H5.6V36.2L11,25.5H30.4z"/>
	<path class="st0" d="M20.5,34.2c0.4,0.4,0.9,0.6,1.5,0.7c-1.3-0.1-2.2-1.1-2.2-2.4c0-1.3,1-2.3,2.3-2.4c-1.2,0.1-2.2,1.2-2.2,2.4
		C19.8,33.2,20,33.7,20.5,34.2z"/>
	<path d="M22.1,28.5c-2.2,0-4,1.8-4,4c0,2.2,1.8,4,4,4c2.2,0,4-1.8,4-4C26.1,30.3,24.3,28.5,22.1,28.5z M22.2,34.9l-0.3,0
		c-0.6-0.1-1.1-0.3-1.5-0.7c-0.4-0.4-0.7-1-0.7-1.7c0-1.2,1-2.3,2.2-2.4c0.1,0,0.2,0,0.2,0c0,0,0.1,0,0.1,0c1.2,0.1,2.2,1.1,2.2,2.4
		s-0.9,2.3-2.2,2.4C22.3,34.9,22.2,34.9,22.2,34.9z"/>
	<path class="st0" d="M24.6,32.5c0,1.2-1,2.3-2.3,2.4C23.6,34.8,24.5,33.7,24.6,32.5c-0.1-1.2-1-2.3-2.3-2.4
		C23.6,30.2,24.6,31.2,24.6,32.5z"/>
</g>
<path d="M17.3,51.9c-0.6-0.7-1.4-1-2.4-1c-0.9,0-1.7,0.3-2.4,1c-0.6,0.7-1,1.5-1,2.5c0,1,0.3,1.8,1,2.5s1.4,1,2.4,1
	c0.9,0,1.7-0.3,2.4-1s1-1.5,1-2.5C18.3,53.4,18,52.6,17.3,51.9z M15.9,55.6C15.6,55.9,15.3,56,15,56c-0.4,0-0.7-0.2-0.9-0.5
	c-0.2-0.3-0.4-0.7-0.4-1.1s0.1-0.8,0.4-1.1c0.2-0.3,0.5-0.5,0.9-0.5c0.4,0,0.7,0.2,0.9,0.5c0.2,0.3,0.4,0.7,0.4,1.1
	S16.1,55.3,15.9,55.6z"/>
<polygon points="26.3,51.3 15,66.7 12.2,66.7 23.5,51.3 "/>
<path d="M26.1,60.9c-0.6-0.7-1.4-1-2.4-1c-0.9,0-1.7,0.4-2.4,1c-0.6,0.7-1,1.5-1,2.5c0,1,0.3,1.8,0.9,2.5s1.4,1,2.4,1s1.7-0.3,2.4-1
	c0.6-0.7,1-1.5,1-2.5C27,62.4,26.7,61.5,26.1,60.9z M24.6,64.5c-0.2,0.3-0.5,0.5-0.9,0.5c-0.4,0-0.7-0.2-0.9-0.5s-0.4-0.7-0.4-1.1
	s0.1-0.8,0.3-1.1c0.2-0.3,0.5-0.4,0.9-0.4s0.7,0.1,0.9,0.4c0.2,0.3,0.4,0.7,0.4,1.1S24.9,64.2,24.6,64.5z"/>
</svg>
