<?xml version="1.0" encoding="utf-8"?>
<!-- Generator: Adobe Illustrator 15.1.0, SVG Export Plug-In . SVG Version: 6.00 Build 0)  -->
<!DOCTYPE svg PUBLIC "-//W3C//DTD SVG 1.1//EN" "http://www.w3.org/Graphics/SVG/1.1/DTD/svg11.dtd">
<svg version="1.1" xmlns="http://www.w3.org/2000/svg" xmlns:xlink="http://www.w3.org/1999/xlink" x="0px" y="0px" width="90px"
	 height="60px" viewBox="0 0 90 60" enable-background="new 0 0 90 60" xml:space="preserve">
<g id="Layer_2_1_">
</g>
<g id="Layer_1">
	<g id="Layer_2_3_">
	</g>
	<path d="M81.818,7.162c-2.709,1.205-5.621,2.013-8.678,2.379c3.123-1.87,5.521-4.83,6.643-8.358
		c-2.918,1.73-6.15,2.989-9.594,3.667c-2.754-2.937-6.682-4.771-11.025-4.771c-9.754,0-16.922,9.1-14.721,18.547
		c-12.552-0.629-23.683-6.643-31.136-15.783C9.35,9.63,11.255,18.515,17.98,23.012c-2.472-0.078-4.805-0.755-6.839-1.888
		c-0.165,7,4.851,13.543,12.117,15.002c-2.127,0.58-4.456,0.711-6.824,0.258c1.92,6.002,7.498,10.369,14.114,10.49
		c-6.351,4.98-14.354,7.203-22.368,6.26c6.687,4.287,14.63,6.787,23.158,6.787c28.05,0,43.899-23.689,42.942-44.94
		C77.232,12.852,79.793,10.191,81.818,7.162z"/>
</g>
</svg>
