<?xml version="1.0" encoding="utf-8"?>
<!-- Generator: Adobe Illustrator 15.1.0, SVG Export Plug-In . SVG Version: 6.00 Build 0)  -->
<!DOCTYPE svg PUBLIC "-//W3C//DTD SVG 1.1//EN" "http://www.w3.org/Graphics/SVG/1.1/DTD/svg11.dtd">
<svg version="1.1" id="Layer_1" xmlns="http://www.w3.org/2000/svg" xmlns:xlink="http://www.w3.org/1999/xlink" x="0px" y="0px"
	 width="90px" height="60px" viewBox="0 0 90 60" enable-background="new 0 0 90 60" xml:space="preserve">
<g id="Layer_2">
</g>
<path d="M94.51,44.95c-0.002-0.04-0.003-0.081-0.003-0.122v-0.502L94.51,44.95z"/>
<path d="M45.032,59.898c-0.972,0-1.886-0.377-2.573-1.064L20.804,37.178c-0.264-0.262-0.527-0.525-0.791-0.789
	c-4.458-4.434-9.068-9.02-9.449-16.409l-0.001-0.009c-0.119-2.534,0.279-5.033,1.185-7.425c0.866-2.289,2.154-4.376,3.828-6.205
	c1.668-1.822,3.629-3.287,5.826-4.354c2.28-1.108,4.703-1.73,7.202-1.851c0.364-0.021,0.731-0.034,1.09-0.034
	c3.388,0,6.541,0.964,9.637,2.947c2.036,1.303,3.865,2.922,5.655,4.657l2.088-2.088L47.1,5.594c1.856-1.74,4-3.091,6.366-4.018
	c2.31-0.899,4.728-1.357,7.188-1.357c2.604,0,5.119,0.512,7.47,1.521c2.466,1.058,4.637,2.615,6.451,4.631
	c3.021,3.373,4.751,7.734,4.876,12.281c0.126,4.568-1.381,9.002-4.238,12.487l-0.014,0.018c-1.605,1.914-3.444,3.674-5.225,5.377
	c-0.783,0.75-1.595,1.523-2.36,2.293L47.604,58.834C46.919,59.521,46.006,59.898,45.032,59.898z M29.5,7.41
	c-1.628,0-3.189,0.323-4.637,0.962c-3.493,1.529-5.915,4.518-6.651,8.203c-0.784,3.928,0.432,8.03,3.253,10.971l0.016,0.02
	c1.405,1.498,2.941,3.002,4.427,4.456c0.747,0.732,1.519,1.488,2.266,2.234l0.007,0.008c5.774,5.773,11.257,11.256,16.871,16.76
	l21.644-21.645c0.146-0.145,0.291-0.289,0.436-0.434c1.862-1.85,3.469-3.451,4.305-5.677l0.014-0.037
	c1.258-3.173,0.982-6.9-0.732-9.968c-2.054-3.616-5.82-5.775-10.074-5.775c-3.136,0-6.115,1.18-8.396,3.326l-4.64,4.639
	c-0.687,0.686-1.6,1.065-2.572,1.065c-0.972,0-1.886-0.379-2.573-1.066l-0.03-0.031c-0.295-0.306-0.586-0.614-0.879-0.92
	c-1.412-1.483-2.748-2.882-4.224-4.189C35.184,8.44,32.405,7.41,29.5,7.41z"/>
</svg>
