<?xml version="1.0" encoding="utf-8"?>
<!-- Generator: Adobe Illustrator 15.1.0, SVG Export Plug-In . SVG Version: 6.00 Build 0)  -->
<!DOCTYPE svg PUBLIC "-//W3C//DTD SVG 1.1//EN" "http://www.w3.org/Graphics/SVG/1.1/DTD/svg11.dtd">
<svg version="1.1" xmlns="http://www.w3.org/2000/svg" xmlns:xlink="http://www.w3.org/1999/xlink" x="0px" y="0px" width="90px"
	 height="60px" viewBox="0 0 90 60" enable-background="new 0 0 90 60" xml:space="preserve">
<g id="Layer_1">
	<g id="Layer_2">
	</g>
	<g id="Layer_1_1_">
		<path d="M73.781,53.516L55.678,35.412c2.604-3.654,4.145-8.119,4.145-12.937c0-12.322-10.025-22.347-22.347-22.347
			c-12.323,0-22.347,10.025-22.347,22.347c0,12.322,10.024,22.345,22.347,22.345c4.819,0,9.281-1.537,12.936-4.143l18.104,18.104
			c0.726,0.73,1.68,1.092,2.633,1.092s1.906-0.361,2.634-1.09C75.236,57.328,75.236,54.969,73.781,53.516z M37.475,37.373
			c-8.229,0-14.899-6.67-14.899-14.898c0-8.229,6.67-14.898,14.899-14.898c8.228,0,14.896,6.669,14.896,14.898
			C52.371,30.703,45.702,37.373,37.475,37.373z"/>
	</g>
	<g id="Layer_1_2_">
		<g id="Layer_2_2_">
		</g>
		<g>
			<path d="M47.538,22.474c0,0.732-0.541,1.28-1.26,1.28h-7.541v7.494c0,0.729-0.534,1.28-1.241,1.28
				c-0.719,0-1.279-0.565-1.279-1.28v-7.494h-7.524c-0.717,0-1.281-0.562-1.281-1.28c0-0.716,0.564-1.281,1.281-1.281h7.524v-7.511
				c0-0.716,0.548-1.26,1.279-1.26c0.717,0,1.241,0.531,1.241,1.26v7.511h7.541C46.997,21.193,47.538,21.744,47.538,22.474z"/>
		</g>
	</g>
</g>
<g id="Layer_2_3_" display="none">
	<g id="Layer_1_3_" display="inline">
		<g id="Layer_2_1_">
		</g>
		<g>
			<path d="M47.539,22.476c0,0.732-0.541,1.279-1.26,1.279H28.693c-0.717,0-1.281-0.561-1.281-1.279
				c0-0.717,0.564-1.281,1.281-1.281h17.586C46.998,21.195,47.539,21.747,47.539,22.476z"/>
		</g>
	</g>
</g>
</svg>
